# Rhino

o object_1
v 0.15000000596046448 -1.3500000238418579 0.15000000596046448
v 0.15000000596046448 1.3500000238418579 0.15000000596046448
v 0.15000000596046448 -1.3500000238418579 -0.14999999105930328
v 0.15000000596046448 1.3500000238418579 -0.14999999105930328
v -0.15000000596046448 -1.3500000238418579 0.15000000596046448
v -0.15000000596046448 -1.3500000238418579 -0.14999999105930328
v -0.15000000596046448 1.3500000238418579 0.15000000596046448
v -0.15000000596046448 1.3500000238418579 -0.14999999105930328
vt 0.99853515625 0.67500001192092896
vt 0.10000000149011612 0.67500001192092896
vt 0.99853515625 0.77499997615814209
vt 0.10000000149011612 0.77499997615814209
vt 0.55000001192092896 0
vt 0.55000001192092896 0.10000000149011612
vt 0.64999997615814209 0
vt 0.64999997615814209 0.10000000149011612
vt 0.99853515625 0.44999998807907104
vt 0.10000000149011612 0.44999998807907104
vt 0.99853515625 0.55000001192092896
vt 0.10000000149011612 0.55000001192092896
vt 0.99853515625 0.22499999403953552
vt 0.10000000149011612 0.22499999403953552
vt 0.99853515625 0.32499998807907104
vt 0.10000000149011612 0.32499998807907104
vt 0.10000000149011612 0
vt 0.10000000149011612 0.10000000149011612
vt 0.20000000298023224 0
vt 0.20000000298023224 0.10000000149011612
vt 0 0
vt 0 0.89853513240814209
vt 0.098535157740116119 0
vt 0.098535157740116119 0.89853513240814209
vn 1 0 0
vn 1 0 0
vn 1 0 0
vn 1 0 0
vn 0 -1 0
vn 0 -1 0
vn 0 -1 0
vn 0 -1 0
vn 0 0 1
vn 0 0 1
vn 0 0 1
vn 0 0 1
vn 0 0 -1
vn 0 0 -1
vn 0 0 -1
vn 0 0 -1
vn 0 1 0
vn 0 1 0
vn 0 1 0
vn 0 1 0
vn -1 0 0
vn -1 0 0
vn -1 0 0
vn -1 0 0
f 2/2/2 1/1/1 3/3/3
f 6/6/6 3/8/8 1/7/7
f 7/10/10 5/9/9 1/11/11
f 4/14/14 3/13/13 6/15/15
f 8/18/18 7/17/17 2/19/19
f 8/22/22 6/21/21 5/23/23
f 2/2/2 3/3/3 4/4/4
f 6/6/6 1/7/7 5/5/5
f 7/10/10 1/11/11 2/12/12
f 4/14/14 6/15/15 8/16/16
f 8/18/18 2/19/19 4/20/20
f 8/22/22 5/23/23 7/24/24
