# Rhino

o object_1
v -0.19999814033508301 -0.004999999888241291 -0.3500000536441803
v 0.50000184774398804 -0.004999999888241291 -0.3500000536441803
v -0.19999814033508301 -0.004999999888241291 0.64999991655349731
v -0.49999812245368958 -0.004999999888241291 0.64999991655349731
v -0.49999812245368958 -0.004999999888241291 -0.65000003576278687
v 0.50000184774398804 -0.004999999888241291 -0.65000003576278687
v 0.50000184774398804 0.004999999888241291 -0.3500000536441803
v -0.19999814033508301 0.004999999888241291 -0.3500000536441803
v 0.50000184774398804 0.004999999888241291 -0.65000003576278687
v -0.49999812245368958 0.004999999888241291 -0.65000003576278687
v -0.49999812245368958 0.004999999888241291 0.64999991655349731
v -0.19999814033508301 0.004999999888241291 0.64999991655349731
vt 0.65489459037780762 0.49174755811691284
vt 0.99369513988494873 0.49174755811691284
vt 0.65489459037780762 0.0063106799498200417
vt 0.50969439744949341 0.0063106799498200417
vt 0.50969439744949341 0.63737863302230835
vt 0.99369513988494873 0.63737863302230835
vt 0 0.0097087379544973373
vt 0 0.014563106931746006
vt 0.33980581164360046 0.0097087379544973373
vt 0.33980581164360046 0.014563106931746006
vt 0 0
vt 0 0.0048543689772486687
vt 0.14563107490539551 0
vt 0.14563107490539551 0.0048543689772486687
vt 0 0.014563106931746006
vt 0 0.019417475908994675
vt 0.48543688654899597 0.014563106931746006
vt 0.48543688654899597 0.019417475908994675
vt 0.0097087379544973373 0.019417475908994675
vt 0.0048543689772486687 0.019417475908994675
vt 0.0097087379544973373 0.65048545598983765
vt 0.0048543689772486687 0.65048545598983765
vt 0 0.0048543689772486687
vt 0 0.0097087379544973373
vt 0.14563107490539551 0.0048543689772486687
vt 0.14563107490539551 0.0097087379544973373
vt 0.0048543689772486687 0.019417475908994675
vt 0 0.019417475908994675
vt 0.0048543689772486687 0.50485438108444214
vt 0 0.50485438108444214
vt 0.15974898636341095 0.51004594564437866
vt 0.49854949116706848 0.51004594564437866
vt 0.49854949116706848 0.655345618724823
vt 0.014548745937645435 0.655345618724823
vt 0.014548745937645435 0.025713793933391571
vt 0.15974898636341095 0.025713793933391571
vn 0 -1 0
vn 0 -1 0
vn 0 -1 0
vn 0 -1 0
vn 0 -1 0
vn 0 -1 0
vn 0 0 1
vn 0 0 1
vn 0 0 1
vn 0 0 1
vn 1 0 0
vn 1 0 0
vn 1 0 0
vn 1 0 0
vn 0 0 -1
vn 0 0 -1
vn 0 0 -1
vn 0 0 -1
vn -1 0 0
vn -1 0 0
vn -1 0 0
vn -1 0 0
vn 0 0 1
vn 0 0 1
vn 0 0 1
vn 0 0 1
vn 1 0 0
vn 1 0 0
vn 1 0 0
vn 1 0 0
vn 0 1 0
vn 0 1 0
vn 0 1 0
vn 0 1 0
vn 0 1 0
vn 0 1 0
f 1/1/1 4/4/4 5/5/5
f 3/3/3 4/4/4 1/1/1
f 1/1/1 5/5/5 6/6/6
f 7/8/8 8/10/10 1/9/9
f 9/12/12 7/14/14 2/13/13
f 10/16/16 9/18/18 6/17/17
f 11/20/20 10/22/22 5/21/21
f 12/24/24 11/26/26 4/25/25
f 8/28/28 12/30/30 3/29/29
f 8/31/31 10/34/34 11/35/35
f 12/36/36 8/31/31 11/35/35
f 8/31/31 7/32/32 9/33/33
f 1/1/1 6/6/6 2/2/2
f 7/8/8 1/9/9 2/7/7
f 9/12/12 2/13/13 6/11/11
f 10/16/16 6/17/17 5/15/15
f 11/20/20 5/21/21 4/19/19
f 12/24/24 4/25/25 3/23/23
f 8/28/28 3/29/29 1/27/27
f 8/31/31 9/33/33 10/34/34
