# Rhino

o object_1
v -5.3639764701074455E-06 1.1920929132713809E-08 27.702482223510742
v -5.3639764701074455E-06 2.7000000476837158 27.702482223510742
v 0.40499341487884521 1.1920929132713809E-08 27.702482223510742
v 0.40499341487884521 2.7000000476837158 27.702482223510742
v 0.40499341487884521 1.1920929132713809E-08 -1.5078308024385478E-06
v 0.40499341487884521 2.7000000476837158 -1.5078308024385478E-06
v -5.3639764701074455E-06 1.1920929132713809E-08 -1.5078308024385478E-06
v -5.3639764701074455E-06 2.7000000476837158 -1.5078308024385478E-06
vt 0 0
vt 0 0.88461458683013916
vt 0.0072044888511300087 0
vt 0.0072044888511300087 0.88461458683013916
vt 0.0072044888511300087 0
vt 0.0072044888511300087 0.88461458683013916
vt 0.5 0
vt 0.5 0.88461458683013916
vt 0.5 0
vt 0.5 0.88461458683013916
vt 0.50720447301864624 0
vt 0.50720447301864624 0.88461458683013916
vt 0.50720447301864624 0
vt 0.50720447301864624 0.88461458683013916
vt 1 0
vt 1 0.88461458683013916
vt 0.49279549717903137 1
vt 0.49279549717903137 0.88461548089981079
vt 0 0.88461548089981079
vt 0 1
vt 1 0.88461548089981079
vt 1 1
vt 0.50720447301864624 1
vt 0.50720447301864624 0.88461548089981079
vn 0 0 1
vn 0 0 1
vn 0 0 1
vn 0 0 1
vn 1 0 0
vn 1 0 0
vn 1 0 0
vn 1 0 0
vn 0 0 -1
vn 0 0 -1
vn 0 0 -1
vn 0 0 -1
vn -1 0 0
vn -1 0 0
vn -1 0 0
vn -1 0 0
vn 0 -1 0
vn 0 -1 0
vn 0 -1 0
vn 0 -1 0
vn 0 1 0
vn 0 1 0
vn 0 1 0
vn 0 1 0
f 1/1/1 3/3/3 4/4/4
f 3/5/5 5/7/7 6/8/8
f 5/9/9 7/11/11 8/12/12
f 7/13/13 1/15/15 2/16/16
f 3/18/18 1/17/17 7/20/20
f 7/20/20 5/19/19 3/18/18
f 4/22/22 8/24/24 2/21/21
f 8/24/24 4/22/22 6/23/23
f 1/1/1 4/4/4 2/2/2
f 3/5/5 6/8/8 4/6/6
f 5/9/9 8/12/12 6/10/10
f 7/13/13 2/16/16 8/14/14
