# Rhino

v -2.4335746765136719 -1.1594072580337524 -1.6970726251602173
v 4.80938720703125 -1.1594072580337524 2.2957024574279785
v -0.12689937651157379 -1.4098633527755737 -2.3890211582183838
v -1.3298056125640869 -1.4098633527755737 -2.2034544944763184
v -1.3133406639099121 -1.1594072580337524 -2.1772668361663818
v -0.066682800650596619 -1.1594072580337524 -2.3605306148529053
v 1.1846439838409424 -1.1594072580337524 -2.2127349376678467
v 2.3179712295532227 -1.1594072580337524 -1.7645381689071655
v 3.3027737140655518 -1.1594072580337524 -1.0450888872146606
v 4.0981621742248535 -1.1594072580337524 -0.06460677832365036
v 4.6125621795654297 -1.1594072580337524 1.0894623994827271
v -2.4485626220703125 -1.4098633527755737 -1.7226991653442383
v 4.825225830078125 -1.2840725183486938 2.2807614803314209
v 4.8386111259460449 -1.4098633527755737 2.2844398021697998
v 4.7260308265686035 -1.4098633527755737 1.4094611406326294
v 4.4369425773620605 -1.4098633527755737 0.52130061388015747
v 3.9618067741394043 -1.4098633527755737 -0.32643100619316101
v 3.3130443096160889 -1.4098633527755737 -1.0761888027191162
v 2.5258817672729492 -1.4098633527755737 -1.6779011487960815
v 1.6523715257644653 -1.4098633527755737 -2.0994942188262939
v 0.75054073333740234 -1.4098633527755737 -2.3322079181671143
v -4.8386392593383789 -1.4098633527755737 2.3907272815704346
v -4.8081827163696289 -1.1594072580337524 2.3486123085021973
v -4.6299495697021484 -1.1594072580337524 1.1593879461288452
v -4.4248433113098145 -1.1594072580337524 0.57462984323501587
v -4.1441102027893066 -1.1594072580337524 0.016578167676925659
v -3.7938597202301025 -1.1594072580337524 -0.50039416551589966
v -3.3836569786071777 -1.1594072580337524 -0.96395504474639893
v -3.411691427230835 -1.4098633527755737 -0.97790229320526123
v -3.826833963394165 -1.4098633527755737 -0.50623178482055664
v -4.1804213523864746 -1.4098633527755737 0.019983915612101555
v -4.4626102447509766 -1.4098633527755737 0.5879666805267334
v -4.6671667098999023 -1.4098633527755737 1.1828259229660034
v 4.7930431365966797 -1.1594072580337524 2.3486123085021973
v 4.8059773445129395 -1.4098633527755737 2.3907272815704346
v 4.797821044921875 -1.284720778465271 2.3696839809417725
v -0.20099543035030365 -1.4098633527755737 2.3907272815704346
vt 0.071155823767185211 0
vt 0.071155823767185211 0.82966059446334839
vt 0.05157133936882019 0.20629765093326569
vt 0.05157133936882019 0.10671919584274292
vt 0.071155823767185211 0.10745014995336533
vt 0.071155823767185211 0.21106131374835968
vt 0.071155823767185211 0.31103566288948059
vt 0.071155823767185211 0.40756133198738098
vt 0.071155823767185211 0.50720345973968506
vt 0.071155823767185211 0.61742323637008667
vt 0.071155823767185211 0.72916442155838013
vt 0.05157133936882019 0
vt 0.061436798423528671 0.82850337028503418
vt 0.05157133936882019 0.82884752750396729
vt 0.05157133936882019 0.75739592313766479
vt 0.05157133936882019 0.67817032337188721
vt 0.05157133936882019 0.59106206893920898
vt 0.05157133936882019 0.50605475902557373
vt 0.05157133936882019 0.42538279294967651
vt 0.05157133936882019 0.34872263669967651
vt 0.05157133936882019 0.27578237652778625
vt 0.0093255629763007164 0
vt 0.028910044580698013 0.41225790977478027
vt 0.0093255629763007164 0.41225790977478027
vt 0.028910044580698013 0.0034503161441534758
vt 0.028910044580698013 0.10019427537918091
vt 0.028910044580698013 0.14986947178840637
vt 0.028910044580698013 0.20044498145580292
vt 0.028910044580698013 0.25194546580314636
vt 0.028910044580698013 0.30439659953117371
vt 0.0093255629763007164 0.30352789163589478
vt 0.0093255629763007164 0.25064358115196228
vt 0.0093255629763007164 0.19871081411838531
vt 0.0093255629763007164 0.14770422875881195
vt 0.0093255629763007164 0.097599215805530548
vt 0.76773041486740112 0.40611732006072998
vt 0.80437546968460083 0.50097012519836426
vt 0.81594330072402954 0.60549551248550415
vt 0.7999536395072937 0.70943737030029297
vt 0.75931936502456665 0.80265367031097412
vt 0.69655567407608032 0.88268387317657471
vt 0.61263346672058105 0.94614744186401367
vt 0.5150984525680542 0.98566281795501709
vt 0.41416022181510925 0.99853515625
vt 0.31482329964637756 0.98607450723648071
vt 0.26573881506919861 0.97014600038528442
vt 0.21872299909591675 0.94785308837890625
vt 0.17498454451560974 0.91967636346817017
vt 0.13556918501853943 0.88638895750045776
vt 0.072620667517185211 0.80860066413879395
vt 0.76432353258132935 0.40301185846328735
vt 0 0.021002370864152908
vt 0.0064768437296152115 0
vt 0.0078278500586748123 0.010487782768905163
vt 0.0078607192263007164 0.021002370864152908
vt 0.002580943051725626 0
vt 0.0012583381030708551 0.010542793199419975
vt 0.05010649561882019 0.81298631429672241
vt 0.040247417986392975 0.81230562925338745
vt 0.030374888330698013 0.81190687417984009
vt 0.030374888330698013 0.010591286234557629
vt 0.05010649561882019 0.008049369789659977
vt 0.05010649561882019 0.39510580897331238
vt 0.68778693675994873 0.3461381196975708
vt 0.59458184242248535 0.38611596822738647
vt 0.49436613917350769 0.40154701471328735
vt 0.080682918429374695 0.012919018976390362
vt 0.083401694893836975 0.0040805414319038391
vt 0.42126545310020447 0.39682263135910034
vt 0.34613272547721863 0.37747099995613098
vt 0.27335944771766663 0.34241288900375366
vt 0.20777991414070129 0.29237666726112366
vt 0.15373063087463379 0.23002953827381134
vt 0.11414645612239838 0.15953525900840759
vt 0.090062141418457031 0.085679054260253906
vt 0.50053912401199341 0.0040805414319038391
vt 0.88690733909606934 0.0040805414319038391
vt 0.87262177467346191 0.10452522337436676
vt 0.8555799126625061 0.15399155020713806
vt 0.83207035064697266 0.20122292637825012
vt 0.8026125431060791 0.24498112499713898
vt 0.76802647113800049 0.28420349955558777
vn -0.50215804576873779 0.14332295954227448 -0.85281640291213989
vn 0.9891129732131958 0.14297154545783997 -0.034852582961320877
vn -0.026479246094822884 0.092097654938697815 -0.99539786577224731
vn -0.27469342947006226 0.092074476182460785 -0.95711326599121094
vn -0.27129754424095154 0.14340922236442566 -0.95175176858901978
vn -0.014050393365323544 0.14344468712806702 -0.98955857753753662
vn 0.2441786527633667 0.14341598749160767 -0.95906656980514526
vn 0.47778263688087463 0.14333449304103851 -0.86670583486557007
vn 0.68035411834716797 0.14322106540203094 -0.71875309944152832
vn 0.84355956315994263 0.14310072362422943 -0.51761901378631592
vn 0.94887226819992065 0.14300931990146637 -0.28140673041343689
vn -0.50524365901947021 0.092018693685531616 -0.85805672407150269
vn 0.99234861135482788 0.11749614775180817 -0.037932157516479492
vn 0.99508506059646606 0.091790348291397095 -0.03715246170759201
vn 0.97207474708557129 0.091804429888725281 -0.21596916019916534
vn 0.91294068098068237 0.091839097440242767 -0.39762410521507263
vn 0.81561076641082764 0.091891385614871979 -0.57125741243362427
vn 0.68246406316757202 0.091953352093696594 -0.72511196136474609
vn 0.52058809995651245 0.092013806104660034 -0.84883540868759155
vn 0.34063506126403809 0.092061892151832581 -0.93567746877670288
vn 0.15461485087871552 0.092090465128421783 -0.98367351293563843
vn -0.9956587553024292 0.091789990663528442 -0.015434783883392811
vn -0.50215804576873779 0.14332295954227448 -0.85281640291213989
vn -0.50524365901947021 0.092018693685531616 -0.85805672407150269
vn -0.98943483829498291 0.1429712325334549 -0.024041073396801949
vn -0.95299685001373291 0.14300552010536194 -0.26710745692253113
vn -0.91103315353393555 0.1430433988571167 -0.38672617077827454
vn -0.85354399681091309 0.14309252798557281 -0.50098621845245361
vn -0.78173905611038208 0.14314936101436615 -0.60695332288742065
vn -0.69753968715667725 0.14320962131023407 -0.70208930969238281
vn -0.70329743623733521 0.091944389045238495 -0.7049248218536377
vn -0.78850269317626953 0.091904900968074799 -0.60812580585479736
vn -0.86098325252532959 0.091867744922637939 -0.50026810169219971
vn -0.91876256465911865 0.091835781931877136 -0.38398119807243347
vn -0.96060776710510254 0.091811321675777435 -0.26230412721633911
vn 0 1 0
vn 0 1 0
vn 0 1 0
vn 0 1 0
vn 0 1 0
vn 0 1 0
vn 0 1 0
vn 0 1 0
vn 0 1 0
vn 0 1 0
vn 0 1 0
vn 0 1 0
vn 0 1 0
vn 0 1 0
vn 0 1 0
vn 0 1 0
vn 0.95199894905090332 0.12214715778827667 0.28067439794540405
vn 0.95131736993789673 0.072121143341064453 0.29965606331825256
vn 0.94814389944076538 0.097022399306297302 0.30267113447189331
vn 0.94547605514526367 0.12215227633714676 0.30191701650619507
vn 0.95458394289016724 0.072119623422622681 0.28908166289329529
vn 0.95362907648086548 0.097150027751922607 0.2848745584487915
vn 0 0.16582517325878143 0.98615515232086182
vn 0 0.16582517325878143 0.98615515232086182
vn 0 0.16582517325878143 0.98615515232086182
vn 0 0.16582517325878143 0.98615515232086182
vn 0 0.16582517325878143 0.98615515232086182
vn 0 0.16582517325878143 0.98615515232086182
vn 0 -1 0
vn 0 -1 0
vn 0 -1 0
vn 0 -1 0
vn 0 -1 0
vn 0 -1 0
vn 0 -1 0
vn 0 -1 0
vn 0 -1 0
vn 0 -1 0
vn 0 -1 0
vn 0 -1 0
vn 0 -1 0
vn 0 -1 0
vn 0 -1 0
vn 0 -1 0
vn 0 -1 0
vn 0 -1 0
vn 0 -1 0
f 1/1/1 5/5/5 4/4/4
f 6/6/6 7/7/7 21/21/21
f 7/7/7 8/8/8 20/20/20
f 5/5/5 6/6/6 3/3/3
f 7/7/7 20/20/20 21/21/21
f 9/9/9 10/10/10 17/17/17
f 13/13/13 11/11/11 2/2/2
f 10/10/10 11/11/11 16/16/16
f 11/11/11 13/13/13 15/15/15
f 18/18/18 19/19/19 9/9/9
f 11/11/11 15/15/15 16/16/16
f 13/13/13 14/14/14 15/15/15
f 23/25/25 24/26/26 33/35/35
f 24/26/26 25/27/27 32/34/34
f 31/33/33 32/34/34 25/27/27
f 26/28/28 27/29/29 30/32/32
f 27/29/29 28/30/30 29/31/31
f 12/24/24 29/31/31 28/30/30
f 11/37/37 34/51/51 2/36/36
f 10/38/38 23/50/50 11/37/37
f 9/39/39 23/50/50 10/38/38
f 34/51/51 11/37/37 23/50/50
f 8/40/40 23/50/50 9/39/39
f 24/49/49 23/50/50 7/41/41
f 8/40/40 7/41/41 23/50/50
f 5/43/43 27/46/46 6/42/42
f 5/43/43 1/44/44 28/45/45
f 28/45/45 27/46/46 5/43/43
f 24/49/49 7/41/41 25/48/48
f 6/42/42 26/47/47 25/48/48
f 6/42/42 27/46/46 26/47/47
f 6/42/42 25/48/48 7/41/41
f 36/57/57 35/52/52 14/55/55
f 34/56/56 36/57/57 2/53/53
f 36/57/57 14/55/55 13/54/54
f 2/53/53 36/57/57 13/54/54
f 23/61/61 22/62/62 37/63/63
f 36/59/59 23/61/61 37/63/63
f 23/61/61 36/59/59 34/60/60
f 37/63/63 35/58/58 36/59/59
f 37/76/76 15/75/75 14/67/67
f 17/73/73 16/74/74 37/76/76
f 15/75/75 37/76/76 16/74/74
f 18/72/72 12/64/64 19/71/71
f 21/69/69 20/70/70 4/65/65
f 20/70/70 19/71/71 12/64/64
f 17/73/73 30/81/81 18/72/72
f 35/68/68 37/76/76 14/67/67
f 30/81/81 37/76/76 31/80/80
f 32/79/79 31/80/80 37/76/76
f 32/79/79 37/76/76 33/78/78
f 22/77/77 33/78/78 37/76/76
f 4/65/65 3/66/66 21/69/69
f 20/70/70 12/64/64 4/65/65
f 18/72/72 29/82/82 12/64/64
f 18/72/72 30/81/81 29/82/82
f 30/81/81 17/73/73 37/76/76
f 1/1/1 4/4/4 12/12/12
f 6/6/6 21/21/21 3/3/3
f 8/8/8 19/19/19 20/20/20
f 5/5/5 3/3/3 4/4/4
f 9/9/9 17/17/17 18/18/18
f 10/10/10 16/16/16 17/17/17
f 19/19/19 8/8/8 9/9/9
f 23/25/25 33/35/35 22/22/22
f 24/26/26 32/34/34 33/35/35
f 31/33/33 25/27/27 26/28/28
f 26/28/28 30/32/32 31/33/33
f 27/29/29 29/31/31 30/32/32
f 12/24/24 28/30/30 1/23/23
v 0.36530163884162903 1.4098633527755737 -0.87920647859573364
v -0.021496828645467758 1.4098633527755737 -1.1069624423980713
v 0.5922895073890686 1.4098633527755737 -1.2673137187957764
v 0.20549102127552032 1.4098633527755737 -1.4950696229934692
v 0.36530163884162903 -1.1594072580337524 -0.87920647859573364
v -0.021496828645467758 -1.1594072580337524 -1.1069624423980713
v 0.14830291271209717 -1.1594072580337524 -1.0069804191589355
v 0.20549102127552032 -1.1594072580337524 -1.4950696229934692
v 0.14240854978561401 -1.1594072580337524 -1.3872103691101074
v 0.5922895073890686 -1.1594072580337524 -1.2673137187957764
vt 0 0
vt 0 0.17470782995223999
vt 0.17404624819755554 0
vt 0.17404624819755554 0.17470782995223999
vt 0.52550286054611206 0
vt 0.52550286054611206 0.99853515625
vt 0.69874584674835205 0
vt 0.69874584674835205 0.99853515625
vt 0.62269431352615356 0.99853515625
vt 0.17551109194755554 0
vt 0.17551109194755554 0.99853515625
vt 0.34904211759567261 0
vt 0.34904211759567261 0.99853515625
vt 0.30081591010093689 0.99853515625
vt 0.70021069049835205 0
vt 0.70021069049835205 0.99853515625
vt 0.87345367670059204 0
vt 0.87345367670059204 0.99853515625
vt 0.35050696134567261 0
vt 0.35050696134567261 0.99853515625
vt 0.52403801679611206 0
vt 0.52403801679611206 0.99853515625
vt 0 0.67470818758010864
vt 0.17404624819755554 0.50000107288360596
vt 0.17375960946083069 0.59801393747329712
vt 0.17353533208370209 0.67470818758010864
vt 0.048227410763502121 0.67470818758010864
vt 0.00051091512432321906 0.50000107288360596
vn 0 1 0
vn 0 1 0
vn 0 1 0
vn 0 1 0
vn -0.507396399974823 0 0.8617127537727356
vn -0.507396399974823 0 0.8617127537727356
vn -0.507396399974823 0 0.8617127537727356
vn -0.507396399974823 0 0.8617127537727356
vn -0.507396399974823 0 0.8617127537727356
vn -0.86320531368255615 0 -0.5048530101776123
vn -0.86320531368255615 0 -0.5048530101776123
vn -0.86320531368255615 0 -0.5048530101776123
vn -0.86320531368255615 0 -0.5048530101776123
vn -0.86320531368255615 0 -0.5048530101776123
vn 0.507396399974823 0 -0.8617127537727356
vn 0.507396399974823 0 -0.8617127537727356
vn 0.507396399974823 0 -0.8617127537727356
vn 0.507396399974823 0 -0.8617127537727356
vn 0.86320531368255615 0 0.5048530101776123
vn 0.86320531368255615 0 0.5048530101776123
vn 0.86320531368255615 0 0.5048530101776123
vn 0.86320531368255615 0 0.5048530101776123
vn 0 -1 0
vn 0 -1 0
vn 0 -1 0
vn 0 -1 0
vn 0 -1 0
vn 0 -1 0
f 39/84/84 38/83/83 40/85/85
f 44/91/91 42/88/88 38/87/87
f 43/90/90 44/91/91 39/89/89
f 38/87/87 39/89/89 44/91/91
f 46/96/96 43/93/93 39/92/92
f 45/95/95 46/96/96 41/94/94
f 45/98/98 41/97/97 40/99/99
f 47/102/102 40/101/101 38/103/103
f 46/109/109 45/105/105 47/110/110
f 42/106/106 46/109/109 47/110/110
f 46/109/109 44/107/107 43/108/108
f 46/109/109 42/106/106 44/107/107
f 39/84/84 40/85/85 41/86/86
f 46/96/96 39/92/92 41/94/94
f 45/98/98 40/99/99 47/100/100
f 47/102/102 38/103/103 42/104/104
