# Rhino

v 2.9022977352142334 -0.12499994784593582 -2.1798956394195557
v 3.9058833122253418 -0.023741252720355988 4.1906051635742188
v 3.8522844314575195 -0.023681560531258583 4.1556086540222168
v 3.683821439743042 -0.017583113163709641 4.0335850715637207
v 3.5010738372802734 0.0006798788090236485 3.8775088787078857
v 3.3334462642669678 0.030705735087394714 3.7073311805725098
v 3.1821045875549316 0.072232954204082489 3.5243420600891113
v 3.0482144355773926 0.12500004470348358 3.3298323154449463
v 3.805152416229248 -0.12499994784593582 4.1906051635742188
v 2.6475808620452881 0.12500004470348358 2.776057243347168
v 2.3302769660949707 0.12500004470348358 2.1328840255737305
v 2.1222221851348877 0.12500004470348358 1.4210073947906494
v 2.0419094562530518 0.12500004470348358 0.67069864273071289
v 2.0964486598968506 0.12500004470348358 -0.081990636885166168
v 2.2799701690673828 0.12500004470348358 -0.80077952146530151
v 2.5750303268432617 0.12500004470348358 -1.4547625780105591
v 2.9564347267150879 0.12500004470348358 -2.0223424434661865
v 2.4053518772125244 -0.12499994784593582 -1.438259482383728
v 2.0650136470794678 -0.12499994784593582 -0.58859944343566895
v 1.9097806215286255 -0.12499994784593582 0.31492316722869873
v 1.9437793493270874 -0.12499994784593582 1.2110552787780762
v 2.1600198745727539 -0.12499994784593582 2.0805997848510742
v 2.5598776340484619 -0.12499994784593582 2.9031386375427246
v 3.1223833560943604 -0.12499994784593582 3.6210803985595703
v 3.4221599102020264 0.010588370263576508 3.8550498485565186
v 3.1479651927947998 0.057703126221895218 3.7661073207855225
v 3.3947150707244873 0.010588370263576508 4.0335850715637207
v 3.1068480014801025 0.057703126221895218 4.0335850715637207
v 2.8273155689239502 0.12500004470348358 4.1906051635742188
v 2.8188724517822266 0.12500004470348358 3.9652168750762939
v 2.854194164276123 0.12500004470348358 3.7381412982940674
v 2.9325060844421387 0.12500004470348358 3.5224225521087646
v 3.8177919387817383 -0.02155698835849762 4.1906051635742188
v 3.5675530433654785 -0.0058410908095538616 4.1906051635742188
v 3.3185536861419678 0.02389148622751236 4.1906051635742188
v 3.0715558528900146 0.067549742758274078 4.1906051635742188
v -3.7559082508087158 0.12500004470348358 4.1906051635742188
v -3.7797069549560547 0.12500004470348358 4.1451840400695801
v -3.8043441772460938 0.12500004470348358 4.1002154350280762
v -3.8298070430755615 0.12500004470348358 4.055722713470459
v -3.8560824394226074 0.12500004470348358 4.0117297172546387
v -3.1038515567779541 0.12500004470348358 3.5104026794433594
v -2.4183623790740967 0.12500004470348358 2.8394355773925781
v -1.8523544073104858 0.12500004470348358 2.0141031742095947
v -1.4524192810058594 0.12500004470348358 1.0715293884277344
v -1.248441219329834 0.12500004470348358 0.066409081220626831
v -1.2467820644378662 0.12500004470348358 -0.93905496597290039
v -1.4301899671554565 0.12500004470348358 -1.8873611688613892
v -1.7640441656112671 0.12500004470348358 -2.7353506088256836
v 1.0611145496368408 0.12500004470348358 -4.1635823249816895
v -3.9058768749237061 -0.12499994784593582 4.1906051635742188
v -3.0645904541015625 -0.12499994784593582 3.6515185832977295
v -2.3292505741119385 -0.12499994784593582 2.9422314167022705
v -1.7464097738265991 -0.12499994784593582 2.0996036529541016
v -1.345125675201416 -0.12499994784593582 1.1757917404174805
v -1.127771258354187 -0.12499994784593582 0.19062125682830811
v -1.1040325164794922 -0.12499994784593582 -0.83852225542068481
v -1.2810279130935669 -0.12499994784593582 -1.8521630764007568
v -1.6428482532501221 -0.12499994784593582 -2.7926039695739746
v 1.1225152015686035 -0.12499994784593582 -4.1906065940856934
v -3.9058768749237061 0.039663214236497879 4.1906051635742188
v -3.8681058883666992 0.060478497296571732 4.1906051635742188
v -3.8305191993713379 0.081640541553497314 4.1906051635742188
v -3.7931191921234131 0.10314813256263733 4.1906051635742188
v -3.8806962966918945 0.10135304182767868 4.0402450561523438
v -3.9058768749237061 0.077970914542675018 4.0684471130371094
v -3.9058768749237061 -0.022835578769445419 4.1306509971618652
v -3.9058768749237061 0.05837627500295639 4.1293883323669434
vt 0.44376340508460999 0.061903174966573715
vt 0.9111485481262207 0.068745151162147522
vt 0.90714198350906372 0.068748712539672852
vt 0.8941652774810791 0.069157414138317108
vt 0.8792375922203064 0.070393294095993042
vt 0.86443763971328735 0.072440624237060547
vt 0.84972864389419556 0.075288720428943634
vt 0.83507251739501953 0.078923553228378296
vt 0.90586614608764648 0.061903174966573715
vt 0.79178786277770996 0.078923553228378296
vt 0.74553722143173218 0.078923553228378296
vt 0.69600486755371094 0.078923553228378296
vt 0.64282870292663574 0.078923553228378296
vt 0.58901518583297729 0.078923553228378296
vt 0.53902637958526611 0.078923553228378296
vt 0.49249917268753052 0.078923553228378296
vt 0.44908609986305237 0.078923553228378296
vt 0.49862214922904968 0.061903174966573715
vt 0.55652022361755371 0.061903174966573715
vt 0.617717444896698 0.061903174966573715
vt 0.67991632223129272 0.061903174966573715
vt 0.73843717575073242 0.061903174966573715
vt 0.7955702543258667 0.061903174966573715
vt 0.85136443376541138 0.061903174966573715
vt 0.44376340508460999 0.14398866891860962
vt 0.46821433305740356 0.10708838701248169
vt 0.46821433305740356 0.12553852796554565
vt 0.49266526103019714 0.10708838701248169
vt 0.49266526103019714 0.12553852796554565
vt 0.50358682870864868 0.14398866891860962
vt 0.48785346746444702 0.14398866891860962
vt 0.4723699688911438 0.14398866891860962
vt 0.45769378542900085 0.14398866891860962
vt 0.57896906137466431 0.080388396978378296
vt 0.55167269706726074 0.083709441125392914
vt 0.52127903699874878 0.097744181752204895
vt 0.51124483346939087 0.11314662545919418
vt 0.50640934705734253 0.12862968444824219
vt 0.44937315583229065 0.13007800281047821
vt 0.45659676194190979 0.11596983671188354
vt 0.46776372194290161 0.10175872594118118
vt 0.49266421794891357 0.088258370757102966
vt 0.55167263746261597 0.080442510545253754
vt 0.43588128685951233 0.017546670511364937
vt 0.43740585446357727 0.020466029644012451
vt 0.43898415565490723 0.023356322199106216
vt 0.44061535596847534 0.026216015219688416
vt 0.44229856133460999 0.029043607413768768
vt 0.39410963654518127 0.061265662312507629
vt 0.35019630193710327 0.10439107567071915
vt 0.31393706798553467 0.15743808448314667
vt 0.28831666707992554 0.21802061796188354
vt 0.27524957060813904 0.28262323141098022
vt 0.27514326572418213 0.34724792838096619
vt 0.28689262270927429 0.40819892287254333
vt 0.30827978253364563 0.46270215511322021
vt 0 0.072871558368206024
vt 0.0074124196544289589 0.060493107885122299
vt 0.012429201975464821 0.046628106385469437
vt 0.014691942371428013 0.032033149152994156
vt 0.014151078648865223 0.017546670511364937
vt 0.0058795134536921978 0.41687464714050293
vt 0.030312813818454742 0.38039427995681763
vt 0.049214750528335571 0.3383604884147644
vt 0.060971405357122421 0.29216137528419495
vt 0.064465247094631195 0.24378341436386108
vt 0.059320315718650818 0.19555842876434326
vt 0.045992054045200348 0.14980362355709076
vt 0.02566511370241642 0.10846461355686188
vt 0.12729629874229431 0.55449962615966797
vt 0.46126386523246765 0.16372019052505493
vt 0.49582159519195557 0.21763280034065247
vt 0.54128992557525635 0.26475599408149719
vt 0.5953059196472168 0.30210649967193604
vt 0.6545262336730957 0.32782220840454102
vt 0.71767985820770264 0.34175103902816772
vt 0.78365230560302734 0.34327229857444763
vt 0.84863102436065674 0.33192980289459229
vt 0.90891724824905396 0.30874308943748474
vt 0.46126386523246765 0.65787029266357422
vt 0.869640052318573 0.60001212358474731
vt 0.8220980167388916 0.56816613674163818
vt 0.7676311731338501 0.54635602235794067
vt 0.70971155166625977 0.53640812635421753
vt 0.65226566791534424 0.53858691453933716
vt 0.59652417898178101 0.55244439840316772
vt 0.54379594326019287 0.57806867361068726
vt 0.49777281284332275 0.61411601305007935
vt 0.99853515625 0.48595738410949707
vt 0.44376340508460999 0.060438331216573715
vt 0.93937838077545166 0.060438331216573715
vt 0.87652933597564697 0.045834798365831375
vt 0.89222753047943115 0.049190707504749298
vt 0.90810292959213257 0.051740966737270355
vt 0.92410701513290405 0.05347776785492897
vt 0.94019079208374023 0.054395798593759537
vt 0.94585144519805908 0.054522033780813217
vt 0.45340242981910706 0.045834798365831375
vt 0.44376596808433533 0.050824597477912903
vt 0.44619324803352356 0.049607817083597183
vt 0.44860824942588806 0.048370048403739929
vt 0.45101118087768555 0.047112051397562027
vt 0.96471667289733887 0.16225534677505493
vt 0.44376340508460999 0.14545351266860962
vt 0.50567680597305298 0.14545351266860962
vt 0.56804782152175903 0.14545351266860962
vt 0.63088148832321167 0.14545351266860962
vt 0.69418305158615112 0.14545351266860962
vt 0.76050323247909546 0.14545351266860962
vt 0.832020103931427 0.14545351266860962
vt 0.90057992935180664 0.14545351266860962
vt 0.96442461013793945 0.14545351266860962
vt 0.45173740386962891 0.16225534677505493
vt 0.4494931697845459 0.16065162420272827
vt 0.44723537564277649 0.15906907618045807
vt 0.90553700923919678 0.16225534677505493
vt 0.83983820676803589 0.16225534677505493
vt 0.76804602146148682 0.16225534677505493
vt 0.69845479726791382 0.16225534677505493
vt 0.6322600245475769 0.16225534677505493
vt 0.56921893358230591 0.16225534677505493
vt 0.50911140441894531 0.16225534677505493
vt 0.44544973969459534 0.15228070318698883
vt 0.68650299310684204 0
vt 0.68650299310684204 0.011715148575603962
vt 0.68650299310684204 0.0087974704802036285
vt 0.68650299310684204 0.0058724046684801579
vt 0.68650299310684204 0.002939924132078886
vt 0.69202357530593872 0.010454766452312469
vt 0.68925905227661133 0.01107729971408844
vt 0.68904858827590942 0.0010081129148602486
vt 0.69158738851547241 0.002045612083747983
vt 0.69411903619766235 0.0031136672478169203
vt 0.6966431736946106 0.0042134835384786129
vt 0.69437211751937866 0.0073816156946122646
vt 0.44376340508460999 0
vt 0.45161491632461548 0.011715148575603962
vt 0.44376340508460999 0.0095040909945964813
vt 0.44761687517166138 0.0058967615477740765
vt 0.44769799709320068 0.010584177449345589
vt 0.62939602136611938 0.013179992325603962
vt 0.6195070743560791 0.028299923986196518
vt 0.44691643118858337 0.028299923986196518
vt 0.44560137391090393 0.013179992325603962
vt 0.64930886030197144 0.029764767736196518
vt 0.65361446142196655 0.044369954615831375
vt 0.45445320010185242 0.044369954615831375
vt 0.44584116339683533 0.029764767736196518
vn 0.67959052324295044 -0.46693933010101318 0.56579536199569702
vn 0.47082191705703735 -0.48925507068634033 -0.73413634300231934
vn 0.48202270269393921 -0.4891907274723053 -0.72687447071075439
vn 0.51720213890075684 -0.49017235636711121 -0.70159322023391724
vn 0.55530434846878052 -0.49359357357025146 -0.66932988166809082
vn 0.59018623828887939 -0.49943569302558899 -0.6342272162437439
vn 0.62161582708358765 -0.50764656066894531 -0.59656411409378052
vn 0.64937674999237061 -0.51815438270568848 -0.55662006139755249
vn 0.49186870455741882 -0.46842348575592041 -0.73392409086227417
vn 0.73220235109329224 -0.51729631423950195 -0.44303971529006958
vn 0.79749435186386108 -0.51654624938964844 -0.31174150109291077
vn 0.84014695882797241 -0.5160210132598877 -0.16695919632911682
vn 0.85657632350921631 -0.51581120491027832 -0.014688652940094471
vn 0.84542161226272583 -0.51595407724380493 0.1380351334810257
vn 0.80781948566436768 -0.5164216160774231 0.28414154052734375
vn 0.74715602397918701 -0.51713025569915771 0.41753336787223816
vn 0.66838693618774414 -0.51796668767929077 0.53382527828216553
vn 0.78207194805145264 -0.4659256637096405 0.41385594010353088
vn 0.85185205936431885 -0.46515265107154846 0.24079257249832153
vn 0.88356143236160278 -0.4647790789604187 0.057442203164100647
vn 0.87662309408187866 -0.46486201882362366 -0.12423880398273468
vn 0.83240795135498047 -0.46537482738494873 -0.30087089538574219
vn 0.75027740001678467 -0.46625560522079468 -0.4687105119228363
vn 0.6339992880821228 -0.46734398603439331 -0.61614483594894409
vn 0.2066941112279892 0.966389000415802 0.15287210047245026
vn 0.12312352657318115 0.99163269996643066 0.038797415792942047
vn 0.18441151082515717 0.98112976551055908 0.05810985341668129
vn 0.12926009297370911 0.99161070585250854 0
vn 0.19359740614891052 0.98108106851577759 0
vn 0.25600636005401611 0.96607357263565063 -0.034097414463758469
vn 0.25789019465446472 0.96606016159057617 0.014846130274236202
vn 0.25000879168510437 0.96611553430557251 0.064159363508224487
vn 0.23253023624420166 0.96623212099075317 0.1110188290476799
vn 0.014917196705937386 0.9993060827255249 -0.034129276871681213
vn 0.034619763493537903 0.99881792068481445 -0.034121576696634293
vn 0.0905771404504776 0.99530500173568726 -0.034112803637981415
vn 0.14627839624881744 0.98865503072738647 -0.034115917980670929
vn 0.20148009061813354 0.97889852523803711 -0.034109286963939667
vn 0.17690370976924896 0.97798383235931396 0.11069184541702271
vn 0.14308090507984161 0.98716515302658081 0.070942237973213196
vn 0.10534479469060898 0.99385839700698853 0.033880755305290222
vn 0.064443469047546387 0.99792134761810303 8.049583470892685E-07
vn 0.026790037751197815 0.99929231405258179 -0.026404466480016708
vn 0 1 0
vn 0 1 0
vn 0 1 0
vn 0 1 0
vn 0 1 0
vn 0 1 0
vn 0 1 0
vn 0 1 0
vn 0 1 0
vn 0 1 0
vn 0 1 0
vn 0 1 0
vn 0 1 0
vn 0 1 0
vn 0 1 0
vn 0 1 0
vn 0 1 0
vn 0 1 0
vn 0 1 0
vn 0 1 0
vn 0 1 0
vn 0 1 0
vn 0 1 0
vn 0 1 0
vn 0 1 0
vn 0 1 0
vn 0 1 0
vn 0 -1 0
vn 0 -1 0
vn 0 -1 0
vn 0 -1 0
vn 0 -1 0
vn 0 -1 0
vn 0 -1 0
vn 0 -1 0
vn 0 -1 0
vn 0 -1 0
vn 0 -1 0
vn 0 -1 0
vn 0 -1 0
vn 0 -1 0
vn 0 -1 0
vn 0 -1 0
vn 0 -1 0
vn 0 -1 0
vn 0 -1 0
vn 0 0 1
vn 0 0 1
vn 0 0 1
vn 0 0 1
vn 0 0 1
vn 0 0 1
vn 0 0 1
vn 0 0 1
vn 0 0 1
vn 0 0 1
vn 0 0 1
vn 0 0 1
vn 0 0 1
vn -0.77743494510650635 -0.49366855621337891 0.3897259533405304
vn -0.40487197041511536 -0.45401284098625183 -0.79369455575942993
vn -0.55204015970230103 -0.4530942440032959 -0.69996947050094604
vn -0.67984312772750854 -0.45206508040428162 -0.57745170593261719
vn -0.78046983480453491 -0.45110237598419189 -0.43286657333374023
vn -0.8493579626083374 -0.45036542415618896 -0.27524903416633606
vn -0.88652616739273071 -0.44994139671325684 -0.10781519860029221
vn -0.89057916402816772 -0.4498940110206604 0.066814273595809937
vn -0.86032974720001221 -0.45024219155311584 0.23898680508136749
vn -0.79828029870986938 -0.45091792941093445 0.39927628636360168
vn -0.41360646486282349 -0.4967685341835022 -0.76298803091049194
vn -0.40928927063941956 -0.49274507164955139 -0.76790922880172729
vn -0.40487200021743774 -0.4887668788433075 -0.77277785539627075
vn -0.83478349447250366 -0.49300459027290344 0.24511836469173431
vn -0.86618798971176147 -0.49262058734893799 0.083924494683742523
vn -0.86590421199798584 -0.49262413382530212 -0.08678329735994339
vn -0.83097225427627563 -0.493050217628479 -0.25765600800514221
vn -0.76222711801528931 -0.49383655190467834 -0.41849163174629211
vn -0.66440296173095703 -0.4948367178440094 -0.56009405851364136
vn -0.5451928973197937 -0.49586796760559082 -0.67592871189117432
vn -0.40487188100814819 -0.47150614857673645 -0.7834288477897644
vn -0.49371829628944397 0.83204460144042969 0.25287154316902161
vn -0.47326448559761047 0.83228129148483276 0.28866684436798096
vn -0.47863110899925232 0.83222019672393799 0.27986037731170654
vn -0.48383072018623352 0.83216029405593872 0.27095586061477661
vn -0.4888606071472168 0.83210176229476929 0.26195800304412842
vn -0.46309179067611694 0.84178847074508667 0.27737733721733093
vn -0.46823641657829285 0.83706068992614746 0.28299117088317871
vn -0.48612242937088013 0.83649706840515137 0.2528984546661377
vn -0.47848543524742126 0.8408808708190918 0.25292491912841797
vn -0.47080796957015991 0.84519559144973755 0.25295120477676392
vn -0.46309050917625427 0.84944075345993042 0.25297737121582031
vn -0.46309095621109009 0.84570258855819702 0.26520541310310364
vn -1 0 0
vn -1 0 0
vn -1 0 0
vn -1 0 0
vn -1 0 0
vn 0.72548240423202515 0.24759656190872192 -0.64216136932373047
vn 0.72548240423202515 0.24759656190872192 -0.64216136932373047
vn 0.72548240423202515 0.24759656190872192 -0.64216136932373047
vn 0.72548240423202515 0.24759656190872192 -0.64216136932373047
vn -0.45111837983131409 -0.014334872364997864 -0.8923490047454834
vn -0.45111837983131409 -0.014334872364997864 -0.8923490047454834
vn -0.45111837983131409 -0.014334872364997864 -0.8923490047454834
vn -0.45111837983131409 -0.014334872364997864 -0.8923490047454834
f 1/1/1 17/17/17 16/16/16
f 18/18/18 16/16/16 15/15/15
f 20/20/20 13/13/13 21/21/21
f 21/21/21 12/12/12 22/22/22
f 19/19/19 15/15/15 14/14/14
f 20/20/20 14/14/14 13/13/13
f 24/24/24 23/23/23 6/6/6
f 9/9/9 24/24/24 4/4/4
f 4/4/4 24/24/24 5/5/5
f 3/3/3 2/2/2 9/9/9
f 4/4/4 3/3/3 9/9/9
f 10/10/10 23/23/23 11/11/11
f 7/7/7 10/10/10 8/8/8
f 23/23/23 10/10/10 7/7/7
f 7/7/7 6/6/6 23/23/23
f 6/6/6 5/5/5 24/24/24
f 28/29/29 27/28/28 25/26/26
f 25/26/26 5/41/41 6/40/40
f 6/40/40 26/27/27 25/26/26
f 26/27/27 31/32/32 30/31/31
f 7/39/39 26/27/27 6/40/40
f 32/33/33 7/39/39 8/25/25
f 26/27/27 7/39/39 32/33/33
f 31/32/32 26/27/27 32/33/33
f 27/28/28 5/41/41 25/26/26
f 27/28/28 34/36/36 4/42/42
f 3/43/43 4/42/42 34/36/36
f 33/35/35 2/34/34 3/43/43
f 34/36/36 33/35/35 3/43/43
f 35/37/37 27/28/28 28/29/29
f 28/29/29 29/30/30 36/38/38
f 28/29/29 36/38/38 35/37/37
f 35/37/37 34/36/36 27/28/28
f 30/31/31 29/30/30 28/29/29
f 4/42/42 5/41/41 27/28/28
f 42/49/49 39/46/46 38/45/45
f 42/49/49 38/45/45 37/44/44
f 42/49/49 41/48/48 40/47/47
f 39/46/46 42/49/49 40/47/47
f 29/61/61 42/49/49 37/44/44
f 29/61/61 30/60/60 44/51/51
f 10/69/69 30/60/60 31/59/59
f 31/59/59 32/58/58 10/69/69
f 29/61/61 44/51/51 43/50/50
f 10/69/69 32/58/58 8/57/57
f 30/60/60 10/69/69 11/68/68
f 43/50/50 42/49/49 29/61/61
f 46/53/53 45/52/52 13/66/66
f 45/52/52 44/51/51 11/68/68
f 50/70/70 49/56/56 48/55/55
f 14/65/65 47/54/54 46/53/53
f 48/55/55 47/54/54 50/70/70
f 15/64/64 50/70/70 47/54/54
f 45/52/52 11/68/68 12/67/67
f 45/52/52 12/67/67 13/66/66
f 47/54/54 14/65/65 15/64/64
f 50/70/70 16/63/63 17/62/62
f 16/63/63 50/70/70 15/64/64
f 14/65/65 46/53/53 13/66/66
f 30/60/60 11/68/68 44/51/51
f 9/80/80 51/71/71 52/72/72
f 23/87/87 53/73/73 54/74/74
f 24/88/88 52/72/72 53/73/73
f 52/72/72 24/88/88 9/80/80
f 54/74/74 22/86/86 23/87/87
f 22/86/86 55/75/75 21/85/85
f 23/87/87 24/88/88 53/73/73
f 55/75/75 22/86/86 54/74/74
f 21/85/85 56/76/76 20/84/84
f 60/89/89 58/78/78 59/79/79
f 19/83/83 57/77/77 58/78/78
f 20/84/84 56/76/76 57/77/77
f 19/83/83 20/84/84 57/77/77
f 1/81/81 18/82/82 60/89/89
f 58/78/78 18/82/82 19/83/83
f 58/78/78 60/89/89 18/82/82
f 55/75/75 56/76/76 21/85/85
f 64/102/102 63/101/101 29/92/92
f 63/101/101 62/100/100 36/93/93
f 61/99/99 51/90/90 34/95/95
f 61/99/99 36/93/93 62/100/100
f 29/92/92 37/98/98 64/102/102
f 35/94/94 61/99/99 34/95/95
f 36/93/93 61/99/99 35/94/94
f 34/95/95 51/90/90 9/91/91
f 33/96/96 34/95/95 9/91/91
f 9/91/91 2/97/97 33/96/96
f 29/92/92 63/101/101 36/93/93
f 52/105/105 51/104/104 67/123/123
f 42/122/122 52/105/105 67/123/123
f 52/105/105 42/122/122 53/106/106
f 53/106/106 43/121/121 54/107/107
f 42/122/122 66/115/115 65/114/114
f 65/114/114 41/113/113 42/122/122
f 67/123/123 66/115/115 42/122/122
f 55/108/108 45/119/119 56/109/109
f 57/110/110 47/117/117 58/111/111
f 58/111/111 48/116/116 59/112/112
f 56/109/109 46/118/118 57/110/110
f 45/119/119 55/108/108 44/120/120
f 64/131/131 39/127/127 63/132/132
f 63/132/132 68/135/135 62/133/133
f 38/128/128 64/131/131 37/124/124
f 64/131/131 38/128/128 39/127/127
f 68/135/135 61/134/134 62/133/133
f 39/127/127 66/129/129 63/132/132
f 65/130/130 66/129/129 39/127/127
f 65/130/130 39/127/127 40/126/126
f 65/130/130 40/126/126 41/125/125
f 68/135/135 63/132/132 66/129/129
f 67/139/139 51/136/136 61/138/138
f 68/140/140 66/137/137 67/139/139
f 61/138/138 68/140/140 67/139/139
f 1/142/142 60/143/143 50/144/144
f 49/148/148 50/145/145 59/147/147
f 1/1/1 16/16/16 18/18/18
f 18/18/18 15/15/15 19/19/19
f 13/13/13 12/12/12 21/21/21
f 12/12/12 11/11/11 22/22/22
f 19/19/19 14/14/14 20/20/20
f 23/23/23 22/22/22 11/11/11
f 28/29/29 25/26/26 26/27/27
f 26/27/27 30/31/31 28/29/29
f 42/122/122 43/121/121 53/106/106
f 43/121/121 44/120/120 54/107/107
f 45/119/119 46/118/118 56/109/109
f 47/117/117 48/116/116 58/111/111
f 48/116/116 49/103/103 59/112/112
f 46/118/118 47/117/117 57/110/110
f 55/108/108 54/107/107 44/120/120
f 1/142/142 50/144/144 17/141/141
f 50/145/145 60/146/146 59/147/147
