# Rhino

v -0.71527659893035889 -0.1246206983923912 -0.45918378233909607
v -0.71527659893035889 0.1253792941570282 -0.45918378233909607
v -0.71527659893035889 -0.1246206983923912 0.91224479675292969
v -0.71527659893035889 0.1253792941570282 0.91224479675292969
v 0.83472341299057007 -0.1246206983923912 0.91224479675292969
v 0.83472341299057007 0.1253792941570282 0.91224479675292969
v 0.83472341299057007 -0.1246206983923912 -0.45918378233909607
v 0.83472341299057007 0.1253792941570282 -0.45918378233909607
v -3.607776403427124 0.1253792941570282 1.4999998807907104
v 3.6077761650085449 0.1253792941570282 -1.5000001192092896
v -2.0299122333526611 0.1253792941570282 -1.5000001192092896
v 2.458235502243042 0.1253792941570282 1.4999998807907104
v -2.354057788848877 0.1253792941570282 -0.38116887211799622
v 2.4571926593780518 0.1253792941570282 1.4061635732650757
v 2.8591165542602539 0.1253792941570282 -0.39357092976570129
v 3.6077761650085449 -0.12407331913709641 -1.5000001192092896
v -2.0299122333526611 -0.12492416054010391 -1.5000001192092896
v -2.354057788848877 -0.12537935376167297 -0.38116887211799622
v -3.607776403427124 -0.12537935376167297 1.4999998807907104
v 2.458235502243042 -0.12407331913709641 1.4999998807907104
v 2.8591165542602539 -0.12407331913709641 -0.39357092976570129
v 2.4571926593780518 -0.12407331913709641 1.4061635732650757
vt 0.06480417400598526 0.03240208700299263
vt 0.06480417400598526 0.06333933025598526
vt 0.24255275726318359 0.03240208700299263
vt 0.24255275726318359 0.06333933025598526
vt 0.06480417400598526 0.097206257283687592
vt 0.06480417400598526 0.12814350426197052
vt 0.26569709181785583 0.097206257283687592
vt 0.26569709181785583 0.12814350426197052
vt 0.06480417400598526 0
vt 0.06480417400598526 0.030937241390347481
vt 0.24255275726318359 0
vt 0.24255275726318359 0.030937241390347481
vt 0.06480417400598526 0.06480417400598526
vt 0.06480417400598526 0.095741413533687592
vt 0.26569709181785583 0.06480417400598526
vt 0.26569709181785583 0.095741413533687592
vt 0.06480417400598526 0.19443990290164948
vt 0.99853515625 0.58180010318756104
vt 0.43910908699035645 0.27033087611198425
vt 0.43910908699035645 0.44740980863571167
vt 0.63968729972839355 0.27033087611198425
vt 0.63968729972839355 0.44740980863571167
vt 0.26898819208145142 0.58180010318756104
vt 0.84977847337722778 0.19443990290164948
vt 0.22704204916954041 0.4373365044593811
vt 0.8496435284614563 0.2065560519695282
vt 0.90165460109710693 0.43893790245056152
vt 0 0
vt 0.030937241390347481 0.73069149255752563
vt 0 0.73069149255752563
vt 0.030937241390347481 0
vt 0.21528761088848114 0.16193948686122894
vt 0.21528761088848114 0.19297505915164948
vt 0.50877827405929565 0.16193948686122894
vt 0.50877827405929565 0.19297505915164948
vt 0.03240208700299263 0.78620576858520508
vt 0.06333933025598526 0
vt 0.06333933025598526 0.78620576858520508
vt 0.03240208700299263 0
vt 0.06480417400598526 0.97062510251998901
vt 0.99853515625 0.58326494693756104
vt 0.62423020601272583 0.83623486757278442
vt 0.62423020601272583 0.65915590524673462
vt 0.42365199327468872 0.65915590524673462
vt 0.42365199327468872 0.83623486757278442
vt 0.79435110092163086 0.97062510251998901
vt 0.83629727363586426 0.82616156339645386
vt 0.21356086432933807 0.58326494693756104
vt 0.16168472170829773 0.8277629017829895
vt 0.21369580924510956 0.59538108110427856
vt 0.06480417400598526 0.12960834801197052
vt 0.06480417400598526 0.16047464311122894
vt 0.076858848333358765 0.12960834801197052
vt 0.076858848333358765 0.16047464311122894
vt 0.31719353795051575 0.12960834801197052
vt 0.31719353795051575 0.16047464311122894
vt 0.48911961913108826 0.12960834801197052
vt 0.48911961913108826 0.16047464311122894
vt 0.21528761088848114 0.16193948686122894
vt 0.06480417400598526 0.19291873276233673
vt 0.21528761088848114 0.19297505915164948
vt 0.21528761088848114 0.16193948686122894
vt 0.06480417400598526 0.16193948686122894
vt 0.06480417400598526 0.19291873276233673
vn 1 0 0
vn 1 0 0
vn 1 0 0
vn 1 0 0
vn 0 0 -1
vn 0 0 -1
vn 0 0 -1
vn 0 0 -1
vn -1 0 0
vn -1 0 0
vn -1 0 0
vn -1 0 0
vn 0 0 1
vn 0 0 1
vn 0 0 1
vn 0 0 1
vn 0 1 0
vn 0 1 0
vn 0 1 0
vn 0 1 0
vn 0 1 0
vn 0 1 0
vn 0 1 0
vn 0 1 0
vn 0 1 0
vn 0 1 0
vn 0 1 0
vn 0 0 -1
vn 0 0 -1
vn 0 0 -1
vn 0 0 -1
vn -0.92630666494369507 0 -0.3767704963684082
vn -0.92630666494369507 0 -0.3767704963684082
vn -0.70533132553100586 0 -0.7088778018951416
vn -0.70533132553100586 0 -0.7088778018951416
vn 0 0 1
vn 0 0 1
vn 0 0 1
vn 0 0 1
vn 0 -1 0
vn 0 -1 0
vn 0 -1 0
vn 0 -1 0
vn 0 -1 0
vn 0 -1 0
vn 0 -1 0
vn 0 -1 0
vn 0 -1 0
vn 0 -1 0
vn 0 -1 0
vn 0.99975299835205078 0 -0.022223928943276405
vn 0.99975299835205078 0 -0.022223928943276405
vn 1 0 0
vn 1 0 0
vn 0.90533775091171265 0 0.42469236254692078
vn 0.90533775091171265 0 0.42469236254692078
vn 0.73153793811798096 0 0.68180078268051147
vn 0.73153793811798096 0 0.68180078268051147
vn -0.92630666494369507 0 -0.3767704963684082
vn -0.98429673910140991 0 -0.176521897315979
vn -0.92630666494369507 0 -0.3767704963684082
vn -0.92630666494369507 0 -0.3767704963684082
vn -0.98429673910140991 0 -0.176521897315979
vn -0.98429673910140991 0 -0.176521897315979
f 2/2/2 4/4/4 3/3/3
f 4/6/6 6/8/8 5/7/7
f 6/10/10 8/12/12 7/11/11
f 8/14/14 2/16/16 1/15/15
f 13/25/25 9/17/17 4/19/19
f 12/24/24 4/19/19 9/17/17
f 11/23/23 13/25/25 2/20/20
f 4/19/19 2/20/20 13/25/25
f 8/22/22 11/23/23 2/20/20
f 14/26/26 6/21/21 12/24/24
f 4/19/19 12/24/24 6/21/21
f 15/27/27 6/21/21 14/26/26
f 10/18/18 8/22/22 15/27/27
f 6/21/21 15/27/27 8/22/22
f 11/23/23 8/22/22 10/18/18
f 11/28/28 10/30/30 16/29/29
f 9/34/34 13/32/32 18/33/33
f 20/36/36 12/38/38 9/37/37
f 5/44/44 22/50/50 20/48/48
f 21/49/49 7/45/45 16/40/40
f 22/50/50 5/44/44 21/49/49
f 5/44/44 7/45/45 21/49/49
f 5/44/44 20/48/48 3/43/43
f 18/47/47 3/43/43 19/41/41
f 20/48/48 19/41/41 3/43/43
f 1/42/42 3/43/43 18/47/47
f 17/46/46 7/45/45 1/42/42
f 18/47/47 17/46/46 1/42/42
f 16/40/40 7/45/45 17/46/46
f 14/53/53 12/51/51 20/52/52
f 22/54/54 21/56/56 15/55/55
f 10/57/57 15/55/55 21/56/56
f 13/59/59 17/60/60 18/61/61
f 13/62/62 11/63/63 17/64/64
f 2/2/2 3/3/3 1/1/1
f 4/6/6 5/7/7 3/5/5
f 6/10/10 7/11/11 5/9/9
f 8/14/14 1/15/15 7/13/13
f 11/28/28 16/29/29 17/31/31
f 9/34/34 18/33/33 19/35/35
f 20/36/36 9/37/37 19/39/39
f 14/53/53 20/52/52 22/54/54
f 22/54/54 15/55/55 14/53/53
f 10/57/57 21/56/56 16/58/58
