# Rhino

v 2.0970780849456787 -0.12499997764825821 -0.62301290035247803
v 2.0970780849456787 0.12500002980232239 -0.62301290035247803
v -1.452921986579895 -0.12499997764825821 -0.62301290035247803
v -1.452921986579895 0.12500002980232239 -0.62301290035247803
v -1.452921986579895 -0.12499997764825821 0.7589525580406189
v -1.452921986579895 0.12500002980232239 0.7589525580406189
v 2.0970780849456787 -0.12499997764825821 0.7589525580406189
v 2.0970780849456787 0.12500002980232239 0.7589525580406189
v 3.3721854686737061 -0.12499997764825821 1.1261272430419922
v 3.3721854686737061 -0.12499997764825821 1.166138768196106
v 3.3615338802337646 -0.12499997764825821 1.166138768196106
v 3.3721854686737061 0.12500002980232239 1.166138768196106
v 3.3721854686737061 0.12500002980232239 -1.166138768196106
v 3.3721854686737061 -0.12499997764825821 -1.1228749752044678
v -3.3721857070922852 0.12500002980232239 1.166138768196106
v -3.3721857070922852 0.12500002980232239 -0.48743292689323425
v -3.3721857070922852 -0.12499997764825821 1.166138768196106
v -3.3721857070922852 -0.12499997764825821 -0.44416907429695129
vt 0.10849848389625549 0
vt 0.073487803339958191 0
vt 0.10849848389625549 0.51795238256454468
vt 0.073487803339958191 0.51795238256454468
vt 0.48230504989624023 0
vt 0.44729435443878174 0
vt 0.48230504989624023 0.20163163542747498
vt 0.44729435443878174 0.20163163542747498
vt 0.59173160791397095 0
vt 0.55672091245651245 0
vt 0.59173160791397095 0.51795238256454468
vt 0.55672091245651245 0.51795238256454468
vt 0.48376989364624023 0
vt 0.51878058910369873 0.20163163542747498
vt 0.48376989364624023 0.20163163542747498
vt 0.51878058910369873 0
vt 0.44393521547317505 0
vt 0.44729435443878174 0.0041428836993873119
vt 0.44597980380058289 0.0052849017083644867
vt 0.037012282758951187 0
vt 0.037012282758951187 0.34028416872024536
vt 0.072022959589958191 0
vt 0.072022959589958191 0.0058377766981720924
vt 0.072022959589958191 0.33397188782691956
vt 0.9684913158416748 0.98401778936386108
vt 0.62967199087142944 0.98401778936386108
vt 0.70857405662536621 0.28002458810806274
vt 0.70857405662536621 0.79797697067260742
vt 0.90933769941329956 0.28002458810806274
vt 0.90933769941329956 0.79797697067260742
vt 0.9684913158416748 0
vt 0.72827029228210449 0
vt 0.10996332764625549 0
vt 0.44247037172317505 0.98401778936386108
vt 0.18257436156272888 0.18604083359241486
vt 0.18257436156272888 0.70399326086044312
vt 0.383321613073349 0.70399326086044312
vt 0.383321613073349 0.18604083359241486
vt 0.43665820360183716 0
vt 0.44247037172317505 0.0015540908789262176
vt 0.20855359733104706 0.98401778936386108
vt 0 0.010364928282797337
vt 0.035547439008951187 0.010996034368872643
vt 0 0.99790406227111816
vt 0.035547439008951187 0.99853515625
vt 0.52024543285369873 0.0024125957861542702
vt 0.55525606870651245 0.0024125957861542702
vt 0.55525606870651245 0.24367214739322662
vt 0.52024543285369873 0.23735986649990082
vt 0.62820714712142944 0
vt 0.59345215559005737 0.0015540888998657465
vt 0.62820714712142944 0.98401778936386108
vt 0.62820714712142944 0
vt 0.5934525728225708 0
vt 0.59345215559005737 0.0015540888998657465
vt 0.62820714712142944 0.98401778936386108
vt 0.59345215559005737 0.0015540888998657465
vt 0.59319645166397095 0.98401778936386108
vn 0 0 1
vn 0 0 1
vn 0 0 1
vn 0 0 1
vn 1 0 0
vn 1 0 0
vn 1 0 0
vn 1 0 0
vn 0 0 -1
vn 0 0 -1
vn 0 0 -1
vn 0 0 -1
vn -1 0 0
vn -1 0 0
vn -1 0 0
vn -1 0 0
vn 0.32360386848449707 -0.94226276874542236 0.086147494614124298
vn 0.32360386848449707 -0.94226276874542236 0.086147494614124298
vn 0.32360386848449707 -0.94226276874542236 0.086147494614124298
vn 1 0 0
vn 1 0 0
vn 1 0 0
vn 1 0 0
vn 1 0 0
vn 0 1 0
vn 0 1 0
vn 0 1 0
vn 0 1 0
vn 0 1 0
vn 0 1 0
vn 0 1 0
vn 0 1 0
vn 0 -1 0
vn 0 -1 0
vn 0 -1 0
vn 0 -1 0
vn 0 -1 0
vn 0 -1 0
vn 0 -1 0
vn 0 -1 0
vn 0 -1 0
vn -0.098675146698951721 -0.16968868672847748 -0.98054522275924683
vn -0.098675146698951721 -0.16968868672847748 -0.98054522275924683
vn -0.098675146698951721 -0.16968868672847748 -0.98054522275924683
vn -0.098675146698951721 -0.16968868672847748 -0.98054522275924683
vn -1 0 0
vn -1 0 0
vn -1 0 0
vn -1 0 0
vn 0 0 1
vn 0 0 1
vn 0 0 1
vn 0 0 1
vn 0 0 1
vn 0 0 1
vn 0 0 1
vn 0 0 1
vn 0 0 1
f 2/2/2 4/4/4 3/3/3
f 4/6/6 6/8/8 5/7/7
f 6/10/10 8/12/12 7/11/11
f 8/13/13 2/15/15 1/14/14
f 11/19/19 9/17/17 10/18/18
f 13/21/21 12/20/20 14/24/24
f 12/20/20 10/22/22 9/23/23
f 16/32/32 15/31/31 6/29/29
f 15/31/31 12/25/25 6/29/29
f 13/26/26 16/32/32 4/27/27
f 6/29/29 4/27/27 16/32/32
f 2/28/28 8/30/30 12/25/25
f 4/27/27 2/28/28 13/26/26
f 12/25/25 13/26/26 2/28/28
f 7/38/38 1/35/35 9/39/39
f 3/36/36 14/33/33 1/35/35
f 9/39/39 1/35/35 14/33/33
f 7/38/38 9/39/39 11/40/40
f 7/38/38 11/40/40 5/37/37
f 17/34/34 5/37/37 11/40/40
f 3/36/36 5/37/37 18/41/41
f 14/33/33 3/36/36 18/41/41
f 16/44/44 13/42/42 14/43/43
f 18/49/49 17/46/46 15/47/47
f 12/50/50 15/52/52 11/51/51
f 12/53/53 11/55/55 10/54/54
f 15/56/56 17/58/58 11/57/57
f 2/2/2 3/3/3 1/1/1
f 4/6/6 5/7/7 3/5/5
f 6/10/10 7/11/11 5/9/9
f 8/13/13 1/14/14 7/16/16
f 12/20/20 9/23/23 14/24/24
f 12/25/25 8/30/30 6/29/29
f 5/37/37 17/34/34 18/41/41
f 16/44/44 14/43/43 18/45/45
f 18/49/49 15/47/47 16/48/48
