# Rhino

v 0.6563866138458252 0.12499997764825821 0.72462368011474609
v -2.4992187023162842 0.12499997764825821 -1.4999992847442627
v -2.2278532981872559 -0.12500002980232239 -1.4999992847442627
v -1.9355775117874146 -0.12500002980232239 -0.9322810173034668
v -1.6824883222579956 -0.12500002980232239 -0.597015380859375
v -1.3877772092819214 -0.12500002980232239 -0.3003542423248291
v -1.0557801723480225 -0.12500002980232239 -0.04610925167798996
v -0.69083356857299805 -0.12500002980232239 0.16190789639949799
v -0.36871594190597534 -0.12500002980232239 0.29575595259666443
v -0.034655537456274033 -0.12500002980232239 0.39227643609046936
v 0.30812090635299683 -0.12500002980232239 0.45073053240776062
v 0.6563866138458252 -0.12500002980232239 0.47037941217422485
v 0.25286012887954712 0.12499997764825821 0.70023435354232788
v -0.14479140937328339 0.12499997764825821 0.62742143869400024
v -0.59186089038848877 0.12499997764825821 0.48341372609138489
v -1.0865429639816284 0.12499997764825821 0.23558993637561798
v -1.5308892726898193 0.12499997764825821 -0.08786020427942276
v -1.9163837432861328 0.12499997764825821 -0.4795970618724823
v -2.2345099449157715 0.12499997764825821 -0.9322810173034668
v -2.4966223239898682 0.12499997764825821 -1.4927480220794678
v -2.366121768951416 -0.0028068977408111095 -1.4999992847442627
v 2.3602559566497803 0.12499997764825821 0.25901439785957336
v 1.7807381153106689 -0.12500002980232239 0.25901439785957336
v 1.2289212942123413 -0.12500002980232239 0.41698315739631653
v 1.9046339988708496 0.12499997764825821 0.48341372609138489
v 1.4575645923614502 0.12499997764825821 0.62742143869400024
v 1.0599130392074585 0.12499997764825821 0.70023435354232788
v 1.4243252277374268 0.12499997764825821 1.5000007152557373
v -0.800761878490448 0.12499997764825821 0.79898375272750854
v 1.0212699174880981 -0.12500002980232239 1.5000007152557373
v 0.54028916358947754 -0.12500002980232239 1.2692217826843262
v 0.18985006213188171 -0.12500002980232239 1.1514980792999268
v -0.3007834255695343 -0.12500002980232239 1.0493669509887695
v -0.800761878490448 -0.12500002980232239 1.0151098966598511
v 0.026400642469525337 0.12499997764825821 0.88813608884811401
v 0.81556880474090576 0.12499997764825821 1.1514980792999268
v -1.0514832735061646 -0.12500002980232239 1.0236941576004028
v -1.3007403612136841 -0.12500002980232239 1.0493669509887695
v -1.5476611852645874 -0.12500002980232239 1.0920083522796631
v -1.7913738489151001 -0.12500002980232239 1.1514980792999268
v -2.141812801361084 -0.12500002980232239 1.2692217826843262
v -2.3865249156951904 -0.12500002980232239 1.3758583068847656
v -2.6227936744689941 -0.12500002980232239 1.5000007152557373
v -2.6227936744689941 0.12499997764825821 1.2531627416610718
v -2.4170925617218018 0.12499997764825821 1.1514980792999268
v -2.224902868270874 0.12499997764825821 1.0696613788604736
v -2.0290181636810303 0.12499997764825821 0.99842476844787598
v -1.829878568649292 0.12499997764825821 0.93788439035415649
v -1.6279244422912598 0.12499997764825821 0.88813608884811401
v -1.4235955476760864 0.12499997764825821 0.84927588701248169
v -1.217332124710083 0.12499997764825821 0.82139980792999268
v -1.0095741748809814 0.12499997764825821 0.80460375547409058
v -2.6227936744689941 0.12499997764825821 -1.4999992847442627
v -2.6227936744689941 -0.12500002980232239 -1.4999992847442627
v 2.6227958202362061 0.12499997764825821 1.5000007152557373
v 2.6227958202362061 -0.12500002980232239 1.5000007152557373
v 2.6227958202362061 -0.12500002980232239 0.25901439785957336
v 2.6227958202362061 0.12499997764825821 0.25901439785957336
vt 0 0.10118861496448517
vt 0.40054947137832642 0.39871010184288025
vt 0.35837641358375549 0.39871010184288025
vt 0.3318307101726532 0.33079081773757935
vt 0.30694893002510071 0.28908056020736694
vt 0.27577537298202515 0.25072392821311951
vt 0.2376134842634201 0.21657425165176392
vt 0.1921972781419754 0.18733848631381989
vt 0.14914733171463013 0.16800312697887421
vt 0.10213777422904968 0.15357233583927155
vt 0.051997657865285873 0.1446533203125
vt 0 0.14175674319267273
vt 0.064904004335403442 0.10504114627838135
vt 0.12685993313789368 0.11697819828987122
vt 0.19217577576637268 0.13967907428741455
vt 0.25744101405143738 0.17676247656345367
vt 0.30919092893600464 0.22224907577037811
vt 0.34888100624084473 0.27409109473228455
vt 0.37829944491386414 0.33078637719154358
vt 0.40034013986587524 0.39785915613174438
vt 0.37946292757987976 0.39871010184288025
vt 0 0.099723771214485168
vt 0.19840812683105469 0.028587114065885544
vt 0.070615291595458984 0.099723771214485168
vt 0.19840812683105469 0.068546496331691742
vt 0.13163959980010986 0.076463013887405396
vt 0.047425590455532074 0.06650274246931076
vt 0.098740264773368835 0.044139768928289413
vt 0.14741609990596771 0.03238184005022049
vt 0 0.80015051364898682
vt 0.26608285307884216 0.91434091329574585
vt 0.05322178453207016 0.80015051364898682
vt 0.10345777869224548 0.83540016412734985
vt 0.14336520433425903 0.85404354333877563
vt 0.20286183059215546 0.87092745304107666
vt 0.26608285307884216 0.87654703855514526
vt 0.1548909991979599 0.89841270446777344
vt 0.06088629737496376 0.85404980182647705
vt 0 0.71449142694473267
vt 0 0.67669755220413208
vt 0.031858094036579132 0.67532444000244141
vt 0.063195370137691498 0.67107802629470825
vt 0.093580178916454315 0.66395550966262817
vt 0.12266787886619568 0.65419405698776245
vt 0.16255912184715271 0.63555067777633667
vt 0.18880307674407959 0.6190449595451355
vt 0.21277473866939545 0.60030108690261841
vt 0.22685191035270691 0.63798391819000244
vt 0.20511333644390106 0.65420031547546387
vt 0.18372654914855957 0.66759848594665527
vt 0.16088615357875824 0.67951714992523193
vt 0.13666118681430817 0.68988460302352905
vt 0.11114674806594849 0.69856321811676025
vt 0.084494724869728088 0.70543205738067627
vt 0.056915540248155594 0.71044468879699707
vt 0.028654472902417183 0.7134850025177002
vt 0 0.40017494559288025
vt 0.045160818845033646 0.4287620484828949
vt 0.014130612835288048 0.40017494559288025
vt 0.029350025579333305 0.41478946805000305
vt 0 0.4287620484828949
vt 0.18313200771808624 0.55026954412460327
vt 0 0.57885664701461792
vt 0.046088758856058121 0.55026954412460327
vt 0.18313200771808624 0.57885664701461792
vt 0 0.47879359126091003
vt 0.096287995576858521 0.47879359126091003
vt 0.030021021142601967 0.45020648837089539
vt 0 0.45020648837089539
vt 0.26754769682884216 0.40017494559288025
vt 0.60912823677062988 0.44522547721862793
vt 0.54448771476745605 0.47856515645980835
vt 0.5063285231590271 0.50745123624801636
vt 0.47253644466400146 0.54105228185653687
vt 0.44357520341873169 0.57891440391540527
vt 0.41990318894386292 0.62055212259292603
vt 0.40458309650421143 0.65726780891418457
vt 0.39367339015007019 0.69540178775787354
vt 0.38703256845474243 0.73450368642807007
vt 0.38478055596351624 0.77422845363616943
vt 0.39088129997253418 0.83953309059143066
vt 0.40884661674499512 0.90248227119445801
vt 0.40884661674499512 0.99853515625
vt 0.60912823677062988 0.40017494559288025
vt 0.32275745272636414 0.60801267623901367
vt 0.32178068161010742 0.57941305637359619
vt 0.31885692477226257 0.55098050832748413
vt 0.31400102376937866 0.52281463146209717
vt 0.30722826719284058 0.49501433968544006
vt 0.29382422566413879 0.45504003763198853
vt 0.2816825807094574 0.42712593078613281
vt 0.26754769682884216 0.81585037708282471
vt 0.29382422566413879 0.76098531484603882
vt 0.30722826719284058 0.72101098299026489
vt 0.31885692477226257 0.66504478454589844
vt 0.26754769682884216 0.99853515625
vt 0.61059308052062988 0
vt 0.69887763261795044 0.22485585510730743
vt 0.70165461301803589 0.27099847793579102
vt 0.70994508266448975 0.31646934151649475
vt 0.7263418436050415 0.36759102344512939
vt 0.75452232360839844 0.42417964339256287
vt 0.79138720035552979 0.47496747970581055
vt 0.83603179454803467 0.51899838447570801
vt 0.88753306865692139 0.55542540550231934
vt 0.9513479471206665 0.58539754152297974
vt 0.95217359066009521 0.58569443225860596
vt 0.75189197063446045 0.030021023005247116
vt 0.7263418436050415 0.082120686769485474
vt 0.70994508266448975 0.13324238359928131
vt 0.70165461301803589 0.17871323227882385
vt 0.69041097164154053 0.39147853851318359
vt 0.6802600622177124 0.29689377546310425
vt 0.65027362108230591 0.20665360987186432
vt 0.61059308052062988 0.13704325258731842
vt 0.75189197063446045 0
vt 0.63869822025299072 0.59982508420944214
vt 0.65027362108230591 0.57630348205566406
vt 0.6595882773399353 0.55432552099227905
vt 0.66769617795944214 0.53192555904388428
vt 0.6745908260345459 0.50915509462356567
vt 0.6802600622177124 0.48606327176094055
vt 0.68468928337097168 0.46269935369491577
vt 0.68786430358886719 0.4391133189201355
vt 0.6897737979888916 0.41535604000091553
vt 0.95217359066009521 0.59982502460479736
vt 0 0.50023800134658813
vt 0 0.52882510423660278
vt 0.14190487563610077 0.50023800134658813
vt 0.14190487563610077 0.52882510423660278
vt 0.34647580981254578 0
vt 0.34647580981254578 0.027122270315885544
vt 0.0034304538276046515 0
vt 0.031656000763177872 0.027122270315885544
vn 0 0.68532818555831909 -0.72823435068130493
vn 0.68589252233505249 0.68532818555831909 -0.24469724297523499
vn 0.62690937519073486 0.73966741561889648 -0.24469724297523499
vn 0.56342369318008423 0.73961859941482544 -0.36812776327133179
vn 0.50838875770568848 0.73964232206344604 -0.44098770618438721
vn 0.44435930252075195 0.73958468437194824 -0.50552868843078613
vn 0.37215360999107361 0.73966091871261597 -0.56071686744689941
vn 0.29285839200019836 0.73953074216842651 -0.60607606172561646
vn 0.22281613945960999 0.73964285850524902 -0.63504445552825928
vn 0.150208979845047 0.73957252502441406 -0.65610194206237793
vn 0.075701236724853516 0.7395164966583252 -0.66886818408966064
vn 0 0.73966741561889648 -0.67297261953353882
vn 0.087706059217453003 0.68507927656173706 -0.72316938638687134
vn 0.17414200305938721 0.68520289659500122 -0.70722806453704834
vn 0.27132111787796021 0.68522894382476807 -0.67590391635894775
vn 0.37885740399360657 0.68523752689361572 -0.62202614545822144
vn 0.47545307874679565 0.6852487325668335 -0.55170512199401855
vn 0.55922871828079224 0.68529599905014038 -0.46651110053062439
vn 0.62841498851776123 0.68525236845016479 -0.36813566088676453
vn 0.68532872200012207 0.68532758951187134 -0.24627356231212616
vn 0.65696299076080322 0.7131078839302063 -0.24469724297523499
vn -0.37034773826599121 0.68532818555831909 -0.62703096866607666
vn 0 0.68532818555831909 -0.72823435068130493
vn -0.24438554048538208 0.73966741561889648 -0.62703096866607666
vn 0 0.73966741561889648 -0.67297261953353882
vn -0.1244516521692276 0.73951667547225952 -0.66153377294540405
vn -0.27132090926170349 0.68523287773132324 -0.67590004205703735
vn -0.17414200305938721 0.68520289659500122 -0.70722806453704834
vn -0.087706059217453003 0.68507927656173706 -0.72316938638687134
vn -0.44580334424972534 0.6285933256149292 0.63728314638137817
vn 0 0.6285933256149292 0.77773416042327881
vn -0.36504989862442017 0.67868161201477051 0.63728314638137817
vn -0.26868930459022522 0.67856371402740479 0.683635413646698
vn -0.1984722763299942 0.6786806583404541 0.70710772275924683
vn -0.10016980767250061 0.67852616310119629 0.7277144193649292
vn 0 0.67868161201477051 0.73443257808685303
vn -0.16572324931621552 0.62857246398925781 0.75988978147506714
vn -0.3238370418548584 0.62858355045318604 0.70711547136306763
vn 0 0.6285933256149292 0.77773416042327881
vn 0 0.67868161201477051 0.73443257808685303
vn 0.050231706351041794 0.67859005928039551 0.73279762268066406
vn 0.10016980767250061 0.67852616310119629 0.7277144193649292
vn 0.14964278042316437 0.67860513925552368 0.71909809112548828
vn 0.1984722763299942 0.6786806583404541 0.70710772275924683
vn 0.26868930459022522 0.67856371402740479 0.683635413646698
vn 0.31772229075431824 0.67858994007110596 0.66224485635757446
vn 0.36504989862442017 0.67868161201477051 0.63728314638137817
vn 0.3650500476360321 0.62859004735946655 0.68674081563949585
vn 0.3238370418548584 0.62858355045318604 0.70711547136306763
vn 0.28533053398132324 0.62857496738433838 0.72351920604705811
vn 0.24608497321605682 0.62859189510345459 0.73777663707733154
vn 0.20618587732315063 0.62857908010482788 0.74991714954376221
vn 0.16572324931621552 0.62857246398925781 0.75988978147506714
vn 0.12478668987751007 0.628592848777771 0.7676582932472229
vn 0.083460427820682526 0.62857562303543091 0.77325743436813354
vn 0.041835755109786987 0.62857317924499512 0.77662444114685059
vn 0 0 -1
vn 0 0 -1
vn 0 0 -1
vn 0 0 -1
vn 0 0 -1
vn 0 0 1
vn 0 0 1
vn 0 0 1
vn 0 0 1
vn 0 0 -1
vn 0 0 -1
vn 0 0 -1
vn 0 0 -1
vn 0 -1 0
vn 0 -1 0
vn 0 -1 0
vn 0 -1 0
vn 0 -1 0
vn 0 -1 0
vn 0 -1 0
vn 0 -1 0
vn 0 -1 0
vn 0 -1 0
vn 0 -1 0
vn 0 -1 0
vn 0 -1 0
vn 0 -1 0
vn 0 -1 0
vn 0 -1 0
vn 0 -1 0
vn 0 -1 0
vn 0 -1 0
vn 0 -1 0
vn 0 -1 0
vn 0 -1 0
vn 0 -1 0
vn 0 -1 0
vn 0 -1 0
vn 0 -1 0
vn 0 -1 0
vn 0 1 0
vn 0 1 0
vn 0 1 0
vn 0 1 0
vn 0 1 0
vn 0 1 0
vn 0 1 0
vn 0 1 0
vn 0 1 0
vn 0 1 0
vn 0 1 0
vn 0 1 0
vn 0 1 0
vn 0 1 0
vn 0 1 0
vn 0 1 0
vn 0 1 0
vn 0 1 0
vn 0 1 0
vn 0 1 0
vn 0 1 0
vn 0 1 0
vn 0 1 0
vn 0 1 0
vn 0 1 0
vn 0 1 0
vn 0 1 0
vn 0 1 0
vn 0 1 0
vn 0 1 0
vn 1 0 0
vn 1 0 0
vn 1 0 0
vn 1 0 0
vn -1 0 0
vn -1 0 0
vn -1 0 0
vn -1 0 0
f 1/1/1 12/12/12 11/11/11
f 14/14/14 13/13/13 10/10/10
f 11/11/11 13/13/13 1/1/1
f 15/15/15 14/14/14 9/9/9
f 13/13/13 11/11/11 10/10/10
f 15/15/15 9/9/9 8/8/8
f 8/8/8 7/7/7 16/16/16
f 9/9/9 14/14/14 10/10/10
f 16/16/16 15/15/15 8/8/8
f 16/16/16 7/7/7 17/17/17
f 6/6/6 17/17/17 7/7/7
f 5/5/5 18/18/18 6/6/6
f 17/17/17 6/6/6 18/18/18
f 4/4/4 18/18/18 5/5/5
f 3/3/3 19/19/19 4/4/4
f 18/18/18 4/4/4 19/19/19
f 21/21/21 19/19/19 3/3/3
f 2/2/2 20/20/20 21/21/21
f 19/19/19 21/21/21 20/20/20
f 24/26/26 25/27/27 23/24/24
f 25/27/27 22/22/22 23/24/24
f 24/26/26 26/28/28 25/27/27
f 12/25/25 1/23/23 27/29/29
f 12/25/25 26/28/28 24/26/26
f 27/29/29 26/28/28 12/25/25
f 36/38/38 30/32/32 28/30/30
f 32/34/34 31/33/33 36/38/38
f 30/32/32 36/38/38 31/33/33
f 35/37/37 33/35/35 32/34/34
f 35/37/37 29/31/31 33/35/35
f 34/36/36 33/35/35 29/31/31
f 36/38/38 35/37/37 32/34/34
f 52/56/56 37/41/41 34/40/40
f 49/53/53 39/43/43 38/42/42
f 51/55/55 38/42/42 37/41/41
f 52/56/56 34/40/40 29/39/39
f 37/41/41 52/56/56 51/55/55
f 51/55/55 50/54/54 38/42/42
f 50/54/54 49/53/53 38/42/42
f 49/53/53 48/52/52 39/43/43
f 44/48/48 42/46/46 41/45/45
f 42/46/46 44/48/48 43/47/47
f 45/49/49 44/48/48 41/45/45
f 39/43/43 48/52/52 40/44/44
f 47/51/51 40/44/44 48/52/52
f 47/51/51 46/50/50 40/44/44
f 46/50/50 41/45/45 40/44/44
f 46/50/50 45/49/49 41/45/45
f 21/60/60 53/57/57 2/59/59
f 54/61/61 21/60/60 3/58/58
f 53/57/57 21/60/60 54/61/61
f 28/64/64 30/63/63 56/65/65
f 22/68/68 58/69/69 57/66/66
f 57/66/66 23/67/67 22/68/68
f 4/72/72 54/84/84 3/71/71
f 4/72/72 43/70/70 54/84/84
f 40/89/89 6/74/74 7/75/75
f 5/73/73 43/70/70 4/72/72
f 6/74/74 41/90/90 5/73/73
f 5/73/73 42/91/91 43/70/70
f 5/73/73 41/90/90 42/91/91
f 38/87/87 8/76/76 37/86/86
f 7/75/75 39/88/88 40/89/89
f 7/75/75 38/87/87 39/88/88
f 40/89/89 41/90/90 6/74/74
f 8/76/76 38/87/87 7/75/75
f 34/85/85 9/77/77 10/78/78
f 37/86/86 9/77/77 34/85/85
f 56/96/96 24/81/81 23/82/82
f 56/96/96 23/82/82 57/83/83
f 33/95/95 10/78/78 11/79/79
f 33/95/95 34/85/85 10/78/78
f 32/94/94 33/95/95 11/79/79
f 31/93/93 12/80/80 24/81/81
f 32/94/94 12/80/80 31/93/93
f 30/92/92 31/93/93 24/81/81
f 30/92/92 24/81/81 56/96/96
f 11/79/79 12/80/80 32/94/94
f 8/76/76 9/77/77 37/86/86
f 25/109/109 58/116/116 22/108/108
f 25/109/109 55/97/97 58/116/116
f 14/100/100 15/101/101 29/112/112
f 36/114/114 26/110/110 27/111/111
f 26/110/110 55/97/97 25/109/109
f 35/113/113 36/114/114 1/98/98
f 36/114/114 28/115/115 26/110/110
f 28/115/115 55/97/97 26/110/110
f 1/98/98 36/114/114 27/111/111
f 13/99/99 14/100/100 35/113/113
f 35/113/113 14/100/100 29/112/112
f 29/112/112 15/101/101 52/125/125
f 1/98/98 13/99/99 35/113/113
f 52/125/125 15/101/101 16/102/102
f 46/119/119 17/103/103 18/104/104
f 49/122/122 16/102/102 17/103/103
f 20/106/106 2/107/107 53/126/126
f 53/126/126 19/105/105 20/106/106
f 19/105/105 53/126/126 44/117/117
f 44/117/117 18/104/104 19/105/105
f 16/102/102 50/123/123 51/124/124
f 17/103/103 48/121/121 49/122/122
f 49/122/122 50/123/123 16/102/102
f 17/103/103 46/119/119 47/120/120
f 18/104/104 44/117/117 45/118/118
f 45/118/118 46/119/119 18/104/104
f 47/120/120 48/121/121 17/103/103
f 52/125/125 16/102/102 51/124/124
f 56/128/128 57/130/130 58/129/129
f 43/133/133 44/134/134 54/131/131
f 28/64/64 56/65/65 55/62/62
f 56/128/128 58/129/129 55/127/127
f 44/134/134 53/132/132 54/131/131
