# Rhino

o object_1
v -2.8499999046325684 -0.5 0.15000000596046448
v -2.8499999046325684 0.5 0.15000000596046448
v 2.8499999046325684 -0.5 0.15000000596046448
v 2.8499999046325684 0.5 0.15000000596046448
v 2.8499999046325684 -0.5 -0.15000000596046448
v 2.8499999046325684 0.5 -0.15000000596046448
v -2.8499999046325684 -0.5 -0.15000000596046448
v -2.8499999046325684 0.5 -0.15000000596046448
vt 0 0
vt 0 0.81249934434890747
vt 0.47499999403953552 0
vt 0.47499999403953552 0.81249934434890747
vt 0.47499999403953552 0
vt 0.47499999403953552 0.81249934434890747
vt 0.5 0
vt 0.5 0.81249934434890747
vt 0.5 0
vt 0.5 0.81249934434890747
vt 0.97500002384185791 0
vt 0.97500002384185791 0.81249934434890747
vt 0.97500002384185791 0
vt 0.97500002384185791 0.81249934434890747
vt 1 0
vt 1 0.81249934434890747
vt 0 1
vt 0.47499999403953552 1
vt 0.47499999403953552 0.81250017881393433
vt 0 0.81250017881393433
vt 0.52499997615814209 0.81250017881393433
vt 1 0.81250017881393433
vt 1 1
vt 0.52499997615814209 1
vn 0 0 1
vn 0 0 1
vn 0 0 1
vn 0 0 1
vn 1 0 0
vn 1 0 0
vn 1 0 0
vn 1 0 0
vn 0 0 -1
vn 0 0 -1
vn 0 0 -1
vn 0 0 -1
vn -1 0 0
vn -1 0 0
vn -1 0 0
vn -1 0 0
vn 0 -1 0
vn 0 -1 0
vn 0 -1 0
vn 0 -1 0
vn 0 1 0
vn 0 1 0
vn 0 1 0
vn 0 1 0
f 1/1/1 3/3/3 4/4/4
f 3/5/5 5/7/7 6/8/8
f 5/9/9 7/11/11 8/12/12
f 7/13/13 1/15/15 2/16/16
f 3/18/18 1/17/17 7/20/20
f 7/20/20 5/19/19 3/18/18
f 4/22/22 8/24/24 2/21/21
f 8/24/24 4/22/22 6/23/23
f 1/1/1 4/4/4 2/2/2
f 3/5/5 6/8/8 4/6/6
f 5/9/9 8/12/12 6/10/10
f 7/13/13 2/16/16 8/14/14
