# Rhino

o object_1
v 0.67500001192092896 0.15000000596046448 -0.375
v 0.67500001192092896 -0.15000000596046448 -0.375
v 0.58065283298492432 0.15000000596046448 -0.37075266242027283
v 0.58065283298492432 -0.15000000596046448 -0.37075266242027283
v 0.4839387834072113 0.15000000596046448 -0.35747063159942627
v 0.4839387834072113 -0.15000000596046448 -0.35747063159942627
v 0.38608387112617493 0.15000000596046448 -0.33446890115737915
v 0.38608387112617493 -0.15000000596046448 -0.33446890115737915
v 0.28850054740905762 0.15000000596046448 -0.30127772688865662
v 0.28850054740905762 -0.15000000596046448 -0.30127772688865662
v 0.19274067878723145 0.15000000596046448 -0.25769820809364319
v 0.19274067878723145 -0.15000000596046448 -0.25769820809364319
v 0.10042975842952728 0.15000000596046448 -0.20384529232978821
v 0.10042975842952728 -0.15000000596046448 -0.20384529232978821
v 0.013186967000365257 0.15000000596046448 -0.14017084240913391
v 0.013186967000365257 -0.15000000596046448 -0.14017084240913391
v -0.067462123930454254 0.15000000596046448 -0.067462123930454254
v -0.067462123930454254 -0.15000000596046448 -0.067462123930454254
v -0.14017084240913391 0.15000000596046448 0.013186967000365257
v -0.14017084240913391 -0.15000000596046448 0.013186967000365257
v -0.20384529232978821 0.15000000596046448 0.10042975842952728
v -0.20384529232978821 -0.15000000596046448 0.10042975842952728
v -0.25769820809364319 0.15000000596046448 0.19274067878723145
v -0.25769820809364319 -0.15000000596046448 0.19274067878723145
v -0.30127772688865662 0.15000000596046448 0.28850054740905762
v -0.30127772688865662 -0.15000000596046448 0.28850054740905762
v -0.33446890115737915 0.15000000596046448 0.38608387112617493
v -0.33446890115737915 -0.15000000596046448 0.38608387112617493
v -0.35747063159942627 0.15000000596046448 0.4839387834072113
v -0.35747063159942627 -0.15000000596046448 0.4839387834072113
v -0.37075266242027283 0.15000000596046448 0.58065283298492432
v -0.37075266242027283 -0.15000000596046448 0.58065283298492432
v -0.375 0.15000000596046448 0.67500001192092896
v -0.375 -0.15000000596046448 0.67500001192092896
v -0.67500001192092896 0.15000000596046448 0.67500001192092896
v -0.67500001192092896 -0.15000000596046448 0.67500001192092896
v -0.67500001192092896 0.15000000596046448 -0.67500001192092896
v -0.67500001192092896 -0.15000000596046448 -0.67500001192092896
v 0.67500001192092896 0.15000000596046448 -0.67500001192092896
v 0.67500001192092896 -0.15000000596046448 -0.67500001192092896
vt 0.19708000123500824 0.87002480030059814
vt 0.19708000123500824 -1.728583853832788E-08
vt 0.11463247239589691 0.87002480030059814
vt 0.11463247239589691 -1.728583853832788E-08
vt 0.030116604641079903 0.87002480030059814
vt 0.030116604641079903 -1.728583853832788E-08
vt -0.055396236479282379 0.87002480030059814
vt -0.055396236479282379 -1.728583853832788E-08
vt -0.1406717449426651 0.87002480030059814
vt -0.1406717449426651 -1.728583853832788E-08
vt -0.22435377538204193 0.87002480030059814
vt -0.22435377538204193 -1.728583853832788E-08
vt -0.30502185225486755 0.87002480030059814
vt -0.30502185225486755 -1.728583853832788E-08
vt 1.8942852020263672 0.87002480030059814
vt 1.8942852020263672 -1.728583853832788E-08
vt 1.814520001411438 0.87002480030059814
vt 1.814520001411438 -1.728583853832788E-08
vt 1.726043701171875 0.87002480030059814
vt 1.726043701171875 -1.728583853832788E-08
vt 1.6303337812423706 0.87002480030059814
vt 1.6303337812423706 -1.728583853832788E-08
vt 1.5290638208389282 0.87002480030059814
vt 1.5290638208389282 -1.728583853832788E-08
vt 1.424010157585144 0.87002480030059814
vt 1.424010157585144 -1.728583853832788E-08
vt 1.3169561624526978 0.87002480030059814
vt 1.3169561624526978 -1.728583853832788E-08
vt 1.2096041440963745 0.87002480030059814
vt 1.2096041440963745 -1.728583853832788E-08
vt 1.1035038232803345 0.87002480030059814
vt 1.1035038232803345 -1.728583853832788E-08
vt 1 0.87002480030059814
vt 1 -1.728583853832788E-08
vt -0.72048747539520264 0.87002480030059814
vt -0.72048747539520264 -1.728583853832788E-08
vt -0.98264956474304199 0.87002480030059814
vt -0.98264956474304199 -1.728583853832788E-08
vt 1.3077883664891488E-08 0.87002480030059814
vt 1.3077883664891488E-08 -1.728583853832788E-08
vt -1.4810209274291992 0.87002480030059814
vt -1.4810209274291992 -1.728583853832788E-08
vt 1.982649564743042 0.87002480030059814
vt 1.982649564743042 -1.728583853832788E-08
vt 0.80291998386383057 0.87002480030059814
vt 0.80291998386383057 -1.728583853832788E-08
vt 2.4810209274291992 0.87002480030059814
vt 2.4810209274291992 -1.728583853832788E-08
vt 2.1519050598144531 0.87002480030059814
vt 2.1519050598144531 -1.728583853832788E-08
vt 0.19708000123500824 2.1519050598144531
vt 0.11463247239589691 2.1472456455230713
vt 0.030116604641079903 2.1326744556427002
vt -0.055396236479282379 2.1074404716491699
vt -0.1406717449426651 2.0710279941558838
vt -0.22435377538204193 2.0232188701629639
vt -0.30502185225486755 1.964139461517334
vt -0.38126105070114136 1.8942852020263672
vt -0.45173817873001099 1.814520001411438
vt -0.51527643203735352 1.726043701171875
vt -0.57091987133026123 1.6303337812423706
vt -0.6179804801940918 1.5290638208389282
vt -0.6560634970664978 1.424010157585144
vt -0.68506836891174316 1.3169561624526978
vt -0.70516902208328247 1.2096041440963745
vt -0.71677583456039429 1.1035038232803345
vt -0.72048747539520264 1
vt -0.98264956474304199 1
vt -0.98264956474304199 2.4810209274291992
vt 0.19708000123500824 2.4810209274291992
vt 0.80291998386383057 2.1519050598144531
vt 0.88536751270294189 2.1472456455230713
vt 0.96988338232040405 2.1326744556427002
vt 1.0553961992263794 2.1074404716491699
vt 1.1406717300415039 2.0710279941558838
vt 1.2243537902832031 2.0232188701629639
vt 1.3050218820571899 1.964139461517334
vt 1.3812611103057861 1.8942852020263672
vt 1.4517381191253662 1.814520001411438
vt 1.5152764320373535 1.726043701171875
vt 1.5709198713302612 1.6303337812423706
vt 1.6179804801940918 1.5290638208389282
vt 1.656063437461853 1.424010157585144
vt 1.6850683689117432 1.3169561624526978
vt 1.7051689624786377 1.2096041440963745
vt 1.7167757749557495 1.1035038232803345
vt 1.7204874753952026 1
vt 1.982649564743042 1
vt 1.982649564743042 2.4810209274291992
vt 0.80291998386383057 2.4810209274291992
vt -0.38126105070114136 0.87002480030059814
vt -0.38126105070114136 -1.728583853832788E-08
vn 0 0 1
vn 0 0 1
vn 0.089854441583156586 0 0.99595493078231812
vn 0.089854441583156586 0 0.99595493078231812
vn 0.18196305632591248 0 0.98330539464950562
vn 0.18196305632591248 0 0.98330539464950562
vn 0.27515822649002075 0 0.96139895915985107
vn 0.27515822649002075 0 0.96139895915985107
vn 0.36809471249580383 0 0.92978829145431519
vn 0.36809471249580383 0 0.92978829145431519
vn 0.45929458737373352 0 0.88828402757644653
vn 0.45929458737373352 0 0.88828402757644653
vn 0.54720973968505859 0 0.83699548244476318
vn 0.54720973968505859 0 0.83699548244476318
vn 0.63029813766479492 0 0.77635318040847778
vn 0.63029813766479492 0 0.77635318040847778
vn 0.70710676908493042 0 0.70710676908493042
vn 0.70710676908493042 0 0.70710676908493042
vn 0.77635318040847778 0 0.63029813766479492
vn 0.77635318040847778 0 0.63029813766479492
vn 0.83699548244476318 0 0.54720973968505859
vn 0.83699548244476318 0 0.54720973968505859
vn 0.88828402757644653 0 0.45929458737373352
vn 0.88828402757644653 0 0.45929458737373352
vn 0.92978829145431519 0 0.36809471249580383
vn 0.92978829145431519 0 0.36809471249580383
vn 0.96139895915985107 0 0.27515822649002075
vn 0.96139895915985107 0 0.27515822649002075
vn 0.98330539464950562 0 0.18196305632591248
vn 0.98330539464950562 0 0.18196305632591248
vn 0.99595493078231812 0 0.089854441583156586
vn 0.99595493078231812 0 0.089854441583156586
vn 1 0 0
vn 1 0 0
vn 0 0 1
vn 0 0 1
vn 0 0 1
vn 0 0 1
vn -1 0 0
vn -1 0 0
vn -1 0 0
vn -1 0 0
vn 0 0 -1
vn 0 0 -1
vn 0 0 -1
vn 0 0 -1
vn 1 0 0
vn 1 0 0
vn 1 0 0
vn 1 0 0
vn 0 1 0
vn 0 1 0
vn 0 1 0
vn 0 1 0
vn 0 1 0
vn 0 1 0
vn 0 1 0
vn 0 1 0
vn 0 1 0
vn 0 1 0
vn 0 1 0
vn 0 1 0
vn 0 1 0
vn 0 1 0
vn 0 1 0
vn 0 1 0
vn 0 1 0
vn 0 1 0
vn 0 1 0
vn 0 1 0
vn 0 -1 0
vn 0 -1 0
vn 0 -1 0
vn 0 -1 0
vn 0 -1 0
vn 0 -1 0
vn 0 -1 0
vn 0 -1 0
vn 0 -1 0
vn 0 -1 0
vn 0 -1 0
vn 0 -1 0
vn 0 -1 0
vn 0 -1 0
vn 0 -1 0
vn 0 -1 0
vn 0 -1 0
vn 0 -1 0
vn 0 -1 0
vn 0 -1 0
vn 0.63029813766479492 0 0.77635318040847778
vn 0.63029813766479492 0 0.77635318040847778
f 1/1/1 3/3/3 4/4/4
f 3/3/3 5/5/5 6/6/6
f 5/5/5 7/7/7 8/8/8
f 7/7/7 9/9/9 10/10/10
f 9/9/9 11/11/11 12/12/12
f 11/11/11 13/13/13 14/14/14
f 13/13/13 15/91/91 16/92/92
f 15/15/15 17/17/17 18/18/18
f 17/17/17 19/19/19 20/20/20
f 19/19/19 21/21/21 22/22/22
f 21/21/21 23/23/23 24/24/24
f 23/23/23 25/25/25 26/26/26
f 25/25/25 27/27/27 28/28/28
f 27/27/27 29/29/29 30/30/30
f 29/29/29 31/31/31 32/32/32
f 31/31/31 33/33/33 34/34/34
f 33/35/35 35/37/37 36/38/38
f 35/39/39 37/41/41 38/42/42
f 37/43/43 39/45/45 40/46/46
f 39/47/47 1/49/49 2/50/50
f 37/69/69 9/55/55 39/70/70
f 37/69/69 17/59/59 15/58/58
f 13/57/57 11/56/56 37/69/69
f 11/56/56 9/55/55 37/69/69
f 3/52/52 1/51/51 39/70/70
f 39/70/70 7/54/54 5/53/53
f 39/70/70 5/53/53 3/52/52
f 9/55/55 7/54/54 39/70/70
f 37/69/69 15/58/58 13/57/57
f 35/68/68 29/65/65 27/64/64
f 35/68/68 33/67/67 31/66/66
f 29/65/65 35/68/68 31/66/66
f 25/63/63 35/68/68 27/64/64
f 37/69/69 21/61/61 19/60/60
f 37/69/69 25/63/63 23/62/62
f 35/68/68 25/63/63 37/69/69
f 21/61/61 37/69/69 23/62/62
f 17/59/59 37/69/69 19/60/60
f 38/89/89 40/90/90 10/75/75
f 38/89/89 16/78/78 18/79/79
f 14/77/77 38/89/89 12/76/76
f 12/76/76 38/89/89 10/75/75
f 4/72/72 40/90/90 2/71/71
f 40/90/90 6/73/73 8/74/74
f 40/90/90 4/72/72 6/73/73
f 10/75/75 40/90/90 8/74/74
f 38/89/89 14/77/77 16/78/78
f 36/88/88 28/84/84 30/85/85
f 36/88/88 32/86/86 34/87/87
f 30/85/85 32/86/86 36/88/88
f 26/83/83 28/84/84 36/88/88
f 38/89/89 20/80/80 22/81/81
f 38/89/89 24/82/82 26/83/83
f 36/88/88 38/89/89 26/83/83
f 22/81/81 24/82/82 38/89/89
f 18/79/79 20/80/80 38/89/89
f 1/1/1 4/4/4 2/2/2
f 3/3/3 6/6/6 4/4/4
f 5/5/5 8/8/8 6/6/6
f 7/7/7 10/10/10 8/8/8
f 9/9/9 12/12/12 10/10/10
f 11/11/11 14/14/14 12/12/12
f 13/13/13 16/92/92 14/14/14
f 15/15/15 18/18/18 16/16/16
f 17/17/17 20/20/20 18/18/18
f 19/19/19 22/22/22 20/20/20
f 21/21/21 24/24/24 22/22/22
f 23/23/23 26/26/26 24/24/24
f 25/25/25 28/28/28 26/26/26
f 27/27/27 30/30/30 28/28/28
f 29/29/29 32/32/32 30/30/30
f 31/31/31 34/34/34 32/32/32
f 33/35/35 36/38/38 34/36/36
f 35/39/39 38/42/42 36/40/40
f 37/43/43 40/46/46 38/44/44
f 39/47/47 2/50/50 40/48/48
