# Rhino

o object_1
v 0.50000238418579102 -1.3500000238418579 -0.3500000536441803
v 0.50000238418579102 1.3500000238418579 -0.3500000536441803
v 0.50000238418579102 -1.3500000238418579 -0.65000003576278687
v 0.50000238418579102 1.3500000238418579 -0.65000003576278687
v -0.49999764561653137 -1.3500000238418579 -0.65000003576278687
v -0.49999764561653137 1.3500000238418579 -0.65000003576278687
v -0.49999764561653137 -1.3500000238418579 -0.3500000536441803
v -0.49999764561653137 1.3500000238418579 -0.3500000536441803
v -0.19999764859676361 -1.3500000238418579 0.64999991655349731
v -0.19999764859676361 1.3500000238418579 0.64999991655349731
v -0.19999764859676361 -1.3500000238418579 -0.3500000536441803
v -0.19999764859676361 1.3500000238418579 -0.3500000536441803
v -0.49999764561653137 -1.3500000238418579 0.64999991655349731
v -0.49999764561653137 1.3500000238418579 0.64999991655349731
vt 0.99853515625 0.52036201953887939
vt 0.38914027810096741 0.52036201953887939
vt 0.99853515625 0.58677047491073608
vt 0.38914027810096741 0.58677047491073608
vt 0.99853515625 0.58823531866073608
vt 0.38914027810096741 0.58823531866073608
vt 0.99853515625 0.81301480531692505
vt 0.38914027810096741 0.81301480531692505
vt 0.99853515625 0.45248869061470032
vt 0.38914027810096741 0.45248869061470032
vt 0.99853515625 0.51889717578887939
vt 0.38914027810096741 0.51889717578887939
vt 0.99853515625 0.22624434530735016
vt 0.38914027810096741 0.22624434530735016
vt 0.99853515625 0.45102384686470032
vt 0.38914027810096741 0.45102384686470032
vt 0.99853515625 0.81447964906692505
vt 0.38914027810096741 0.81447964906692505
vt 0.99853515625 0.88088810443878174
vt 0.38914027810096741 0.88088810443878174
vt 0.99853515625 0
vt 0.38914027810096741 0
vt 0.99853515625 0.22477950155735016
vt 0.38914027810096741 0.22477950155735016
vt 0.23076923191547394 0.24193547666072845
vt 0.23076923191547394 0.85279518365859985
vt 0.38767543435096741 0.24193547666072845
vt 0.38767543435096741 0.85279518365859985
vt 0.22705629467964172 0.47112101316452026
vt 0.22705629467964172 0.53899431228637695
vt 0.002248082309961319 0.53899431228637695
vt 0.002248082309961319 0.47112101316452026
vt 0.069690555334091187 0.2448766678571701
vt 0.069690555334091187 0.47112101316452026
vt 0.002248082309961319 0.2448766678571701
vt 0.070814482867717743 0.22850677371025085
vt 0.0029411851428449154 0.22850677371025085
vt 0.0029411851428449154 0.0022624435368925333
vt 0.070814482867717743 0.0022624435368925333
vt 0.2970588207244873 0.070135749876499176
vt 0.070814482867717743 0.070135749876499176
vt 0.2970588207244873 0.0022624435368925333
vn 1 0 0
vn 1 0 0
vn 1 0 0
vn 1 0 0
vn 0 0 -1
vn 0 0 -1
vn 0 0 -1
vn 0 0 -1
vn -1 0 0
vn -1 0 0
vn -1 0 0
vn -1 0 0
vn 1 0 0
vn 1 0 0
vn 1 0 0
vn 1 0 0
vn 0 0 1
vn 0 0 1
vn 0 0 1
vn 0 0 1
vn -1 0 0
vn -1 0 0
vn -1 0 0
vn -1 0 0
vn 0 0 1
vn 0 0 1
vn 0 0 1
vn 0 0 1
vn 0 -1 0
vn 0 -1 0
vn 0 -1 0
vn 0 -1 0
vn 0 -1 0
vn 0 -1 0
vn 0 -1 0
vn 0 1 0
vn 0 1 0
vn 0 1 0
vn 0 1 0
vn 0 1 0
vn 0 1 0
vn 0 1 0
f 2/2/2 1/1/1 3/3/3
f 4/6/6 3/5/5 5/7/7
f 6/10/10 5/9/9 7/11/11
f 10/14/14 9/13/13 11/15/15
f 14/18/18 13/17/17 9/19/19
f 8/22/22 7/21/21 13/23/23
f 12/26/26 11/25/25 1/27/27
f 11/34/34 13/35/35 7/32/32
f 11/34/34 7/32/32 5/31/31
f 13/35/35 11/34/34 9/33/33
f 11/34/34 5/31/31 3/30/30
f 12/41/41 8/39/39 14/42/42
f 12/41/41 6/38/38 8/39/39
f 14/42/42 10/40/40 12/41/41
f 12/41/41 2/36/36 4/37/37
f 2/2/2 3/3/3 4/4/4
f 4/6/6 5/7/7 6/8/8
f 6/10/10 7/11/11 8/12/12
f 10/14/14 11/15/15 12/16/16
f 14/18/18 9/19/19 10/20/20
f 8/22/22 13/23/23 14/24/24
f 12/26/26 1/27/27 2/28/28
f 11/34/34 3/30/30 1/29/29
f 12/41/41 4/37/37 6/38/38
