# Rhino

o object_1
v -0.67500007152557373 -0.0050000003539025784 -0.67500001192092896
v 0.6749998927116394 -0.0050000003539025784 -0.67500001192092896
v 0.6749998927116394 -0.0050000003539025784 -0.375
v 0.58065271377563477 -0.0050000003539025784 -0.37075266242027283
v 0.48393869400024414 -0.0050000003539025784 -0.35747063159942627
v 0.38608378171920776 -0.0050000003539025784 -0.33446890115737915
v 0.28850045800209045 -0.0050000003539025784 -0.30127772688865662
v 0.19274057447910309 -0.0050000003539025784 -0.25769820809364319
v 0.10042966157197952 -0.0050000003539025784 -0.20384529232978821
v 0.013186867348849773 -0.0050000003539025784 -0.14017084240913391
v -0.067462220788002014 -0.0050000003539025784 -0.067462123930454254
v -0.14017094671726227 -0.0050000003539025784 0.013186967000365257
v -0.20384538173675537 -0.0050000003539025784 0.10042975842952728
v -0.25769829750061035 -0.0050000003539025784 0.19274067878723145
v -0.30127781629562378 -0.0050000003539025784 0.28850054740905762
v -0.3344690203666687 -0.0050000003539025784 0.38608387112617493
v -0.35747075080871582 -0.0050000003539025784 0.4839387834072113
v -0.37075275182723999 -0.0050000003539025784 0.58065283298492432
v -0.37500008940696716 -0.0050000003539025784 0.67500001192092896
v -0.67500007152557373 -0.0050000003539025784 0.67500001192092896
v 0.6749998927116394 0.0049999994225800037 -0.67500001192092896
v -0.67500007152557373 0.0049999994225800037 -0.67500001192092896
v 0.6749998927116394 0.0049999994225800037 -0.375
v -0.37500008940696716 0.0049999994225800037 0.67500001192092896
v -0.37075275182723999 0.0049999994225800037 0.58065283298492432
v -0.35747075080871582 0.0049999994225800037 0.4839387834072113
v -0.3344690203666687 0.0049999994225800037 0.38608387112617493
v -0.30127781629562378 0.0049999994225800037 0.28850054740905762
v -0.25769829750061035 0.0049999994225800037 0.19274067878723145
v -0.20384538173675537 0.0049999994225800037 0.10042975842952728
v -0.14017094671726227 0.0049999994225800037 0.013186967000365257
v -0.067462220788002014 0.0049999994225800037 -0.067462123930454254
v 0.013186867348849773 0.0049999994225800037 -0.14017084240913391
v 0.10042966157197952 0.0049999994225800037 -0.20384529232978821
v 0.19274057447910309 0.0049999994225800037 -0.25769820809364319
v 0.28850045800209045 0.0049999994225800037 -0.30127772688865662
v 0.38608378171920776 0.0049999994225800037 -0.33446890115737915
v 0.48393869400024414 0.0049999994225800037 -0.35747063159942627
v 0.58065271377563477 0.0049999994225800037 -0.37075266242027283
v -0.67500007152557373 0.0049999994225800037 0.67500001192092896
vt 0.49944683909416199 0.0048491382040083408
vt 0.98292452096939087 0.0048491382040083408
vt 0.98292452096939087 0.11260776221752167
vt 0.94913583993911743 0.11413338035345078
vt 0.91449946165084839 0.1189042255282402
vt 0.87945449352264404 0.12716634571552277
vt 0.84450685977935791 0.1390884667634964
vt 0.81021219491958618 0.15474201738834381
vt 0.77715277671813965 0.17408575117588043
vt 0.74590837955474854 0.19695731997489929
vt 0.71702533960342407 0.22307394444942474
vt 0.69098609685897827 0.2520427405834198
vt 0.66818225383758545 0.2833799421787262
vt 0.64889580011367798 0.31653758883476257
vt 0.63328862190246582 0.35093411803245544
vt 0.62140178680419922 0.38598558306694031
vt 0.61316412687301636 0.42113462090492249
vt 0.60840743780136108 0.45587384700775146
vt 0.60688632726669312 0.48976290225982666
vt 0.49944683909416199 0.48976290225982666
vt 0 0
vt 0 0.0035919540096074343
vt 0.48491379618644714 0
vt 0.48491379618644714 0.0035919540096074343
vt 0.99640804529190063 0
vt 0.99281609058380127 0
vt 0.99640804529190063 0.10775861889123917
vt 0.99281609058380127 0.10775861889123917
vt 1 0
vt 0.99640804529190063 0
vt 1 0.036920607089996338
vt 0.99640804529190063 0.036920607089996338
vt 1 0.073841214179992676
vt 0.99640804529190063 0.073841214179992676
vt 1 0.11076181381940842
vt 0.99640804529190063 0.11076181381940842
vt 1 0.14768242835998535
vt 0.99640804529190063 0.14768242835998535
vt 1 0.1846030205488205
vt 0.99640804529190063 0.1846030205488205
vt 1 0.22152362763881683
vt 0.99640804529190063 0.22152362763881683
vt 1 0.25844424962997437
vt 0.99640804529190063 0.25844424962997437
vt 1 0.2953648567199707
vt 0.99640804529190063 0.2953648567199707
vt 1 0.33228543400764465
vt 0.99640804529190063 0.33228543400764465
vt 1 0.36920604109764099
vt 0.99640804529190063 0.36920604109764099
vt 1 0.40612664818763733
vt 0.99640804529190063 0.40612664818763733
vt 1 0.44304725527763367
vt 0.99640804529190063 0.44304725527763367
vt 1 0.47996786236763
vt 0.99640804529190063 0.47996786236763
vt 1 0.51688849925994873
vt 0.99640804529190063 0.51688849925994873
vt 1 0.55380910634994507
vt 0.99640804529190063 0.55380910634994507
vt 1 0.59072971343994141
vt 0.99640804529190063 0.59072971343994141
vt 0.99281609058380127 0
vt 0.9892241358757019 0
vt 0.99281609058380127 0.10775861889123917
vt 0.9892241358757019 0.10775861889123917
vt 0 0.0042390446178615093
vt 0 0.0078309988602995872
vt 0.48491379618644714 0.0042390446178615093
vt 0.48491379618644714 0.0078309988602995872
vt 0.0048347767442464828 0.013327226974070072
vt 0.48831242322921753 0.013327226974070072
vt 0.48831242322921753 0.12108585238456726
vt 0.45452374219894409 0.12261147052049637
vt 0.41988739371299744 0.1273823082447052
vt 0.38484245538711548 0.13564443588256836
vt 0.34989479184150696 0.14756655693054199
vt 0.31560012698173523 0.1632201075553894
vt 0.28254067897796631 0.18256382644176483
vt 0.2512962818145752 0.20543541014194489
vt 0.22241330146789551 0.23155203461647034
vt 0.19637399911880493 0.26052084565162659
vt 0.1735701709985733 0.2918580174446106
vt 0.15428373217582703 0.32501569390296936
vt 0.13867653906345367 0.35941219329833984
vt 0.12678973376750946 0.39446365833282471
vt 0.1185520812869072 0.42961272597312927
vt 0.11379536241292953 0.46435195207595825
vt 0.11227425932884216 0.49824100732803345
vt 0.0048347767442464828 0.49824100732803345
vn 0 -1 0
vn 0 -1 0
vn 0 -1 0
vn 0 -1 0
vn 0 -1 0
vn 0 -1 0
vn 0 -1 0
vn 0 -1 0
vn 0 -1 0
vn 0 -1 0
vn 0 -1 0
vn 0 -1 0
vn 0 -1 0
vn 0 -1 0
vn 0 -1 0
vn 0 -1 0
vn 0 -1 0
vn 0 -1 0
vn 0 -1 0
vn 0 -1 0
vn 0 0 -1
vn 0 0 -1
vn 0 0 -1
vn 0 0 -1
vn 1 0 0
vn 1 0 0
vn 1 0 0
vn 1 0 0
vn 1 0 0
vn 1 0 0
vn 0.99595493078231812 0 0.089854441583156586
vn 0.99595493078231812 0 0.089854441583156586
vn 0.98330539464950562 0 0.18196305632591248
vn 0.98330539464950562 0 0.18196305632591248
vn 0.96139895915985107 0 0.27515822649002075
vn 0.96139895915985107 0 0.27515822649002075
vn 0.92978829145431519 0 0.36809471249580383
vn 0.92978829145431519 0 0.36809471249580383
vn 0.88828402757644653 0 0.45929458737373352
vn 0.88828402757644653 0 0.45929458737373352
vn 0.83699548244476318 0 0.54720973968505859
vn 0.83699548244476318 0 0.54720973968505859
vn 0.77635318040847778 0 0.63029813766479492
vn 0.77635318040847778 0 0.63029813766479492
vn 0.70710676908493042 0 0.70710676908493042
vn 0.70710676908493042 0 0.70710676908493042
vn 0.63029813766479492 0 0.77635318040847778
vn 0.63029813766479492 0 0.77635318040847778
vn 0.54720973968505859 0 0.83699548244476318
vn 0.54720973968505859 0 0.83699548244476318
vn 0.45929458737373352 0 0.88828402757644653
vn 0.45929458737373352 0 0.88828402757644653
vn 0.36809471249580383 0 0.92978829145431519
vn 0.36809471249580383 0 0.92978829145431519
vn 0.27515822649002075 0 0.96139895915985107
vn 0.27515822649002075 0 0.96139895915985107
vn 0.18196305632591248 0 0.98330539464950562
vn 0.18196305632591248 0 0.98330539464950562
vn 0.089854441583156586 0 0.99595493078231812
vn 0.089854441583156586 0 0.99595493078231812
vn 0 0 1
vn 0 0 1
vn 0 0 1
vn 0 0 1
vn 0 0 1
vn 0 0 1
vn -1 0 0
vn -1 0 0
vn -1 0 0
vn -1 0 0
vn 0 1 0
vn 0 1 0
vn 0 1 0
vn 0 1 0
vn 0 1 0
vn 0 1 0
vn 0 1 0
vn 0 1 0
vn 0 1 0
vn 0 1 0
vn 0 1 0
vn 0 1 0
vn 0 1 0
vn 0 1 0
vn 0 1 0
vn 0 1 0
vn 0 1 0
vn 0 1 0
vn 0 1 0
vn 0 1 0
f 20/20/20 1/1/1 15/15/15
f 14/14/14 15/15/15 1/1/1
f 1/1/1 13/13/13 14/14/14
f 1/1/1 12/12/12 13/13/13
f 12/12/12 1/1/1 11/11/11
f 18/18/18 19/19/19 20/20/20
f 20/20/20 17/17/17 18/18/18
f 20/20/20 16/16/16 17/17/17
f 16/16/16 20/20/20 15/15/15
f 2/2/2 5/5/5 6/6/6
f 3/3/3 4/4/4 2/2/2
f 5/5/5 2/2/2 4/4/4
f 2/2/2 6/6/6 7/7/7
f 1/1/1 10/10/10 11/11/11
f 8/8/8 9/9/9 1/1/1
f 7/7/7 8/8/8 1/1/1
f 10/10/10 1/1/1 9/9/9
f 1/1/1 2/2/2 7/7/7
f 21/22/22 2/21/21 1/23/23
f 23/26/26 3/25/25 2/27/27
f 18/31/31 25/32/32 24/30/30
f 16/35/35 27/36/36 26/34/34
f 17/33/33 26/34/34 25/32/32
f 14/39/39 29/40/40 28/38/38
f 12/43/43 31/44/44 30/42/42
f 13/41/41 30/42/42 29/40/40
f 15/37/37 28/38/38 27/36/36
f 11/45/45 32/46/46 31/44/44
f 9/49/49 34/50/50 33/48/48
f 7/53/53 36/54/54 35/52/52
f 8/51/51 35/52/52 34/50/50
f 5/57/57 38/58/58 37/56/56
f 3/61/61 23/62/62 39/60/60
f 4/59/59 39/60/60 38/58/58
f 6/55/55 37/56/56 36/54/54
f 10/47/47 33/48/48 32/46/46
f 40/64/64 20/63/63 19/65/65
f 22/68/68 1/67/67 20/69/69
f 40/90/90 28/85/85 22/71/71
f 29/84/84 22/71/71 28/85/85
f 22/71/71 29/84/84 30/83/83
f 22/71/71 30/83/83 31/82/82
f 31/82/82 32/81/81 22/71/71
f 25/88/88 40/90/90 24/89/89
f 40/90/90 25/88/88 26/87/87
f 40/90/90 26/87/87 27/86/86
f 27/86/86 28/85/85 40/90/90
f 21/72/72 37/76/76 38/75/75
f 23/73/73 21/72/72 39/74/74
f 38/75/75 39/74/74 21/72/72
f 21/72/72 36/77/77 37/76/76
f 22/71/71 32/81/81 33/80/80
f 35/78/78 22/71/71 34/79/79
f 36/77/77 22/71/71 35/78/78
f 33/80/80 34/79/79 22/71/71
f 22/71/71 36/77/77 21/72/72
f 21/22/22 1/23/23 22/24/24
f 23/26/26 2/27/27 21/28/28
f 18/31/31 24/30/30 19/29/29
f 16/35/35 26/34/34 17/33/33
f 17/33/33 25/32/32 18/31/31
f 14/39/39 28/38/38 15/37/37
f 12/43/43 30/42/42 13/41/41
f 13/41/41 29/40/40 14/39/39
f 15/37/37 27/36/36 16/35/35
f 11/45/45 31/44/44 12/43/43
f 9/49/49 33/48/48 10/47/47
f 7/53/53 35/52/52 8/51/51
f 8/51/51 34/50/50 9/49/49
f 5/57/57 37/56/56 6/55/55
f 3/61/61 39/60/60 4/59/59
f 4/59/59 38/58/58 5/57/57
f 6/55/55 36/54/54 7/53/53
f 10/47/47 32/46/46 11/45/45
f 40/64/64 19/65/65 24/66/66
f 22/68/68 20/69/69 40/70/70
