# Rhino

o object_1
v -0.32780736684799194 1.3500000238418579 -0.17499999701976776
v -0.32780736684799194 -1.3500000238418579 -0.17499999701976776
v 0.32780736684799194 1.3500000238418579 -0.17499999701976776
v 0.32780736684799194 -1.3500000238418579 -0.17499999701976776
v 0.32780736684799194 1.3500000238418579 0.17499999701976776
v 0.32780736684799194 -1.3500000238418579 0.17499999701976776
v -0.32780736684799194 1.3500000238418579 0.17499999701976776
v -0.32780736684799194 -1.3500000238418579 0.17499999701976776
vt 0 0
vt 0 1
vt 0.22414293885231018 0
vt 0.22414293885231018 1
vt 0.22414293885231018 0
vt 0.22414293885231018 1
vt 0.43545326590538025 0
vt 0.43545326590538025 1
vt 0.43545326590538025 0
vt 0.43545326590538025 1
vt 0.65959620475769043 0
vt 0.65959620475769043 1
vt 0.65959620475769043 0
vt 0.65959620475769043 1
vt 0.8709065318107605 0
vt 0.8709065318107605 1
vt 1 0.24282026290893555
vt 1 0
vt 0.87090736627578735 0
vt 0.87090736627578735 0.24282026290893555
vt 1 0.75717973709106445
vt 1 1
vt 0.87090736627578735 1
vt 0.87090736627578735 0.75717973709106445
vn 0 0 -1
vn 0 0 -1
vn 0 0 -1
vn 0 0 -1
vn 1 0 0
vn 1 0 0
vn 1 0 0
vn 1 0 0
vn 0 0 1
vn 0 0 1
vn 0 0 1
vn 0 0 1
vn -1 0 0
vn -1 0 0
vn -1 0 0
vn -1 0 0
vn 0 1 0
vn 0 1 0
vn 0 1 0
vn 0 1 0
vn 0 -1 0
vn 0 -1 0
vn 0 -1 0
vn 0 -1 0
f 1/1/1 3/3/3 4/4/4
f 3/5/5 5/7/7 6/8/8
f 5/9/9 7/11/11 8/12/12
f 7/13/13 1/15/15 2/16/16
f 3/18/18 1/17/17 7/20/20
f 7/20/20 5/19/19 3/18/18
f 4/22/22 8/24/24 2/21/21
f 8/24/24 4/22/22 6/23/23
f 1/1/1 4/4/4 2/2/2
f 3/5/5 6/8/8 4/6/6
f 5/9/9 8/12/12 6/10/10
f 7/13/13 2/16/16 8/14/14
