# Rhino

o object_1
v -0.17499999701976776 -1.3497673273086548 -0.3969256579875946
v -0.17499999701976776 -1.3497673273086548 0.39307436347007751
v 0.17499999701976776 -1.3497673273086548 -0.3969256579875946
v 0.17499999701976776 -1.3497673273086548 0.39307436347007751
v 0.17499999701976776 1.350232720375061 -0.3969256579875946
v 0.17499999701976776 1.350232720375061 0.39307436347007751
v -0.17499999701976776 1.350232720375061 -0.3969256579875946
v -0.17499999701976776 1.350232720375061 0.39307436347007751
vt 0 0
vt 0 0.76510006189346313
vt 0.05000000074505806 0
vt 0.05000000074505806 0.76510006189346313
vt 0.05000000074505806 0
vt 0.05000000074505806 0.76510006189346313
vt 0.5 0
vt 0.5 0.76510006189346313
vt 0.5 0
vt 0.5 0.76510006189346313
vt 0.55000001192092896 0
vt 0.55000001192092896 0.76510006189346313
vt 0.55000001192092896 0
vt 0.55000001192092896 0.76510006189346313
vt 1 0
vt 1 0.76510006189346313
vt 0.44262295961380005 1
vt 0.44262295961380005 0.76510083675384521
vt 0 0.76510083675384521
vt 0 1
vt 1 0.76510083675384521
vt 1 1
vt 0.55737704038619995 1
vt 0.55737704038619995 0.76510083675384521
vn 0 -1 0
vn 0 -1 0
vn 0 -1 0
vn 0 -1 0
vn 1 0 0
vn 1 0 0
vn 1 0 0
vn 1 0 0
vn 0 1 0
vn 0 1 0
vn 0 1 0
vn 0 1 0
vn -1 0 0
vn -1 0 0
vn -1 0 0
vn -1 0 0
vn 0 0 -1
vn 0 0 -1
vn 0 0 -1
vn 0 0 -1
vn 0 0 1
vn 0 0 1
vn 0 0 1
vn 0 0 1
f 1/1/1 3/3/3 4/4/4
f 3/5/5 5/7/7 6/8/8
f 5/9/9 7/11/11 8/12/12
f 7/13/13 1/15/15 2/16/16
f 3/18/18 1/17/17 7/20/20
f 7/20/20 5/19/19 3/18/18
f 4/22/22 8/24/24 2/21/21
f 8/24/24 4/22/22 6/23/23
f 1/1/1 4/4/4 2/2/2
f 3/5/5 6/8/8 4/6/6
f 5/9/9 8/12/12 6/10/10
f 7/13/13 2/16/16 8/14/14
