# Rhino

v -2.937385082244873 0 1.9591836929321289
v -2.937385082244873 0.25 1.9591836929321289
v -2.937385082244873 0 0.58775508403778076
v -2.937385082244873 0.25 0.58775508403778076
v -4.4873852729797363 0 0.58775508403778076
v -4.4873852729797363 0.25 0.58775508403778076
v -4.4873852729797363 0 1.9591836929321289
v -4.4873852729797363 0.25 1.9591836929321289
v -0.044885251671075821 0.25 0
v -7.2604379653930664 0.25 3
v -6.1108970642089844 0.25 0
v -6.1098542213439941 0.25 0.09383634477853775
v -6.1354150772094727 0.25 0.55775934457778931
v -6.2115097045898438 0.25 1.014985203742981
v -6.3372578620910645 0.25 1.4615702629089355
v -6.5117783546447754 0.25 1.8935708999633789
v -6.8424010276794434 0.25 2.4752378463745117
v -1.6227494478225708 0.25 3
v -1.2986036539077759 0.25 1.8811687231063843
v -0.76770365238189697 0.25 0.87921535968780518
v -7.4572949409484863 0 3
v -9.4598405553369957E-08 0 0
v -7.0177512168884277 0 2.4782261848449707
v -6.6700596809387207 0 1.8935708999633789
v -6.4891395568847656 0 1.4629123210906982
v -6.358696460723877 0 1.0165801048278809
v -6.2797112464904785 0 0.55880963802337646
v -6.2531642913818359 0 0.09383634477853775
v -6.2542424201965332 0 0
v -0.7288743257522583 0 0.87819033861160278
v -1.2642503976821899 0 1.8811687231063843
v -1.5903588533401489 0 3
vt 0.12658751010894775 0.029280474409461021
vt 0.12658751010894775 0.057096105068922043
vt 0.28721180558204651 0.029280474409461021
vt 0.28721180558204651 0.057096105068922043
vt 0.12658751010894775 0.087841421365737915
vt 0.12658751010894775 0.11565705388784409
vt 0.30812644958496094 0.087841421365737915
vt 0.30812644958496094 0.11565705388784409
vt 0.12658751010894775 0
vt 0.12658751010894775 0.027815630659461021
vt 0.28721180558204651 0
vt 0.28721180558204651 0.027815630659461021
vt 0.12658751010894775 0.058560948818922043
vt 0.12658751010894775 0.086376577615737915
vt 0.30812644958496094 0.058560948818922043
vt 0.30812644958496094 0.086376577615737915
vt 0.12658751010894775 0.24256449937820435
vt 0.9716867208480835 0.59246534109115601
vt 0.46536257863044739 0.31111648678779602
vt 0.46536257863044739 0.47107115387916565
vt 0.64690148830413818 0.31111648678779602
vt 0.64690148830413818 0.47107115387916565
vt 0.83705031871795654 0.24256449937820435
vt 0.83692818880081177 0.25350895524024963
vt 0.83992463350296021 0.30761769413948059
vt 0.84883421659469604 0.36094588041305542
vt 0.86355966329574585 0.41303351521492004
vt 0.88400226831436157 0.46341851353645325
vt 0.92272555828094482 0.53126031160354614
vt 0.31138995289802551 0.59246534109115601
vt 0.2734254002571106 0.46197199821472168
vt 0.21124538779258728 0.34511056542396545
vt 0.12658751010894775 0.94383102655410767
vt 0.99853515625 0.59393018484115601
vt 0.65508002042770386 0.8224368691444397
vt 0.65508002042770386 0.66248220205307007
vt 0.47384557127952576 0.66248220205307007
vt 0.47384557127952576 0.8224368691444397
vt 0.17798113822937012 0.88297456502914429
vt 0.21863533556461334 0.81478416919708252
vt 0.2397923469543457 0.76455593109130859
vt 0.25504162907600403 0.71249759197235107
vt 0.26427376270294189 0.65910577774047852
vt 0.2673809826374054 0.60487467050552368
vt 0.26725494861602783 0.59393018484115601
vt 0.91331112384796143 0.69635671377182007
vt 0.85071206092834473 0.81333768367767334
vt 0.81258171796798706 0.94383102655410767
vt 0.097307033836841583 0
vt 0.097307033836841583 0.73250871896743774
vt 0.12512266635894775 0.71571987867355347
vt 0.12512266635894775 0.0052570430561900139
vt 0.095842190086841583 0
vt 0.095842190086841583 0.68714666366577148
vt 0.068026557564735413 0.66409039497375488
vt 0.068026557564735413 0.003793640062212944
vt 0.12658751010894775 0.11718145757913589
vt 0.13855303823947906 0.11712189763784409
vt 0.1969245970249176 0.11853580176830292
vt 0.25302785634994507 0.12282869219779968
vt 0.30723151564598083 0.13017290830612183
vt 0.35984969139099121 0.14085103571414948
vt 0.43241924047470093 0.16304057836532593
vt 0.50142967700958252 0.19565699994564056
vt 0.50142967700958252 0.24109965562820435
vt 0.43282461166381836 0.20334260165691376
vt 0.35985416173934937 0.17770397663116455
vt 0.30739641189575195 0.16553595662117004
vt 0.25323277711868286 0.15708167850971222
vt 0.1970592737197876 0.15219864249229431
vt 0.13855303823947906 0.15067456662654877
vt 0.12658751010894775 0.1507466733455658
vt 0 0.400922030210495
vt 0.066561713814735413 0
vt 0.062307883054018021 0.14126449823379517
vt 0.054157990962266922 0.27259570360183716
vt 0.020075097680091858 0.2727387547492981
vt 0.031465228646993637 0.14126509428024292
vt 0.03740040585398674 0
vt 0.039766378700733185 0.400922030210495
vn -1 0 0
vn -1 0 0
vn -1 0 0
vn -1 0 0
vn 0 0 1
vn 0 0 1
vn 0 0 1
vn 0 0 1
vn 1 0 0
vn 1 0 0
vn 1 0 0
vn 1 0 0
vn 0 0 -1
vn 0 0 -1
vn 0 0 -1
vn 0 0 -1
vn 0 1 0
vn 0 1 0
vn 0 1 0
vn 0 1 0
vn 0 1 0
vn 0 1 0
vn 0 1 0
vn 0 1 0
vn 0 1 0
vn 0 1 0
vn 0 1 0
vn 0 1 0
vn 0 1 0
vn 0 1 0
vn 0 1 0
vn 0 1 0
vn 0 -1 0
vn 0 -1 0
vn 0 -1 0
vn 0 -1 0
vn 0 -1 0
vn 0 -1 0
vn 0 -1 0
vn 0 -1 0
vn 0 -1 0
vn 0 -1 0
vn 0 -1 0
vn 0 -1 0
vn 0 -1 0
vn 0 -1 0
vn 0 -1 0
vn 0 -1 0
vn 0 0 -1
vn 0 0 -1
vn 0 0 -1
vn 0 0 -1
vn 0 0 1
vn 0 0 1
vn 0 0 1
vn 0 0 1
vn -0.88134431838989258 0.47206822037696838 0.019591771066188812
vn -0.88156169652938843 0.47206884622573853 7.040681371250912E-10
vn -0.87627667188644409 0.47197511792182922 -0.096843644976615906
vn -0.8605530858039856 0.47171437740325928 -0.1921820193529129
vn -0.83462709188461304 0.471292644739151 -0.28509804606437683
vn -0.79880404472351074 0.47063490748405457 -0.37471970915794373
vn -0.73124617338180542 0.4694836437702179 -0.49483749270439148
vn -0.64624851942062378 0.46859973669052124 -0.60230982303619385
vn -0.60709768533706665 0.51831960678100586 -0.60230982303619385
vn -0.6963152289390564 0.51926249265670776 -0.49549120664596558
vn -0.76719522476196289 0.52056789398193359 -0.3747272789478302
vn -0.80425488948822021 0.52127921581268311 -0.28538054227828979
vn -0.83117246627807617 0.52161622047424316 -0.19253268837928772
vn -0.84745490550994873 0.52191716432571411 -0.097070403397083282
vn -0.85285359621047974 0.52215015888214111 9.7738181992212958E-09
vn -0.85262483358383179 0.52215611934661865 0.019591771066188812
vn 0.6938786506652832 0.1465013176202774 0.70503175258636475
vn 0.97885340452194214 0.10502214729785919 0.17554573714733124
vn 0.92120826244354248 0.10477361083030701 0.3746969997882843
vn 0.82758247852325439 0.10439767688512802 0.55155086517333984
vn 0.82095855474472046 0.14702373743057251 0.55173462629318237
vn 0.91533046960830688 0.14755232632160187 0.37469780445098877
vn 0.97329771518707275 0.14790268242359161 0.17554573714733124
vn 0.70150452852249146 0.10402707010507584 0.70503175258636475
f 2/2/2 4/4/4 3/3/3
f 4/6/6 6/8/8 5/7/7
f 6/10/10 8/12/12 7/11/11
f 8/14/14 2/16/16 1/15/15
f 4/19/19 20/32/32 9/17/17
f 19/31/31 20/32/32 4/19/19
f 4/19/19 11/23/23 6/21/21
f 11/23/23 4/19/19 9/17/17
f 2/20/20 18/30/30 19/31/31
f 18/30/30 2/20/20 8/22/22
f 4/19/19 2/20/20 19/31/31
f 10/18/18 18/30/30 8/22/22
f 8/22/22 6/21/21 14/26/26
f 6/21/21 11/23/23 12/24/24
f 6/21/21 13/25/25 14/26/26
f 6/21/21 12/24/24 13/25/25
f 8/22/22 15/27/27 16/28/28
f 8/22/22 17/29/29 10/18/18
f 8/22/22 16/28/28 17/29/29
f 8/22/22 14/26/26 15/27/27
f 5/37/37 26/42/42 27/43/43
f 5/37/37 28/44/44 29/45/45
f 5/37/37 27/43/43 28/44/44
f 7/38/38 21/33/33 23/39/39
f 7/38/38 24/40/40 25/41/41
f 7/38/38 23/39/39 24/40/40
f 25/41/41 26/42/42 7/38/38
f 3/36/36 5/37/37 29/45/45
f 3/36/36 22/34/34 30/46/46
f 3/36/36 29/45/45 22/34/34
f 30/46/46 31/47/47 3/36/36
f 32/48/48 7/38/38 1/35/35
f 1/35/35 31/47/47 32/48/48
f 1/35/35 3/36/36 31/47/47
f 21/33/33 7/38/38 32/48/48
f 26/42/42 5/37/37 7/38/38
f 29/50/50 11/51/51 22/49/49
f 10/55/55 21/54/54 32/53/53
f 13/59/59 28/71/71 27/70/70
f 14/60/60 13/59/59 27/70/70
f 26/69/69 15/61/61 14/60/60
f 28/71/71 12/58/58 11/57/57
f 11/57/57 29/72/72 28/71/71
f 28/71/71 13/59/59 12/58/58
f 25/68/68 16/62/62 15/61/61
f 23/66/66 10/64/64 17/63/63
f 10/64/64 23/66/66 21/65/65
f 24/67/67 23/66/66 17/63/63
f 26/69/69 14/60/60 27/70/70
f 24/67/67 16/62/62 25/68/68
f 26/69/69 25/68/68 15/61/61
f 16/62/62 24/67/67 17/63/63
f 19/75/75 32/79/79 31/78/78
f 9/80/80 30/77/77 22/73/73
f 30/77/77 20/76/76 31/78/78
f 19/75/75 31/78/78 20/76/76
f 20/76/76 30/77/77 9/80/80
f 18/74/74 32/79/79 19/75/75
f 2/2/2 3/3/3 1/1/1
f 4/6/6 5/7/7 3/5/5
f 6/10/10 7/11/11 5/9/9
f 8/14/14 1/15/15 7/13/13
f 11/51/51 9/52/52 22/49/49
f 10/55/55 32/53/53 18/56/56
