# Rhino

o object_1
v -0.22499999403953552 -0.075000002980232239 0.15000000596046448
v -0.22499999403953552 0.075000002980232239 0.15000000596046448
v 0.22499999403953552 -0.075000002980232239 0.15000000596046448
v 0.22499999403953552 0.075000002980232239 0.15000000596046448
v 0.22499999403953552 -0.075000002980232239 -0.15000000596046448
v 0.22499999403953552 0.075000002980232239 -0.15000000596046448
v -0.22499999403953552 -0.075000002980232239 -0.15000000596046448
v -0.22499999403953552 0.075000002980232239 -0.15000000596046448
vt -2.5119285583496094 -8.64291926916394E-09
vt -2.5119285583496094 0.43501240015029907
vt -2.1186854839324951 -8.64291926916394E-09
vt -2.1186854839324951 0.43501240015029907
vt 1 -8.64291926916394E-09
vt 1 0.43501240015029907
vt 1.3291157484054565 -8.64291926916394E-09
vt 1.3291157484054565 0.43501240015029907
vt 3.1186854839324951 -8.64291926916394E-09
vt 3.1186854839324951 0.43501240015029907
vt 3.5119285583496094 -8.64291926916394E-09
vt 3.5119285583496094 0.43501240015029907
vt -0.32911574840545654 -8.64291926916394E-09
vt -0.32911574840545654 0.43501240015029907
vt 6.5389422765349536E-09 -8.64291926916394E-09
vt 6.5389422765349536E-09 0.43501240015029907
vt 3.5119285583496094 1
vt 3.1186854839324951 1
vt 3.1186854839324951 1.3291157484054565
vt 3.5119285583496094 1.3291157484054565
vt -2.5119285583496094 1
vt -2.1186854839324951 1
vt -2.1186854839324951 1.3291157484054565
vt -2.5119285583496094 1.3291157484054565
vn 0 0 1
vn 0 0 1
vn 0 0 1
vn 0 0 1
vn 1 0 0
vn 1 0 0
vn 1 0 0
vn 1 0 0
vn 0 0 -1
vn 0 0 -1
vn 0 0 -1
vn 0 0 -1
vn -1 0 0
vn -1 0 0
vn -1 0 0
vn -1 0 0
vn 0 -1 0
vn 0 -1 0
vn 0 -1 0
vn 0 -1 0
vn 0 1 0
vn 0 1 0
vn 0 1 0
vn 0 1 0
f 1/1/1 3/3/3 4/4/4
f 3/5/5 5/7/7 6/8/8
f 5/9/9 7/11/11 8/12/12
f 7/13/13 1/15/15 2/16/16
f 3/18/18 1/17/17 7/20/20
f 7/20/20 5/19/19 3/18/18
f 4/22/22 8/24/24 2/21/21
f 8/24/24 4/22/22 6/23/23
f 1/1/1 4/4/4 2/2/2
f 3/5/5 6/8/8 4/6/6
f 5/9/9 8/12/12 6/10/10
f 7/13/13 2/16/16 8/14/14
