# Rhino

v -3.2791802883148193 0.25 0.77537703514099121
v -0.1235751286149025 0.25 3
v -0.39494028687477112 0 3
v -0.68721622228622437 0 2.4322817325592041
v -0.94030517339706421 0 2.0970160961151123
v -1.2350162267684937 0 1.8003549575805664
v -1.567013144493103 0 1.5461100339889526
v -1.9319599866867065 0 1.3380929231643677
v -2.254077672958374 0 1.20424485206604
v -2.5881381034851074 0 1.1077243089675903
v -2.9309146404266357 0 1.0492702722549438
v -3.2791802883148193 0 1.0296213626861572
v -2.8756537437438965 0.25 0.79976636171340942
v -2.4780023097991943 0.25 0.87257927656173706
v -2.0309329032897949 0.25 1.0165870189666748
v -1.5362504720687866 0.25 1.2644108533859253
v -1.0919040441513062 0.25 1.5878609418869019
v -0.70640987157821655 0.25 1.979597806930542
v -0.38828364014625549 0.25 2.4322817325592041
v -0.12617149949073792 0.25 2.9927487373352051
v -4.9830493927001953 0.25 1.2409863471984863
v -4.403531551361084 0 1.2409863471984863
v -3.851715087890625 0 1.0830175876617432
v -4.5274276733398438 0.25 1.0165870189666748
v -4.0803580284118652 0.25 0.87257927656173706
v -3.6827068328857422 0.25 0.79976636171340942
v -4.0471186637878418 0.25 0
v -1.8220316171646118 0.25 0.70101702213287354
v -3.6440634727478027 0 0
v -3.1630828380584717 0 0.23077899217605591
v -2.8126437664031982 0 0.34850269556045532
v -2.3220102787017822 0 0.45063379406929016
v -1.8220316171646118 0 0.48489090800285339
v -2.6491942405700684 0.25 0.61186468601226807
v -3.4383625984191895 0.25 0.34850269556045532
v 0.40305528044700623 0.25 0
v -1.3220533132553101 0 0.45063379406929016
v -0.83141988515853882 0 0.34850269556045532
v -0.48098078370094299 0 0.23077899217605591
v 8.3674549955503608E-08 0 0
v 0.20538482069969177 0.11878150701522827 0
v -0.20570126175880432 0.25 0.34850269556045532
v -0.9948691725730896 0.25 0.61186468601226807
v 0.17931517958641052 0 0
v 0.32870587706565857 0.11594482511281967 0
v 0.48304423689842224 0.22521752119064331 0
v 0.46078738570213318 0.25 0
v 0.91269689798355103 0 0.65669137239456177
v 0.5237775444984436 0 0.35443386435508728
v 0.6903119683265686 0.12468311935663223 0.33783254027366638
v -6.0839033126831055 0 1.2409863471984863
v -5.6578912734985352 0.25 1.2409863471984863
v -5.6716017723083496 0 0
v -5.2455892562866211 0.25 0
v 0.82149654626846313 0 3
v 1.0000001192092896 0 2.6059279441833496
v 0.90619474649429321 0 2.8006830215454102
v 1.0000001192092896 0 0.90881699323654175
v 0.82060962915420532 0.060372017323970795 3
v 0.59001308679580688 0.25 3
v 0.85217815637588501 0.25 2.9292593002319336
v 0.92308241128921509 0.25 2.7679791450500488
v 1.0000001192092896 0.25 2.6097564697265625
v 1.0000001192092896 0.25 1.5572118759155273
vt 0 0.44739606976509094
vt 0.36714792251586914 0.72254353761672974
vt 0.32849165797233582 0.72254353761672974
vt 0.30415958166122437 0.65973192453384399
vt 0.28135266900062561 0.62115830183029175
vt 0.25277864933013916 0.58568614721298218
vt 0.21779905259609222 0.55410456657409668
vt 0.17617008090019226 0.52706736326217651
vt 0.13671004772186279 0.5091860294342041
vt 0.093620575964450836 0.49584046006202698
vt 0.047661609947681427 0.48759216070175171
vt 0 0.4849134087562561
vt 0.059491708874702454 0.45095887780189514
vt 0.1162811741232872 0.46199825406074524
vt 0.17615038156509399 0.48299199342727661
vt 0.23597317934036255 0.51728665828704834
vt 0.28340771794319153 0.55935263633728027
vt 0.31978806853294373 0.60729604959487915
vt 0.34675329923629761 0.65972781181335449
vt 0.36695605516433716 0.72175657749176025
vt 0 0.23689401149749756
vt 0.1825886070728302 0.17008118331432343
vt 0.064984984695911407 0.23689401149749756
vt 0.1825886070728302 0.20761175453662872
vt 0.12114369124174118 0.21504709124565125
vt 0.043644241988658905 0.20569221675395966
vt 0.090867482125759125 0.1846885085105896
vt 0.13566230237483978 0.1736452579498291
vt 0.42321011424064636 0
vt 0.31812438368797302 0.24475067853927612
vt 0.42321011424064636 0.048954933881759644
vt 0.39077103137969971 0.095163449645042419
vt 0.373614102602005 0.13187144696712494
vt 0.35807636380195618 0.18659816682338715
vt 0.35290488600730896 0.24475067853927612
vt 0.33278262615203857 0.14247322082519531
vt 0.37360835075378418 0.056004974991083145
vt 0.50121539831161499 0
vt 0.60630112886428833 0.24475067853927612
vt 0.53599590063095093 0
vt 0.54116737842559814 0.058152515441179276
vt 0.55670511722564697 0.11287923157215118
vt 0.57386201620101929 0.1495872288942337
vt 0.60630112886428833 0.19579574465751648
vt 0.60630112886428833 0.2202732115983963
vt 0.55669933557510376 0.18874572217464447
vt 0.51587361097335815 0.10227746516466141
vt 0.050831303000450134 0.076476246118545532
vt 0.031961757689714432 0.076476246118545532
vt 0.016241190955042839 0.064275234937667847
vt 0 0.052776336669921875
vt 0.0084172999486327171 0.050168447196483612
vt 0.029218414798378944 0.063976727426052094
vt 0.0023420758079737425 0.050168447196483612
vt 0 0.32834985852241516
vt 0.066632524132728577 0.24621552228927612
vt 0.037079982459545135 0.28953441977500916
vt 0.026830773800611496 0.24621552228927612
vt 0.046731647104024887 0.24621552228927612
vt 0.014119864441454411 0.2874273955821991
vt 0 0.13643261790275574
vt 0.17682753503322601 0.13643261790275574
vt 0.11584416776895523 0.11012481898069382
vt 0.044829785823822021 0.11012481898069382
vt 0.21336027979850769 0.42595046758651733
vt 0 0.42595046758651733
vt 0.042413994669914246 0.39964267611503601
vt 0.16853049397468567 0.39964267611503601
vt 0.99853515625 0.14679612219333649
vt 0.93907070159912109 0.17755265533924103
vt 0.90396708250045776 0.20420067012310028
vt 0.87288081645965576 0.23519833385944366
vt 0.84623867273330688 0.27012687921524048
vt 0.8244621753692627 0.30853855609893799
vt 0.81036883592605591 0.34240958094596863
vt 0.80033266544342041 0.37758895754814148
vt 0.7942236065864563 0.41366130113601685
vt 0.79215192794799805 0.45030814409255981
vt 0.79776418209075928 0.51055300235748291
vt 0.81429094076156616 0.56862503290176392
vt 0.81429094076156616 0.74545252323150635
vt 0.99853515625 0.018789017572999001
vt 0.68430638313293457 0.086366526782512665
vt 0.72142171859741211 0.050110161304473877
vt 0.75309497117996216 0.0091951340436935425
vt 0.73509526252746582 0.2969706654548645
vt 0.73150712251663208 0.24435733258724213
vt 0.72080957889556885 0.19272737205028534
vt 0.70847886800765991 0.15585024654865265
vt 0.68430638313293457 0.10523606836795807
vt 0.68430638313293457 0.48870527744293213
vt 0.70847886800765991 0.43809109926223755
vt 0.72080957889556885 0.40121394395828247
vt 0.73150712251663208 0.34958398342132568
vt 0.68430638313293457 0.70206558704376221
vt 0.95726138353347778 0
vt 0.97765928506851196 0.0098735475912690163
vt 0.779499351978302 7.240017566800816E-06
vt 0.12800709903240204 0.10645443201065063
vt 0 0.10645443201065063
vt 0.09945099800825119 0.080146633088588715
vt 9.3320297310128808E-05 0.10010141134262085
vt 0.024359254166483879 0.080146633088588715
vt 0 0.046305377036333084
vt 0 0.040514979511499405
vt 0.0080370083451271057 0.022225189954042435
vt 0.026575431227684021 0.021974427625536919
vt 0.045087184756994247 0.021694570779800415
vt 0.045539218932390213 0.046682246029376984
vt 0.022790635004639626 0.04648151621222496
vt 0.44982802867889404 0.49600678682327271
vt 0.4523826539516449 0.53838157653808594
vt 0.46000927686691284 0.58013945817947388
vt 0.47509306669235229 0.62708675861358643
vt 0.50101703405380249 0.67905455827713013
vt 0.53492999076843262 0.72569525241851807
vt 0.5759996771812439 0.76613074541091919
vt 0.62337708473205566 0.79958325624465942
vt 0.68208205699920654 0.82710802555084229
vt 0.68284153938293457 0.82738059759140015
vt 0.49859732389450073 0.31708142161369324
vt 0.47509306669235229 0.36492681503295898
vt 0.46000927686691284 0.41187411546707153
vt 0.4523826539516449 0.45363199710845947
vt 0.36861276626586914 0.88268274068832397
vt 0.40511596202850342 0.81875646114349365
vt 0.43270125985145569 0.73588502407073975
vt 0.44203934073448181 0.64902371168136597
vt 0.43270125985145569 0.56216233968734741
vt 0.40511596202850342 0.47929084300994873
vt 0.36861276626586914 0.41536462306976318
vt 0.36861276626586914 0.28951179981231689
vt 0.36861276626586914 0.88874524831771851
vt 0.49859732389450073 0.24621552228927612
vt 0.67543220520019531 0.92984616756439209
vt 0.65854042768478394 0.93729448318481445
vt 0.64196878671646118 0.94537341594696045
vt 0.68284153938293457 0.90231537818908691
vt 0.5317196249961853 0.94536876678466797
vt 0.27469351887702942 0.33701133728027344
vt 0.27392718195915222 0.34043172001838684
vt 0.10128031671047211 0.33701133728027344
vt 0.23319688439369202 0.35430717468261719
vt 0.1657557338476181 0.37151554226875305
vt 0.19383278489112854 0.37151554226875305
vt 0.031417015939950943 0
vt 0.021308425813913345 0.01903839223086834
vt 0 0
vt 0.24040700495243073 0.24621552228927612
vt 0.11693219095468521 0.29623579978942871
vt 0.10279775410890579 0.24621552228927612
vt 0.25454145669937134 0.29623579978942871
vt 0.070021294057369232 0.16641080379486084
vt 0.0017899191007018089 0.14010299742221832
vt 0.18037895858287811 0.14010299742221832
vt 0.18078181147575378 0.16641080379486084
vn 0 0.68532818555831909 0.72823435068130493
vn -0.68589252233505249 0.68532818555831909 0.24469724297523499
vn -0.62690937519073486 0.73966741561889648 0.24469724297523499
vn -0.56342369318008423 0.73961859941482544 0.36812776327133179
vn -0.50838875770568848 0.73964232206344604 0.44098770618438721
vn -0.44435930252075195 0.73958468437194824 0.50552868843078613
vn -0.37215360999107361 0.73966091871261597 0.56071686744689941
vn -0.29285839200019836 0.73953074216842651 0.60607606172561646
vn -0.22281613945960999 0.73964285850524902 0.63504445552825928
vn -0.150208979845047 0.73957252502441406 0.65610194206237793
vn -0.075701236724853516 0.7395164966583252 0.66886818408966064
vn 0 0.73966741561889648 0.67297261953353882
vn -0.087706059217453003 0.68507927656173706 0.72316938638687134
vn -0.17414200305938721 0.68520289659500122 0.70722806453704834
vn -0.27132111787796021 0.68522894382476807 0.67590391635894775
vn -0.37885740399360657 0.68523752689361572 0.62202614545822144
vn -0.47545307874679565 0.6852487325668335 0.55170512199401855
vn -0.55922871828079224 0.68529599905014038 0.46651110053062439
vn -0.62841498851776123 0.68525236845016479 0.36813566088676453
vn -0.68532872200012207 0.68532758951187134 0.24627356231212616
vn 0.37034773826599121 0.68532818555831909 0.62703096866607666
vn 0 0.68532818555831909 0.72823435068130493
vn 0.24438554048538208 0.73966741561889648 0.62703096866607666
vn 0 0.73966741561889648 0.67297261953353882
vn 0.1244516521692276 0.73951667547225952 0.66153377294540405
vn 0.27132090926170349 0.68523287773132324 0.67590004205703735
vn 0.17414200305938721 0.68520289659500122 0.70722806453704834
vn 0.087706059217453003 0.68507927656173706 0.72316938638687134
vn 0.44580334424972534 0.6285933256149292 -0.63728314638137817
vn 0 0.6285933256149292 -0.77773416042327881
vn 0.36504989862442017 0.67868161201477051 -0.63728314638137817
vn 0.26868930459022522 0.67856371402740479 -0.683635413646698
vn 0.1984722763299942 0.6786806583404541 -0.70710772275924683
vn 0.10016980767250061 0.67852616310119629 -0.7277144193649292
vn 0 0.67868161201477051 -0.73443257808685303
vn 0.16572324931621552 0.62857246398925781 -0.75988978147506714
vn 0.3238370418548584 0.62858355045318604 -0.70711547136306763
vn 0 0.6285933256149292 -0.77773416042327881
vn -0.44580334424972534 0.6285933256149292 -0.63728314638137817
vn 0 0.67868161201477051 -0.73443257808685303
vn -0.10016980767250061 0.67852616310119629 -0.7277144193649292
vn -0.1984722763299942 0.6786806583404541 -0.70710772275924683
vn -0.26868930459022522 0.67856371402740479 -0.683635413646698
vn -0.36504989862442017 0.67868161201477051 -0.63728314638137817
vn -0.40619939565658569 0.65488338470458984 -0.63728314638137817
vn -0.3238370418548584 0.62858355045318604 -0.70711547136306763
vn -0.16572324931621552 0.62857246398925781 -0.75988978147506714
vn 0 0 -1
vn 0 0 -1
vn 0 0 -1
vn 0 0 -1
vn 0 0 -1
vn 0 0 -1
vn 0 0 -1
vn 0.40599712729454041 -0.68521797657012939 -0.60468393564224243
vn 0.55634975433349609 -0.68522047996520996 -0.4700508713722229
vn 0.48576518893241882 -0.68514245748519897 -0.5427817702293396
vn 0.49408116936683655 -0.73139315843582153 -0.4700508713722229
vn 0.52572262287139893 -0.70899075269699097 -0.4700508713722229
vn 0.45162424445152283 -0.71074557304382324 -0.53932946920394897
vn 0 0 1
vn 0 0 1
vn 0 0 1
vn 0 0 1
vn 0 0 -1
vn 0 0 -1
vn 0 0 -1
vn 0 0 -1
vn 0 -1 0
vn 0 -1 0
vn 0 -1 0
vn 0 -1 0
vn 0 -1 0
vn 0 -1 0
vn 0 -1 0
vn 0 -1 0
vn 0 -1 0
vn 0 -1 0
vn 0 -1 0
vn 0 -1 0
vn 0 -1 0
vn 0 -1 0
vn 0 -1 0
vn 0 -1 0
vn 0 -1 0
vn 0 -1 0
vn 0 -1 0
vn 0 -1 0
vn 0 -1 0
vn 0 -1 0
vn 0 -1 0
vn 0 -1 0
vn 0 -1 0
vn 0 -1 0
vn 0 -1 0
vn 0 -1 0
vn 0 -1 0
vn 0 -1 0
vn 0 0 1
vn 0 0 1
vn 0 0 1
vn 0 0 1
vn 0 0 1
vn 0.92911118268966675 0.020209837704896927 0.36924788355827332
vn 0.92930388450622559 0.0070875640958547592 0.36924788355827332
vn 0.92244231700897217 -0.034126561135053635 0.38462388515472412
vn 0.90703117847442627 -0.03411189466714859 0.41967949271202087
vn 0.89031320810317993 -0.034091688692569733 0.45407068729400635
vn 0.8903125524520874 0.020184597000479698 0.45490238070487976
vn 0.91070151329040527 0.020200788974761963 0.41257086396217346
vn 0 1 0
vn 0 1 0
vn 0 1 0
vn 0 1 0
vn 0 1 0
vn 0 1 0
vn 0 1 0
vn 0 1 0
vn 0 1 0
vn 0 1 0
vn 0 1 0
vn 0 1 0
vn 0 1 0
vn 0 1 0
vn 0 1 0
vn 0 1 0
vn 0 1 0
vn 0 1 0
vn 0 1 0
vn 0 1 0
vn 0 1 0
vn 0 1 0
vn 0 1 0
vn 0 1 0
vn 0 1 0
vn 0 1 0
vn 0 1 0
vn 0 1 0
vn 0 1 0
vn 0.72048109769821167 0.647044837474823 -0.24947945773601532
vn 0.72048109769821167 0.647044837474823 -0.24947945773601532
vn 0.72048109769821167 0.647044837474823 -0.24947945773601532
vn 0.72048109769821167 0.647044837474823 -0.24947945773601532
vn 0.72048109769821167 0.647044837474823 -0.24947945773601532
vn 0.72048109769821167 0.647044837474823 -0.24947945773601532
vn 0.24835062026977539 0.30200579762458801 0.92038822174072266
vn 0.24835062026977539 0.30200579762458801 0.92038822174072266
vn 0.24835062026977539 0.30200579762458801 0.92038822174072266
vn -0.49911701679229736 0.85051995515823364 -0.16582517325878143
vn -0.49911701679229736 0.85051995515823364 -0.16582517325878143
vn -0.49911701679229736 0.85051995515823364 -0.16582517325878143
vn -0.49911701679229736 0.85051995515823364 -0.16582517325878143
vn 1 0 0
vn 1 0 0
vn 1 0 0
vn 1 0 0
f 1/1/1 12/12/12 11/11/11
f 14/14/14 13/13/13 10/10/10
f 11/11/11 13/13/13 1/1/1
f 15/15/15 14/14/14 9/9/9
f 13/13/13 11/11/11 10/10/10
f 15/15/15 9/9/9 8/8/8
f 8/8/8 7/7/7 16/16/16
f 9/9/9 14/14/14 10/10/10
f 16/16/16 15/15/15 8/8/8
f 16/16/16 7/7/7 17/17/17
f 6/6/6 17/17/17 7/7/7
f 5/5/5 18/18/18 6/6/6
f 17/17/17 6/6/6 18/18/18
f 4/4/4 18/18/18 5/5/5
f 19/19/19 4/4/4 3/3/3
f 3/3/3 2/2/2 20/20/20
f 19/19/19 3/3/3 20/20/20
f 19/19/19 18/18/18 4/4/4
f 23/25/25 24/26/26 22/23/23
f 24/26/26 21/21/21 22/23/23
f 23/25/25 25/27/27 24/26/26
f 12/24/24 1/22/22 26/28/28
f 12/24/24 25/27/27 23/25/25
f 26/28/28 25/27/27 12/24/24
f 35/37/37 29/31/31 27/29/29
f 31/33/33 30/32/32 35/37/37
f 29/31/31 35/37/37 30/32/32
f 34/36/36 32/34/34 31/33/33
f 34/36/36 28/30/30 32/34/34
f 33/35/35 32/34/34 28/30/30
f 35/37/37 34/36/36 31/33/33
f 43/47/47 38/42/42 37/41/41
f 33/40/40 28/38/38 37/41/41
f 43/47/47 37/41/41 28/38/38
f 43/47/47 42/46/46 38/42/42
f 42/46/46 41/45/45 40/44/44
f 39/43/43 42/46/46 40/44/44
f 36/39/39 41/45/45 42/46/46
f 38/42/42 42/46/46 39/43/43
f 47/54/54 46/51/51 36/52/52
f 45/50/50 36/52/52 46/51/51
f 41/53/53 44/49/49 40/48/48
f 36/52/52 45/50/50 41/53/53
f 44/49/49 41/53/53 45/50/50
f 49/57/57 46/58/58 50/60/60
f 49/57/57 50/60/60 48/55/55
f 44/56/56 45/59/59 49/57/57
f 46/58/58 49/57/57 45/59/59
f 21/63/63 52/64/64 51/61/61
f 51/61/61 22/62/62 21/63/63
f 27/67/67 29/66/66 54/68/68
f 3/69/69 57/97/97 55/82/82
f 4/70/70 56/96/96 57/97/97
f 57/97/97 3/69/69 4/70/70
f 58/98/98 56/96/96 5/71/71
f 56/96/96 4/70/70 5/71/71
f 6/72/72 58/98/98 5/71/71
f 38/88/88 49/84/84 48/85/85
f 49/84/84 40/90/90 44/83/83
f 58/98/98 38/88/88 48/85/85
f 58/98/98 37/87/87 38/88/88
f 49/84/84 39/89/89 40/90/90
f 49/84/84 38/88/88 39/89/89
f 8/74/74 37/87/87 58/98/98
f 7/73/73 58/98/98 6/72/72
f 37/87/87 9/75/75 33/86/86
f 8/74/74 9/75/75 37/87/87
f 53/95/95 23/79/79 22/80/80
f 53/95/95 22/80/80 51/81/81
f 33/86/86 9/75/75 10/76/76
f 33/86/86 10/76/76 32/94/94
f 11/77/77 32/94/94 10/76/76
f 11/77/77 31/93/93 32/94/94
f 31/93/93 11/77/77 12/78/78
f 30/92/92 12/78/78 23/79/79
f 31/93/93 12/78/78 30/92/92
f 23/79/79 29/91/91 30/92/92
f 23/79/79 53/95/95 29/91/91
f 7/73/73 8/74/74 58/98/98
f 59/102/102 60/103/103 2/101/101
f 55/100/100 59/102/102 3/99/99
f 2/101/101 3/99/99 59/102/102
f 59/105/105 63/108/108 62/107/107
f 59/105/105 62/107/107 61/106/106
f 59/105/105 57/110/110 56/109/109
f 57/110/110 59/105/105 55/104/104
f 63/108/108 59/105/105 56/109/109
f 24/122/122 52/134/134 21/121/121
f 24/122/122 54/132/132 52/134/134
f 14/113/113 15/114/114 28/128/128
f 35/130/130 25/123/123 26/124/124
f 25/123/123 54/132/132 24/122/122
f 54/132/132 25/123/123 27/131/131
f 27/131/131 25/123/123 35/130/130
f 34/129/129 1/111/111 13/112/112
f 14/113/113 34/129/129 13/112/112
f 34/129/129 14/113/113 28/128/128
f 35/130/130 1/111/111 34/129/129
f 35/130/130 26/124/124 1/111/111
f 28/128/128 15/114/114 16/115/115
f 60/138/138 20/119/119 2/120/120
f 62/136/136 19/118/118 20/119/119
f 62/136/136 60/138/138 61/135/135
f 62/136/136 63/137/137 19/118/118
f 60/138/138 62/136/136 20/119/119
f 64/139/139 19/118/118 63/137/137
f 64/139/139 43/127/127 17/116/116
f 28/128/128 16/115/115 43/127/127
f 17/116/116 43/127/127 16/115/115
f 64/139/139 17/116/116 18/117/117
f 47/133/133 42/126/126 64/139/139
f 43/127/127 64/139/139 42/126/126
f 42/126/126 47/133/133 36/125/125
f 64/139/139 18/117/117 19/118/118
f 48/145/145 50/143/143 58/144/144
f 64/142/142 58/144/144 50/143/143
f 46/141/141 47/140/140 50/143/143
f 64/142/142 50/143/143 47/140/140
f 61/147/147 60/148/148 59/146/146
f 54/151/151 53/150/150 52/149/149
f 58/154/154 64/153/153 56/155/155
f 29/66/66 53/65/65 54/68/68
f 53/150/150 51/152/152 52/149/149
f 64/153/153 63/156/156 56/155/155
