# Rhino

v -2.8602268695831299 0.12595906853675842 1.118212103843689
v -2.8602268695831299 0.12595906853675842 -0.75026297569274902
v -2.8602268695831299 -0.12404093891382217 1.118212103843689
v -2.8602268695831299 -0.12404093891382217 -0.73968058824539185
v 2.8602185249328613 0.12595906853675842 1.118212103843689
v 2.8602185249328613 -0.12404093891382217 1.118212103843689
v -2.4413514137268066 0.12595906853675842 -0.56733417510986328
v -1.5717241764068604 0.12595906853675842 -0.30379542708396912
v -0.67166233062744141 0.12595906853675842 -0.17892260849475861
v -0.32486417889595032 0.12595906853675842 -0.16857424378395081
v 0.021933997049927711 0.12595906853675842 -0.17892260849475861
v 0.92199581861495972 0.12595906853675842 -0.30379542708396912
v 1.7916231155395508 0.12595906853675842 -0.56733417510986328
v 2.3408577442169189 0.12595906853675842 -0.81543165445327759
v 2.8602185249328613 0.12595906853675842 -1.118213415145874
v 2.8602185249328613 -0.12404093891382217 -1.1068328619003296
v 2.3532047271728516 -0.12404093891382217 -0.81108880043029785
v 1.8176618814468384 -0.12404093891382217 -0.56733417510986328
v 1.322088360786438 -0.12404093891382217 -0.39669543504714966
v 0.81318396329879761 -0.12404093891382217 -0.27128791809082031
v 0.29506790637969971 -0.12404093891382217 -0.19212672114372253
v 0.0338640958070755 -0.12404093891382217 -0.1701035350561142
v -0.22806599736213684 -0.12404093891382217 -0.15985263884067535
v -0.32486417889595032 -0.12404093891382217 -0.15904839336872101
v -0.42166236042976379 -0.12404093891382217 -0.15985263884067535
v -0.68359243869781494 -0.12404093891382217 -0.1701035350561142
v -0.94479626417160034 -0.12404093891382217 -0.19212672114372253
v -1.4629123210906982 -0.12404093891382217 -0.27128791809082031
v -1.9718166589736938 -0.12404093891382217 -0.39669543504714966
v -2.4673902988433838 -0.12404093891382217 -0.56733417510986328
vt 0.53295063972473145 0
vt 0.34147581458091736 0
vt 0.53295063972473145 0.025619124993681908
vt 0.34256026148796082 0.025619124993681908
vt 0.34147581458091736 0.52507930994033813
vt 0.9262235164642334 0.55069839954376221
vt 0.34147581458091736 0.55069839954376221
vt 0.9262235164642334 0.52507930994033813
vt 0.34147581458091736 0.095942549407482147
vt 0.9262235164642334 0.095942549407482147
vt 0.9262235164642334 0.28741732239723206
vt 0.88340580463409424 0.2686714231967926
vt 0.79451191425323486 0.24166490137577057
vt 0.70250701904296875 0.22886836528778076
vt 0.66705703735351563 0.2278079092502594
vt 0.63160711526870728 0.22886836528778076
vt 0.53960222005844116 0.24166490137577057
vt 0.45070832967758179 0.2686714231967926
vt 0.39456230401992798 0.29409021139144897
vt 0.34147581458091736 0.32512360811233521
vt 0.26311361789703369 0.012247360311448574
vt 0.26553893089294434 0.04362909123301506
vt 0.22013875842094421 0.05212489515542984
vt 0.1308044046163559 0.087064385414123535
vt 0.049184184521436691 0.25206562876701355
vt 0.034740660339593887 0.50413423776626587
vt 0.049154005944728851 0.75620412826538086
vt 0.13079050183296204 0.92121034860610962
vt 0.22010958194732666 0.95618212223052979
vt 0.28004357218742371 0.96675008535385132
vt 0.34001097083091736 0.97346073389053345
vt 0.33792948722839355 0.99853515625
vt 0.27909928560256958 0.99667364358901978
vt 0.22013479471206665 0.99379736185073853
vt 0.16762815415859222 0.98949247598648071
vt 0.11513707041740417 0.98114335536956787
vt 0.063010193407535553 0.95855695009231567
vt 0.037255618721246719 0.92368239164352417
vt 0.013532412238419056 0.75620371103286743
vt 0.0095101324841380119 0.50413417816162109
vt 0.013525562360882759 0.25206458568572998
vt 0.037266217172145844 0.084587402641773224
vt 0.063010193407535553 0.049711469560861588
vt 0.1152108833193779 0.027216378599405289
vt 0.16764990985393524 0.018839802592992783
vt 0.22013342380523682 0.014464338310062885
vt 0.34147581458091736 0.57305055856704712
vt 0.9262235164642334 0.80106347799301147
vt 0.34147581458091736 0.76344090700149536
vt 0.92622220516204834 0.57305055856704712
vt 0.87439793348312378 0.77075320482254028
vt 0.81965160369873047 0.74577945470809937
vt 0.76899391412734985 0.72829300165176392
vt 0.71697342395782471 0.71544164419174194
vt 0.66401141881942749 0.70732951164245605
vt 0.63731104135513306 0.70507264137268066
vt 0.61053645610809326 0.70402216911315918
vt 0.60064166784286499 0.70393973588943481
vt 0.59074693918228149 0.70402216911315918
vt 0.56397229433059692 0.70507264137268066
vt 0.53727197647094727 0.70732951164245605
vt 0.48430991172790527 0.71544164419174194
vt 0.4322894811630249 0.72829300165176392
vt 0.3816317617893219 0.74577945470809937
vt 0.34376764297485352 0.073590397834777832
vt 0.34376764297485352 0.047971274703741074
vt 0.57294869422912598 0.047971274703741074
vt 0.57178246974945068 0.073590397834777832
vn -1 0 0
vn -1 0 0
vn -1 0 0
vn -1 0 0
vn 0 0 1
vn 0 0 1
vn 0 0 1
vn 0 0 1
vn 0 1 0
vn 0 1 0
vn 0 1 0
vn 0 1 0
vn 0 1 0
vn 0 1 0
vn 0 1 0
vn 0 1 0
vn 0 1 0
vn 0 1 0
vn 0 1 0
vn 0 1 0
vn 0.43514177203178406 -0.016613373532891273 -0.90020865201950073
vn 0.43514177203178406 -0.059520624577999115 -0.8983924388885498
vn 0.36325061321258545 -0.059520624577999115 -0.92978829145431519
vn 0.21399438381195068 -0.059519175440073013 -0.97501993179321289
vn 0.059483494609594345 -0.05948295071721077 -0.99645549058914185
vn -2.6025268606844065E-09 -0.05945378914475441 -0.99823105335235596
vn -0.059447344392538071 -0.059446301311254501 -0.99645978212356567
vn -0.21397317945957184 -0.059508766978979111 -0.9750252366065979
vn -0.36321192979812622 -0.059469446539878845 -0.92980670928955078
vn -0.45751437544822693 -0.059518270194530487 -0.88720810413360596
vn -0.54665255546569824 -0.059520624577999115 -0.83524143695831299
vn -0.54665136337280273 -0.016583513468503952 -0.83719605207443237
vn -0.4596342146396637 -0.01661265641450882 -0.88795292377471924
vn -0.3677142858505249 -0.016591273248195648 -0.92979079484939575
vn -0.28263160586357117 -0.016553604975342751 -0.95908570289611816
vn -0.19518329203128815 -0.016535727307200432 -0.98062735795974731
vn -0.1063983291387558 -0.016613373532891273 -0.99418479204177856
vn -0.06155078113079071 -0.016608394682407379 -0.99796575307846069
vn -0.016384081915020943 -0.016383837908506393 -0.99973154067993164
vn 2.6761701188426912E-10 -0.016284158453345299 -0.99986737966537476
vn 0.016375795006752014 -0.01637553796172142 -0.99973177909851074
vn 0.061568174511194229 -0.016613373532891273 -0.99796462059020996
vn 0.1063983216881752 -0.016613373532891273 -0.99418479204177856
vn 0.19530206918716431 -0.016601743176579475 -0.98060262203216553
vn 0.2826639711856842 -0.016611916944384575 -0.95907515287399292
vn 0.36771246790885925 -0.01658344641327858 -0.92979168891906738
vn 0 -1 0
vn 0 -1 0
vn 0 -1 0
vn 0 -1 0
vn 0 -1 0
vn 0 -1 0
vn 0 -1 0
vn 0 -1 0
vn 0 -1 0
vn 0 -1 0
vn 0 -1 0
vn 0 -1 0
vn 0 -1 0
vn 0 -1 0
vn 0 -1 0
vn 0 -1 0
vn 0 -1 0
vn 0 -1 0
vn 1 0 0
vn 1 0 0
vn 1 0 0
vn 1 0 0
f 2/2/2 4/4/4 1/1/1
f 3/5/5 6/8/8 5/6/6
f 12/17/17 11/16/16 5/9/9
f 10/15/15 5/9/9 11/16/16
f 13/18/18 12/17/17 5/9/9
f 5/9/9 15/20/20 14/19/19
f 5/9/9 14/19/19 13/18/18
f 9/14/14 1/10/10 10/15/15
f 5/9/9 10/15/15 1/10/10
f 8/13/13 1/10/10 9/14/14
f 1/10/10 8/13/13 7/12/12
f 1/10/10 7/12/12 2/11/11
f 29/45/45 30/46/46 7/23/23
f 4/21/21 7/23/23 30/46/46
f 29/45/45 7/23/23 8/24/24
f 4/21/21 2/22/22 7/23/23
f 28/44/44 29/45/45 8/24/24
f 26/42/42 27/43/43 9/25/25
f 8/24/24 27/43/43 28/44/44
f 25/41/41 9/25/25 10/26/26
f 9/25/25 27/43/43 8/24/24
f 10/26/26 24/40/40 25/41/41
f 24/40/40 10/26/26 23/39/39
f 26/42/42 9/25/25 25/41/41
f 16/32/32 14/30/30 15/31/31
f 17/33/33 13/29/29 14/30/30
f 18/34/34 13/29/29 17/33/33
f 16/32/32 17/33/33 14/30/30
f 19/35/35 13/29/29 18/34/34
f 11/27/27 22/38/38 23/39/39
f 10/26/26 11/27/27 23/39/39
f 12/28/28 21/37/37 11/27/27
f 20/36/36 21/37/37 12/28/28
f 21/37/37 22/38/38 11/27/27
f 19/35/35 20/36/36 12/28/28
f 12/28/28 13/29/29 19/35/35
f 27/61/61 26/60/60 3/47/47
f 25/59/59 3/47/47 26/60/60
f 3/47/47 25/59/59 24/58/58
f 24/58/58 23/57/57 3/47/47
f 3/47/47 4/49/49 30/64/64
f 3/47/47 29/63/63 28/62/62
f 3/47/47 28/62/62 27/61/61
f 29/63/63 3/47/47 30/64/64
f 6/50/50 23/57/57 22/56/56
f 20/54/54 6/50/50 21/55/55
f 22/56/56 21/55/55 6/50/50
f 6/50/50 3/47/47 23/57/57
f 6/50/50 20/54/54 19/53/53
f 6/50/50 18/52/52 17/51/51
f 6/50/50 17/51/51 16/48/48
f 18/52/52 6/50/50 19/53/53
f 16/68/68 15/67/67 5/66/66
f 4/4/4 3/3/3 1/1/1
f 3/5/5 5/6/6 1/7/7
f 16/68/68 5/66/66 6/65/65
