# Rhino

o object_1
v -0.47729688882827759 0.15000000596046448 0.30376923084259033
v -0.47729688882827759 0.15000000596046448 0.0037692307960242033
v -0.4171135425567627 0.15000000596046448 0.30242708325386047
v -0.35599339008331299 0.15000000596046448 0.29830834269523621
v -0.29410809278488159 0.15000000596046448 0.2912825345993042
v -0.23164676129817963 0.15000000596046448 0.28123149275779724
v -0.16881491243839264 0.15000000596046448 0.2680518627166748
v -0.10583328455686569 0.15000000596046448 0.25165781378746033
v -0.042936120182275772 0.15000000596046448 0.23198311030864716
v 0.019630981609225273 0.15000000596046448 0.20898343622684479
v 0.081613488495349884 0.15000000596046448 0.18263830244541168
v 0.14275082945823669 0.15000000596046448 0.152952641248703
v 0.20277945697307587 0.15000000596046448 0.11995797604322433
v 0.26143628358840942 0.15000000596046448 0.083713173866271973
v 0.31846219301223755 0.15000000596046448 0.044304642826318741
v 0.37360557913780212 0.15000000596046448 0.0018460340797901154
v 0.42662596702575684 0.15000000596046448 -0.043522682040929794
v 0.47729727625846863 0.15000000596046448 -0.091636613011360168
v 0.26516523957252502 0.15000000596046448 -0.30376863479614258
v 0.22575421631336212 0.15000000596046448 -0.26634669303894043
v 0.18451616168022156 0.15000000596046448 -0.23105992376804352
v 0.14162684977054596 0.15000000596046448 -0.1980365514755249
v 0.097273364663124084 0.15000000596046448 -0.16738548874855042
v 0.051651380956172943 0.15000000596046448 -0.13919508457183838
v 0.0049624461680650711 0.15000000596046448 -0.11353256553411484
v -0.042588811367750168 0.15000000596046448 -0.090443715453147888
v -0.090797431766986847 0.15000000596046448 -0.069953054189682007
v -0.1394607275724411 0.15000000596046448 -0.052064415067434311
v -0.18838074803352356 0.15000000596046448 -0.03676186129450798
v -0.2373664528131485 0.15000000596046448 -0.024010933935642242
v -0.28623566031455994 0.15000000596046448 -0.01376013271510601
v -0.38294970989227295 0.15000000596046448 -0.00047811510739848018
v -0.47729688882827759 -0.15000000596046448 0.0037692307960242033
v -0.47729688882827759 0 0.0037692307960242033
v -0.47729688882827759 -0.15000000596046448 0.30376923084259033
v -0.47729688882827759 0 0.30376923084259033
v 0.26516523957252502 -0.15000000596046448 -0.30376863479614258
v 0.26516523957252502 0 -0.30376863479614258
v 0.47729727625846863 -0.15000000596046448 -0.091636613011360168
v 0.47729727625846863 0 -0.091636613011360168
v 0.22575421631336212 -0.15000000596046448 -0.26634669303894043
v 0.18451616168022156 -0.15000000596046448 -0.23105992376804352
v 0.14162684977054596 -0.15000000596046448 -0.1980365514755249
v 0.097273364663124084 -0.15000000596046448 -0.16738548874855042
v 0.051651380956172943 -0.15000000596046448 -0.13919508457183838
v 0.0049624461680650711 -0.15000000596046448 -0.11353256553411484
v -0.042588811367750168 -0.15000000596046448 -0.090443715453147888
v -0.090797431766986847 -0.15000000596046448 -0.069953054189682007
v -0.1394607275724411 -0.15000000596046448 -0.052064415067434311
v -0.18838074803352356 -0.15000000596046448 -0.03676186129450798
v -0.2373664528131485 -0.15000000596046448 -0.024010933935642242
v -0.28623566031455994 -0.15000000596046448 -0.01376013271510601
v -0.38294970989227295 -0.15000000596046448 -0.00047811510739848018
v -0.4171135425567627 -0.15000000596046448 0.30242708325386047
v -0.35599339008331299 -0.15000000596046448 0.29830834269523621
v -0.29410809278488159 -0.15000000596046448 0.2912825345993042
v -0.23164676129817963 -0.15000000596046448 0.28123149275779724
v -0.16881491243839264 -0.15000000596046448 0.2680518627166748
v -0.10583328455686569 -0.15000000596046448 0.25165781378746033
v -0.042936120182275772 -0.15000000596046448 0.23198311030864716
v 0.019630981609225273 -0.15000000596046448 0.20898343622684479
v 0.081613488495349884 -0.15000000596046448 0.18263830244541168
v 0.14275082945823669 -0.15000000596046448 0.152952641248703
v 0.20277945697307587 -0.15000000596046448 0.11995797604322433
v 0.26143628358840942 -0.15000000596046448 0.083713173866271973
v 0.31846219301223755 -0.15000000596046448 0.044304642826318741
v 0.37360557913780212 -0.15000000596046448 0.0018460340797901154
vt 0.38595283031463623 0.5837780237197876
vt 0.38595283031463623 0.77603107690811157
vt 0.42457368969917297 0.58463811874389648
vt 0.46379572153091431 0.58727759122848511
vt 0.50350874662399292 0.59178000688552856
vt 0.54359143972396851 0.59822118282318115
vt 0.5839119553565979 0.60666722059249878
vt 0.62432849407196045 0.61717325448989868
vt 0.66469085216522217 0.62978166341781616
vt 0.7048414945602417 0.64452087879180908
vt 0.74461686611175537 0.66140401363372803
vt 0.78384995460510254 0.68042784929275513
vt 0.82237154245376587 0.7015722393989563
vt 0.86001282930374146 0.7247995138168335
vt 0.89660745859146118 0.75005424022674561
vt 0.93199408054351807 0.77726352214813232
vt 0.96601837873458862 0.80633777379989624
vt 0.99853515625 0.83717131614685059
vt 0.86240577697753906 0.97311478853225708
vt 0.83711493015289307 0.94913315773010254
vt 0.81065160036087036 0.92651987075805664
vt 0.78312867879867554 0.9053570032119751
vt 0.75466614961624146 0.88571447134017944
vt 0.72538959980010986 0.86764883995056152
vt 0.69542837142944336 0.85120320320129395
vt 0.66491377353668213 0.83640682697296143
vt 0.63397729396820068 0.82327550649642944
vt 0.60274910926818848 0.81181174516677856
vt 0.57135611772537231 0.80200517177581787
vt 0.53992104530334473 0.79383379220962524
vt 0.5085606575012207 0.78726464509963989
vt 0.44649729132652283 0.77875298261642456
vt 0.69297641515731812 0.19151157140731812
vt 0.88595283031463623 0
vt 0.88595283031463623 0.19151157140731812
vt 0.78946459293365479 0.19151157140731812
vt 0.69297641515731812 0
vt 0.78946459293365479 0
vt 0.38595283031463623 0.19151157140731812
vt 0.57892924547195435 0
vt 0.57892924547195435 0.19151157140731812
vt 0.48244103789329529 0.19151157140731812
vt 0.38595283031463623 0
vt 0.48244103789329529 0
vt 0.19151157140731812 0
vt 0.19151157140731812 0.033130660653114319
vt 0 0.033130660653114319
vt 0.19151157140731812 0.066261321306228638
vt 0 0.066261321306228638
vt 0.19151157140731812 0.099391981959342957
vt 0 0.099391981959342957
vt 0.19151157140731812 0.13252264261245728
vt 0 0.13252264261245728
vt 0.19151157140731812 0.16565330326557159
vt 0 0.16565330326557159
vt 0.19151157140731812 0.19878396391868591
vt 0 0.19878396391868591
vt 0.19151157140731812 0.23191460967063904
vt 0 0.23191460967063904
vt 0.19151157140731812 0.26504528522491455
vt 0 0.26504528522491455
vt 0.19151157140731812 0.29817593097686768
vt 0 0.29817593097686768
vt 0.19151157140731812 0.33130660653114319
vt 0 0.33130660653114319
vt 0.19151157140731812 0.36443725228309631
vt 0 0.36443725228309631
vt 0.19151157140731812 0.39756792783737183
vt 0 0.39756792783737183
vt 0.19151157140731812 0.46382921934127808
vt 0 0.46382921934127808
vt 0.19151157140731812 0.5300905704498291
vt 0 0.5300905704498291
vt 0.095755785703659058 0.5300905704498291
vt 0 0
vt 0.095755785703659058 0
vt 0.38448798656463623 0
vt 0.19297641515731812 0
vt 0.38448798656463623 0.042596563696861267
vt 0.19297641515731812 0.042596563696861267
vt 0.38448798656463623 0.085193127393722534
vt 0.19297641515731812 0.085193127393722534
vt 0.38448798656463623 0.1277896910905838
vt 0.19297641515731812 0.1277896910905838
vt 0.38448798656463623 0.17038625478744507
vt 0.19297641515731812 0.17038625478744507
vt 0.38448798656463623 0.21298280358314514
vt 0.19297641515731812 0.21298280358314514
vt 0.38448798656463623 0.2555793821811676
vt 0.19297641515731812 0.2555793821811676
vt 0.38448798656463623 0.29817593097686768
vt 0.19297641515731812 0.29817593097686768
vt 0.38448798656463623 0.34077250957489014
vt 0.19297641515731812 0.34077250957489014
vt 0.38448798656463623 0.38336905837059021
vt 0.19297641515731812 0.38336905837059021
vt 0.38448798656463623 0.42596560716629028
vt 0.19297641515731812 0.42596560716629028
vt 0.38448798656463623 0.46856218576431274
vt 0.19297641515731812 0.46856218576431274
vt 0.38448798656463623 0.51115876436233521
vt 0.19297641515731812 0.51115876436233521
vt 0.38448798656463623 0.55375528335571289
vt 0.19297641515731812 0.55375528335571289
vt 0.38448798656463623 0.59635186195373535
vt 0.19297641515731812 0.59635186195373535
vt 0.38448798656463623 0.63894844055175781
vt 0.38448798656463623 0.68154501914978027
vt 0.28873220086097717 0
vt 0.19297641515731812 0.68154501914978027
vt 0.28873220086097717 0.68154501914978027
vt 0.38595283031463623 0.19297641515731812
vt 0.38595283031463623 0.38522949814796448
vt 0.42457368969917297 0.1938365250825882
vt 0.46379572153091431 0.19647598266601563
vt 0.50350874662399292 0.20097842812538147
vt 0.54359143972396851 0.20741958916187286
vt 0.5839119553565979 0.21586564183235168
vt 0.62432849407196045 0.22637167572975159
vt 0.66469085216522217 0.23898008465766907
vt 0.7048414945602417 0.2537192702293396
vt 0.74461686611175537 0.27060237526893616
vt 0.78384995460510254 0.28962627053260803
vt 0.82237154245376587 0.3107706606388092
vt 0.86001282930374146 0.3339979350566864
vt 0.89660745859146118 0.35925263166427612
vt 0.93199408054351807 0.38646194338798523
vt 0.99853515625 0.4463697075843811
vt 0.86240577697753906 0.5823131799697876
vt 0.83711493015289307 0.55833154916763306
vt 0.81065160036087036 0.53571826219558716
vt 0.78312867879867554 0.51455545425415039
vt 0.75466614961624146 0.49491289258003235
vt 0.72538959980010986 0.47684723138809204
vt 0.69542837142944336 0.46040156483650208
vt 0.66491377353668213 0.44560524821281433
vt 0.63397729396820068 0.43247392773628235
vt 0.60274910926818848 0.42101013660430908
vt 0.57135611772537231 0.41120356321334839
vt 0.53992104530334473 0.40303221344947815
vt 0.5085606575012207 0.3964630663394928
vt 0.44649729132652283 0.38795137405395508
vn 0 1 0
vn 0 1 0
vn 0 1 0
vn 0 1 0
vn 0 1 0
vn 0 1 0
vn 0 1 0
vn 0 1 0
vn 0 1 0
vn 0 1 0
vn 0 1 0
vn 0 1 0
vn 0 1 0
vn 0 1 0
vn 0 1 0
vn 0 1 0
vn 0 1 0
vn 0 1 0
vn 0 1 0
vn 0 1 0
vn 0 1 0
vn 0 1 0
vn 0 1 0
vn 0 1 0
vn 0 1 0
vn 0 1 0
vn 0 1 0
vn 0 1 0
vn 0 1 0
vn 0 1 0
vn 0 1 0
vn 0 1 0
vn -1 0 0
vn -1 0 0
vn -1 0 0
vn -1 0 0
vn -1 0 0
vn -1 0 0
vn 0.70710676908493042 0 -0.70710676908493042
vn 0.70710676908493042 0 -0.70710676908493042
vn 0.70710676908493042 0 -0.70710676908493042
vn 0.70710676908493042 0 -0.70710676908493042
vn 0.70710676908493042 0 -0.70710676908493042
vn 0.70710676908493042 0 -0.70710676908493042
vn -0.70710676908493042 0 -0.70710676908493042
vn -0.66957247257232666 0 -0.74274671077728271
vn -0.66957247257232666 0 -0.74274671077728271
vn -0.63029813766479492 0 -0.77635318040847778
vn -0.63029813766479492 0 -0.77635318040847778
vn -0.58945119380950928 0 -0.80780398845672607
vn -0.58945119380950928 0 -0.80780398845672607
vn -0.54720973968505859 0 -0.83699548244476318
vn -0.54720973968505859 0 -0.83699548244476318
vn -0.50376021862030029 0 -0.86384350061416626
vn -0.50376021862030029 0 -0.86384350061416626
vn -0.45929458737373352 0 -0.88828402757644653
vn -0.45929458737373352 0 -0.88828402757644653
vn -0.41400769352912903 0 -0.91027337312698364
vn -0.41400769352912903 0 -0.91027337312698364
vn -0.36809471249580383 0 -0.92978829145431519
vn -0.36809471249580383 0 -0.92978829145431519
vn -0.32174870371818542 0 -0.94682508707046509
vn -0.32174870371818542 0 -0.94682508707046509
vn -0.27515822649002075 0 -0.96139895915985107
vn -0.27515822649002075 0 -0.96139895915985107
vn -0.22850516438484192 0 -0.97354269027709961
vn -0.22850516438484192 0 -0.97354269027709961
vn -0.18196305632591248 0 -0.98330539464950562
vn -0.18196305632591248 0 -0.98330539464950562
vn -0.089854441583156586 0 -0.99595493078231812
vn -0.089854441583156586 0 -0.99595493078231812
vn 0 0 -1
vn 0 0 -1
vn 0 0 -1
vn -0.70710676908493042 0 -0.70710676908493042
vn -0.70710676908493042 0 -0.70710676908493042
vn 0 0 1
vn 0 0 1
vn 0.044580243527889252 0 0.99900579452514648
vn 0.044580243527889252 0 0.99900579452514648
vn 0.089854441583156586 0 0.99595493078231812
vn 0.089854441583156586 0 0.99595493078231812
vn 0.13569539785385132 0 0.99075061082839966
vn 0.13569539785385132 0 0.99075061082839966
vn 0.18196305632591248 0 0.98330539464950562
vn 0.18196305632591248 0 0.98330539464950562
vn 0.22850516438484192 0 0.97354269027709961
vn 0.22850516438484192 0 0.97354269027709961
vn 0.27515822649002075 0 0.96139895915985107
vn 0.27515822649002075 0 0.96139895915985107
vn 0.32174870371818542 0 0.94682508707046509
vn 0.32174870371818542 0 0.94682508707046509
vn 0.36809471249580383 0 0.92978829145431519
vn 0.36809471249580383 0 0.92978829145431519
vn 0.41400769352912903 0 0.91027337312698364
vn 0.41400769352912903 0 0.91027337312698364
vn 0.45929458737373352 0 0.88828402757644653
vn 0.45929458737373352 0 0.88828402757644653
vn 0.50376021862030029 0 0.86384350061416626
vn 0.50376021862030029 0 0.86384350061416626
vn 0.54720973968505859 0 0.83699548244476318
vn 0.54720973968505859 0 0.83699548244476318
vn 0.58945119380950928 0 0.80780398845672607
vn 0.58945119380950928 0 0.80780398845672607
vn 0.63029813766479492 0 0.77635318040847778
vn 0.63029813766479492 0 0.77635318040847778
vn 0.66957247257232666 0 0.74274671077728271
vn 0.70710676908493042 0 0.70710676908493042
vn 0 0 1
vn 0.70710676908493042 0 0.70710676908493042
vn 0.70710676908493042 0 0.70710676908493042
vn 0 -1 0
vn 0 -1 0
vn 0 -1 0
vn 0 -1 0
vn 0 -1 0
vn 0 -1 0
vn 0 -1 0
vn 0 -1 0
vn 0 -1 0
vn 0 -1 0
vn 0 -1 0
vn 0 -1 0
vn 0 -1 0
vn 0 -1 0
vn 0 -1 0
vn 0 -1 0
vn 0 -1 0
vn 0 -1 0
vn 0 -1 0
vn 0 -1 0
vn 0 -1 0
vn 0 -1 0
vn 0 -1 0
vn 0 -1 0
vn 0 -1 0
vn 0 -1 0
vn 0 -1 0
vn 0 -1 0
vn 0 -1 0
vn 0 -1 0
vn 0 -1 0
f 3/3/3 2/2/2 1/1/1
f 4/4/4 32/32/32 3/3/3
f 4/4/4 5/5/5 32/32/32
f 7/7/7 31/31/31 6/6/6
f 31/31/31 7/7/7 8/8/8
f 5/5/5 6/6/6 32/32/32
f 9/9/9 30/30/30 8/8/8
f 3/3/3 32/32/32 2/2/2
f 8/8/8 30/30/30 31/31/31
f 31/31/31 32/32/32 6/6/6
f 29/29/29 11/11/11 28/28/28
f 27/27/27 13/13/13 26/26/26
f 12/12/12 27/27/27 28/28/28
f 29/29/29 30/30/30 9/9/9
f 29/29/29 9/9/9 10/10/10
f 28/28/28 11/11/11 12/12/12
f 27/27/27 12/12/12 13/13/13
f 14/14/14 26/26/26 13/13/13
f 15/15/15 25/25/25 14/14/14
f 24/24/24 15/15/15 16/16/16
f 14/14/14 25/25/25 26/26/26
f 17/17/17 23/23/23 16/16/16
f 24/24/24 25/25/25 15/15/15
f 22/22/22 23/23/23 17/17/17
f 24/24/24 16/16/16 23/23/23
f 20/20/20 21/21/21 18/18/18
f 22/22/22 18/18/18 21/21/21
f 18/18/18 19/19/19 20/20/20
f 18/18/18 22/22/22 17/17/17
f 10/10/10 11/11/11 29/29/29
f 33/33/33 35/37/37 34/36/36
f 1/34/34 2/35/35 36/38/38
f 37/39/39 38/42/42 40/44/44
f 18/40/40 40/44/44 38/42/42
f 38/76/76 20/46/46 19/45/45
f 22/50/50 21/48/48 42/49/49
f 21/48/48 20/46/46 41/47/47
f 24/54/54 23/52/52 44/53/53
f 46/57/57 47/59/59 26/58/58
f 25/56/56 24/54/54 45/55/55
f 23/52/52 22/50/50 43/51/51
f 41/47/47 38/76/76 37/75/75
f 20/46/46 38/76/76 41/47/47
f 28/62/62 27/60/60 48/61/61
f 30/66/66 29/64/64 50/65/65
f 29/64/64 28/62/62 49/63/63
f 32/70/70 31/68/68 52/69/69
f 32/70/70 34/74/74 2/72/72
f 31/68/68 30/66/66 51/67/67
f 32/70/70 53/71/71 34/74/74
f 27/60/60 26/58/58 47/59/59
f 34/74/74 53/71/71 33/73/73
f 36/109/109 3/79/79 1/77/77
f 5/83/83 4/81/81 55/82/82
f 4/81/81 3/79/79 54/80/80
f 7/87/87 6/85/85 57/86/86
f 9/91/91 8/89/89 59/90/90
f 8/89/89 7/87/87 58/88/88
f 6/85/85 5/83/83 56/84/84
f 54/80/80 36/109/109 35/78/78
f 3/79/79 36/109/109 54/80/80
f 60/92/92 61/94/94 10/93/93
f 11/95/95 10/93/93 61/94/94
f 13/99/99 12/97/97 63/98/98
f 12/97/97 11/95/95 62/96/96
f 15/103/103 14/101/101 65/102/102
f 67/106/106 17/107/107 16/105/105
f 40/111/111 18/108/108 17/107/107
f 16/105/105 15/103/103 66/104/104
f 14/101/101 13/99/99 64/100/100
f 39/110/110 17/107/107 67/106/106
f 39/110/110 40/111/111 17/107/107
f 54/114/114 35/112/112 33/113/113
f 54/114/114 53/142/142 55/115/115
f 57/117/117 56/116/116 53/142/142
f 52/141/141 58/118/118 57/117/117
f 55/115/115 53/142/142 56/116/116
f 59/119/119 58/118/118 52/141/141
f 53/142/142 54/114/114 33/113/113
f 51/140/140 59/119/119 52/141/141
f 53/142/142 52/141/141 57/117/117
f 62/122/122 50/139/139 49/138/138
f 51/140/140 50/139/139 60/120/120
f 49/138/138 48/137/137 63/123/123
f 60/120/120 50/139/139 61/121/121
f 60/120/120 59/119/119 51/140/140
f 62/122/122 49/138/138 63/123/123
f 47/136/136 64/124/124 48/137/137
f 64/124/124 63/123/123 48/137/137
f 61/121/121 50/139/139 62/122/122
f 46/135/135 65/125/125 47/136/136
f 46/135/135 66/126/126 65/125/125
f 65/125/125 64/124/124 47/136/136
f 67/127/127 66/126/126 45/134/134
f 45/134/134 66/126/126 46/135/135
f 43/132/132 67/127/127 44/133/133
f 45/134/134 44/133/133 67/127/127
f 41/130/130 39/128/128 42/131/131
f 43/132/132 42/131/131 39/128/128
f 39/128/128 41/130/130 37/129/129
f 39/128/128 67/127/127 43/132/132
f 35/37/37 36/38/38 34/36/36
f 2/35/35 34/36/36 36/38/38
f 37/39/39 40/44/44 39/43/43
f 18/40/40 38/42/42 19/41/41
f 22/50/50 42/49/49 43/51/51
f 21/48/48 41/47/47 42/49/49
f 24/54/54 44/53/53 45/55/55
f 46/57/57 26/58/58 25/56/56
f 25/56/56 45/55/55 46/57/57
f 23/52/52 43/51/51 44/53/53
f 28/62/62 48/61/61 49/63/63
f 30/66/66 50/65/65 51/67/67
f 29/64/64 49/63/63 50/65/65
f 32/70/70 52/69/69 53/71/71
f 31/68/68 51/67/67 52/69/69
f 27/60/60 47/59/59 48/61/61
f 5/83/83 55/82/82 56/84/84
f 4/81/81 54/80/80 55/82/82
f 7/87/87 57/86/86 58/88/88
f 9/91/91 59/90/90 60/92/92
f 8/89/89 58/88/88 59/90/90
f 6/85/85 56/84/84 57/86/86
f 60/92/92 10/93/93 9/91/91
f 11/95/95 61/94/94 62/96/96
f 13/99/99 63/98/98 64/100/100
f 12/97/97 62/96/96 63/98/98
f 15/103/103 65/102/102 66/104/104
f 16/105/105 66/104/104 67/106/106
f 14/101/101 64/100/100 65/102/102
