# Rhino

v -6.8081746101379395 0 6.3705005645751953
v -7.811760425567627 0.10125870257616043 0
v -7.7581615447998047 0.10131838917732239 0.034996088594198227
v -7.589698314666748 0.10741683840751648 0.15702003240585327
v -7.4069504737854004 0.12567983567714691 0.31309595704078674
v -7.2393231391906738 0.15570569038391113 0.48327383399009705
v -7.0879812240600586 0.19723290205001831 0.6662629246711731
v -6.9540910720825195 0.25 0.86077266931533813
v -7.7110295295715332 0 0
v -6.5534577369689941 0.25 1.4145475625991821
v -6.2361536026000977 0.25 2.0577208995819092
v -6.0280990600585938 0.25 2.7695975303649902
v -5.9477863311767578 0.25 3.5199062824249268
v -6.0023255348205566 0.25 4.2725954055786133
v -6.1858468055725098 0.25 4.9913845062255859
v -6.4809074401855469 0.25 5.6453676223754883
v -6.862311840057373 0.25 6.2129473686218262
v -6.3112287521362305 0 5.6288642883300781
v -5.9708905220031738 0 4.7792043685913086
v -5.8156576156616211 0 3.8756818771362305
v -5.8496561050415039 0 2.9795496463775635
v -6.0658965110778809 0 2.1100051403045654
v -6.465754508972168 0 1.287466287612915
v -7.0282602310180664 0 0.56952446699142456
v -7.3280367851257324 0.13558831810951233 0.33555507659912109
v -7.0538420677185059 0.18270307779312134 0.42449766397476196
v -7.3005919456481934 0.13558831810951233 0.15702003240585327
v -7.0127248764038086 0.18270307779312134 0.15702003240585327
v -6.7331924438476563 0.25 0
v -6.7247495651245117 0.25 0.22538803517818451
v -6.7600712776184082 0.25 0.45246374607086182
v -6.8383831977844238 0.25 0.66818249225616455
v -7.7236690521240234 0.1034429594874382 0
v -7.4734301567077637 0.11915886402130127 0
v -7.2244305610656738 0.14889143407344818 0
v -6.9774327278137207 0.1925496906042099 0
v -0.14996849000453949 0.25 0
v -0.10153280943632126 0.25 0.090389534831047058
v -0.049794547259807587 0.25 0.17887522280216217
v -0.80202567577362061 0.25 0.68020230531692505
v -1.4875143766403198 0.25 1.3511694669723511
v -2.0535223484039307 0.25 2.1765017509460449
v -2.4534575939178467 0.25 3.1190755367279053
v -2.6574356555938721 0.25 4.1241960525512695
v -2.6590945720672607 0.25 5.1296601295471191
v -2.47568678855896 0.25 6.0779662132263184
v -2.1418325901031494 0.25 6.9259552955627441
v -4.9669914245605469 0.25 8.35418701171875
v 1.2670571436501632E-07 0 0
v -0.84128654003143311 0 0.53908628225326538
v -1.576626181602478 0 1.2483735084533691
v -2.1594669818878174 0 2.0910015106201172
v -2.56075119972229 0 3.0148131847381592
v -2.7781054973602295 0 3.9999837875366211
v -2.8018443584442139 0 5.0291271209716797
v -2.6248490810394287 0 6.0427680015563965
v -2.2630283832550049 0 6.9832086563110352
v -5.0283923149108887 0 8.3812112808227539
v 1.2670571436501632E-07 0.164663165807724 0
v -0.075357787311077118 0.20664049685001373 0
v 1.2670571436501632E-07 0.20297086238861084 0.12215779721736908
v 1.2670571436501632E-07 0.1021643728017807 0.059954136610031128
v -1.1470879316329956 0.12574192881584167 0.8903992772102356
v -2.5851814746856689 0.12574192881584167 3.3320615291595459
v -2.7513382434844971 0.12574192881584167 4.6353449821472168
v -2.6892554759979248 0.12574192881584167 5.436154842376709
v 1.2670571436501632E-07 0.18337622284889221 0.06121637299656868
vt 0.44376340508460999 0.061903174966573715
vt 0.9111485481262207 0.068745151162147522
vt 0.90714198350906372 0.068748712539672852
vt 0.8941652774810791 0.069157414138317108
vt 0.8792375922203064 0.070393294095993042
vt 0.86443763971328735 0.072440624237060547
vt 0.84972864389419556 0.075288720428943634
vt 0.83507251739501953 0.078923553228378296
vt 0.90586614608764648 0.061903174966573715
vt 0.79178786277770996 0.078923553228378296
vt 0.74553722143173218 0.078923553228378296
vt 0.69600486755371094 0.078923553228378296
vt 0.64282870292663574 0.078923553228378296
vt 0.58901518583297729 0.078923553228378296
vt 0.53902637958526611 0.078923553228378296
vt 0.49249917268753052 0.078923553228378296
vt 0.44908609986305237 0.078923553228378296
vt 0.49862214922904968 0.061903174966573715
vt 0.55652022361755371 0.061903174966573715
vt 0.617717444896698 0.061903174966573715
vt 0.67991632223129272 0.061903174966573715
vt 0.73843717575073242 0.061903174966573715
vt 0.7955702543258667 0.061903174966573715
vt 0.85136443376541138 0.061903174966573715
vt 0.44376340508460999 0.14398866891860962
vt 0.46821433305740356 0.10708838701248169
vt 0.46821433305740356 0.12553852796554565
vt 0.49266526103019714 0.10708838701248169
vt 0.49266526103019714 0.12553852796554565
vt 0.50358682870864868 0.14398866891860962
vt 0.48785346746444702 0.14398866891860962
vt 0.4723699688911438 0.14398866891860962
vt 0.45769378542900085 0.14398866891860962
vt 0.57896906137466431 0.080388396978378296
vt 0.55167269706726074 0.083709441125392914
vt 0.52127903699874878 0.097744181752204895
vt 0.51124483346939087 0.11314662545919418
vt 0.50640934705734253 0.12862968444824219
vt 0.44937315583229065 0.13007800281047821
vt 0.45659676194190979 0.11596983671188354
vt 0.46776372194290161 0.10175872594118118
vt 0.49266421794891357 0.088258370757102966
vt 0.55167263746261597 0.080442510545253754
vt 0.43588128685951233 0.017546670511364937
vt 0.43898415565490723 0.023356322199106216
vt 0.44229856133460999 0.029043607413768768
vt 0.39410963654518127 0.061265662312507629
vt 0.35019630193710327 0.10439107567071915
vt 0.31393706798553467 0.15743808448314667
vt 0.28831666707992554 0.21802061796188354
vt 0.27524957060813904 0.28262323141098022
vt 0.27514326572418213 0.34724792838096619
vt 0.28689262270927429 0.40819892287254333
vt 0.30827978253364563 0.46270215511322021
vt 0 0.072871558368206024
vt 0.0074124196544289589 0.060493107885122299
vt 0.012429201975464821 0.046628106385469437
vt 0.014691942371428013 0.032033149152994156
vt 0.014151078648865223 0.017546670511364937
vt 0.0058795134536921978 0.41687464714050293
vt 0.030312813818454742 0.38039427995681763
vt 0.049214750528335571 0.3383604884147644
vt 0.060971405357122421 0.29216137528419495
vt 0.064465247094631195 0.24378341436386108
vt 0.059320315718650818 0.19555842876434326
vt 0.045992054045200348 0.14980362355709076
vt 0.02566511370241642 0.10846461355686188
vt 0.12729629874229431 0.55449962615966797
vt 0.46126386523246765 0.16372193396091461
vt 0.49582159519195557 0.21763455867767334
vt 0.54128992557525635 0.26475775241851807
vt 0.5953059196472168 0.30210825800895691
vt 0.6545262336730957 0.32782396674156189
vt 0.71767985820770264 0.3417527973651886
vt 0.78365230560302734 0.34327405691146851
vt 0.84863102436065674 0.33193156123161316
vt 0.90891724824905396 0.30874484777450562
vt 0.46126386523246765 0.65787208080291748
vt 0.869640052318573 0.60001391172409058
vt 0.8220980167388916 0.56816786527633667
vt 0.7676311731338501 0.54635775089263916
vt 0.70971155166625977 0.53640991449356079
vt 0.65226566791534424 0.53858864307403564
vt 0.59652417898178101 0.55244612693786621
vt 0.54379594326019287 0.57807040214538574
vt 0.49777281284332275 0.61411780118942261
vt 0.99853515625 0.48595911264419556
vt 0.44376340508460999 0.060438331216573715
vt 0.93937838077545166 0.060438331216573715
vt 0.87652933597564697 0.045834798365831375
vt 0.89222753047943115 0.049190707504749298
vt 0.90810292959213257 0.051740966737270355
vt 0.92410701513290405 0.05347776785492897
vt 0.94019079208374023 0.054395798593759537
vt 0.94585144519805908 0.054522033780813217
vt 0.45340242981910706 0.045834798365831375
vt 0.44376596808433533 0.050824597477912903
vt 0.44860824942588806 0.048370048403739929
vt 0.96471667289733887 0.16225709021091461
vt 0.44376340508460999 0.14545351266860962
vt 0.50567680597305298 0.14545351266860962
vt 0.56804782152175903 0.14545351266860962
vt 0.63088148832321167 0.14545351266860962
vt 0.69418305158615112 0.14545351266860962
vt 0.76050323247909546 0.14545351266860962
vt 0.832020103931427 0.14545351266860962
vt 0.90057992935180664 0.14545351266860962
vt 0.96442461013793945 0.14545351266860962
vt 0.45173740386962891 0.16225709021091461
vt 0.44723537564277649 0.15907050669193268
vt 0.90553700923919678 0.16225709021091461
vt 0.83983820676803589 0.16225709021091461
vt 0.76804602146148682 0.16225709021091461
vt 0.69845479726791382 0.16225709021091461
vt 0.6322600245475769 0.16225709021091461
vt 0.56921893358230591 0.16225709021091461
vt 0.50911140441894531 0.16225709021091461
vt 0.44544973969459534 0.15228141844272614
vt 0.53395605087280273 0.15386447310447693
vt 0.71434128284454346 0.15386447310447693
vt 0.80453389883041382 0.15386447310447693
vt 0.86049377918243408 0.15386447310447693
vt 0.6865086555480957 0
vt 0.6865086555480957 0.011715148575603962
vt 0.6865086555480957 0.0058724046684801579
vt 0.69202899932861328 0.010454766452312469
vt 0.69159281253814697 0.002045612083747983
vt 0.69664841890335083 0.0042134835384786129
vt 0.69437742233276367 0.0073816156946122646
vt 0.44376340508460999 0
vt 0.45161491632461548 0.011715148575603962
vt 0.44376340508460999 0.0095040909945964813
vt 0.44761687517166138 0.0058967615477740765
vt 0.44769799709320068 0.010584177449345589
vt 0.62939602136611938 0.013179992325603962
vt 0.6195070743560791 0.028299923986196518
vt 0.44691643118858337 0.028299923986196518
vt 0.44560137391090393 0.013179992325603962
vt 0.64930886030197144 0.029764767736196518
vt 0.65361446142196655 0.044369954615831375
vt 0.45445320010185242 0.044369954615831375
vt 0.44584116339683533 0.029764767736196518
vn -0.67959052324295044 -0.46693933010101318 -0.56579536199569702
vn -0.47082191705703735 -0.48925507068634033 0.73413634300231934
vn -0.48202270269393921 -0.4891907274723053 0.72687447071075439
vn -0.51720213890075684 -0.49017235636711121 0.70159322023391724
vn -0.55530434846878052 -0.49359357357025146 0.66932988166809082
vn -0.59018623828887939 -0.49943569302558899 0.6342272162437439
vn -0.62161582708358765 -0.50764656066894531 0.59656411409378052
vn -0.64937674999237061 -0.51815438270568848 0.55662006139755249
vn -0.49186870455741882 -0.46842348575592041 0.73392409086227417
vn -0.73220235109329224 -0.51729631423950195 0.44303971529006958
vn -0.79749435186386108 -0.51654624938964844 0.31174150109291077
vn -0.84014695882797241 -0.5160210132598877 0.16695919632911682
vn -0.85657632350921631 -0.51581120491027832 0.014688652940094471
vn -0.84542161226272583 -0.51595407724380493 -0.1380351334810257
vn -0.80781948566436768 -0.5164216160774231 -0.28414154052734375
vn -0.74715602397918701 -0.51713025569915771 -0.41753336787223816
vn -0.66838693618774414 -0.51796668767929077 -0.53382527828216553
vn -0.78207194805145264 -0.4659256637096405 -0.41385594010353088
vn -0.85185205936431885 -0.46515265107154846 -0.24079257249832153
vn -0.88356143236160278 -0.4647790789604187 -0.057442203164100647
vn -0.87662309408187866 -0.46486201882362366 0.12423880398273468
vn -0.83240795135498047 -0.46537482738494873 0.30087089538574219
vn -0.75027740001678467 -0.46625560522079468 0.4687105119228363
vn -0.6339992880821228 -0.46734398603439331 0.61614483594894409
vn -0.2066941112279892 0.966389000415802 -0.15287210047245026
vn -0.12312352657318115 0.99163269996643066 -0.038797415792942047
vn -0.18441151082515717 0.98112976551055908 -0.05810985341668129
vn -0.12926009297370911 0.99161070585250854 0
vn -0.19359740614891052 0.98108106851577759 0
vn -0.25600636005401611 0.96607357263565063 0.034097414463758469
vn -0.25789019465446472 0.96606016159057617 -0.014846130274236202
vn -0.25000879168510437 0.96611553430557251 -0.064159363508224487
vn -0.23253023624420166 0.96623212099075317 -0.1110188290476799
vn -0.014917196705937386 0.9993060827255249 0.034129276871681213
vn -0.034619763493537903 0.99881792068481445 0.034121576696634293
vn -0.0905771404504776 0.99530500173568726 0.034112803637981415
vn -0.14627839624881744 0.98865503072738647 0.034115917980670929
vn -0.20148009061813354 0.97889852523803711 0.034109286963939667
vn -0.17690370976924896 0.97798383235931396 -0.11069184541702271
vn -0.14308090507984161 0.98716515302658081 -0.070942237973213196
vn -0.10534479469060898 0.99385839700698853 -0.033880755305290222
vn -0.064443469047546387 0.99792134761810303 -8.049583470892685E-07
vn -0.026790037751197815 0.99929231405258179 0.026404466480016708
vn 0 1 0
vn 0 1 0
vn 0 1 0
vn 0 1 0
vn 0 1 0
vn 0 1 0
vn 0 1 0
vn 0 1 0
vn 0 1 0
vn 0 1 0
vn 0 1 0
vn 0 1 0
vn 0 1 0
vn 0 1 0
vn 0 1 0
vn 0 1 0
vn 0 1 0
vn 0 1 0
vn 0 1 0
vn 0 1 0
vn 0 1 0
vn 0 1 0
vn 0 1 0
vn 0 1 0
vn 0 1 0
vn 0 -1 0
vn 0 -1 0
vn 0 -1 0
vn 0 -1 0
vn 0 -1 0
vn 0 -1 0
vn 0 -1 0
vn 0 -1 0
vn 0 -1 0
vn 0 -1 0
vn 0 -1 0
vn 0 -1 0
vn 0 -1 0
vn 0 -1 0
vn 0 -1 0
vn 0 -1 0
vn 0 -1 0
vn 0 -1 0
vn 0 -1 0
vn 0 0 -1
vn 0 0 -1
vn 0 0 -1
vn 0 0 -1
vn 0 0 -1
vn 0 0 -1
vn 0 0 -1
vn 0 0 -1
vn 0 0 -1
vn 0 0 -1
vn 0 0 -1
vn 0.77743494510650635 -0.49366855621337891 -0.3897259533405304
vn 0.40487197041511536 -0.45401284098625183 0.79369455575942993
vn 0.55204015970230103 -0.4530942440032959 0.69996947050094604
vn 0.67984312772750854 -0.45206508040428162 0.57745170593261719
vn 0.78046983480453491 -0.45110237598419189 0.43286657333374023
vn 0.8493579626083374 -0.45036542415618896 0.27524903416633606
vn 0.88652616739273071 -0.44994139671325684 0.10781519860029221
vn 0.89057916402816772 -0.4498940110206604 -0.066814273595809937
vn 0.86032974720001221 -0.45024219155311584 -0.23898680508136749
vn 0.79828029870986938 -0.45091792941093445 -0.39927628636360168
vn 0.41360646486282349 -0.4967685341835022 0.76298803091049194
vn 0.40487200021743774 -0.4887668788433075 0.77277785539627075
vn 0.83478349447250366 -0.49300459027290344 -0.24511836469173431
vn 0.86618798971176147 -0.49262058734893799 -0.083924494683742523
vn 0.86590421199798584 -0.49262413382530212 0.08678329735994339
vn 0.83097225427627563 -0.493050217628479 0.25765600800514221
vn 0.76222711801528931 -0.49383655190467834 0.41849163174629211
vn 0.66440296173095703 -0.4948367178440094 0.56009405851364136
vn 0.5451928973197937 -0.49586796760559082 0.67592871189117432
vn 0.40487188100814819 -0.47150614857673645 0.7834288477897644
vn 0.60529410839080811 -0.47415933012962341 0.63936841487884521
vn 0.85354083776473999 -0.47167381644248962 0.22134107351303101
vn 0.8819546103477478 -0.47133433818817139 0
vn 0.87134528160095215 -0.4714624285697937 -0.13594326376914978
vn 0.49371829628944397 0.83204460144042969 -0.25287154316902161
vn 0.47326448559761047 0.83228129148483276 -0.28866684436798096
vn 0.48383072018623352 0.83216029405593872 -0.27095586061477661
vn 0.46309179067611694 0.84178847074508667 -0.27737733721733093
vn 0.47848543524742126 0.8408808708190918 -0.25292491912841797
vn 0.46309050917625427 0.84944075345993042 -0.25297737121582031
vn 0.46309095621109009 0.84570258855819702 -0.26520541310310364
vn 1 0 0
vn 1 0 0
vn 1 0 0
vn 1 0 0
vn 1 0 0
vn -0.72548240423202515 0.24759656190872192 0.64216136932373047
vn -0.72548240423202515 0.24759656190872192 0.64216136932373047
vn -0.72548240423202515 0.24759656190872192 0.64216136932373047
vn -0.72548240423202515 0.24759656190872192 0.64216136932373047
vn 0.45111837983131409 -0.014334872364997864 0.8923490047454834
vn 0.45111837983131409 -0.014334872364997864 0.8923490047454834
vn 0.45111837983131409 -0.014334872364997864 0.8923490047454834
vn 0.45111837983131409 -0.014334872364997864 0.8923490047454834
f 1/1/1 17/17/17 16/16/16
f 18/18/18 16/16/16 15/15/15
f 20/20/20 13/13/13 21/21/21
f 21/21/21 12/12/12 22/22/22
f 19/19/19 15/15/15 14/14/14
f 20/20/20 14/14/14 13/13/13
f 24/24/24 23/23/23 6/6/6
f 9/9/9 24/24/24 4/4/4
f 4/4/4 24/24/24 5/5/5
f 3/3/3 2/2/2 9/9/9
f 4/4/4 3/3/3 9/9/9
f 10/10/10 23/23/23 11/11/11
f 7/7/7 10/10/10 8/8/8
f 23/23/23 10/10/10 7/7/7
f 7/7/7 6/6/6 23/23/23
f 6/6/6 5/5/5 24/24/24
f 28/29/29 27/28/28 25/26/26
f 25/26/26 5/41/41 6/40/40
f 6/40/40 26/27/27 25/26/26
f 26/27/27 31/32/32 30/31/31
f 7/39/39 26/27/27 6/40/40
f 32/33/33 7/39/39 8/25/25
f 26/27/27 7/39/39 32/33/33
f 31/32/32 26/27/27 32/33/33
f 27/28/28 5/41/41 25/26/26
f 27/28/28 34/36/36 4/42/42
f 3/43/43 4/42/42 34/36/36
f 33/35/35 2/34/34 3/43/43
f 34/36/36 33/35/35 3/43/43
f 35/37/37 27/28/28 28/29/29
f 28/29/29 29/30/30 36/38/38
f 28/29/29 36/38/38 35/37/37
f 35/37/37 34/36/36 27/28/28
f 30/31/31 29/30/30 28/29/29
f 4/42/42 5/41/41 27/28/28
f 40/47/47 39/46/46 38/45/45
f 40/47/47 38/45/45 37/44/44
f 41/48/48 40/47/47 29/59/59
f 29/59/59 42/49/49 41/48/48
f 29/59/59 40/47/47 37/44/44
f 30/58/58 11/66/66 42/49/49
f 42/49/49 29/59/59 30/58/58
f 10/67/67 30/58/58 31/57/57
f 8/55/55 10/67/67 32/56/56
f 31/57/57 32/56/56 10/67/67
f 30/58/58 10/67/67 11/66/66
f 13/64/64 44/51/51 43/50/50
f 11/66/66 12/65/65 43/50/50
f 48/68/68 47/54/54 46/53/53
f 48/68/68 46/53/53 45/52/52
f 14/63/63 45/52/52 44/51/51
f 13/64/64 43/50/50 12/65/65
f 14/63/63 44/51/51 13/64/64
f 16/61/61 48/68/68 15/62/62
f 45/52/52 14/63/63 15/62/62
f 48/68/68 16/61/61 17/60/60
f 48/68/68 45/52/52 15/62/62
f 42/49/49 11/66/66 43/50/50
f 9/78/78 49/69/69 50/70/70
f 23/85/85 51/71/71 52/72/72
f 24/86/86 50/70/70 51/71/71
f 50/70/70 24/86/86 9/78/78
f 52/72/72 22/84/84 23/85/85
f 22/84/84 53/73/73 21/83/83
f 23/85/85 24/86/86 51/71/71
f 53/73/73 22/84/84 52/72/72
f 21/83/83 54/74/74 20/82/82
f 58/87/87 56/76/76 57/77/77
f 19/81/81 55/75/75 56/76/76
f 20/82/82 54/74/74 55/75/75
f 19/81/81 20/82/82 55/75/75
f 1/79/79 18/80/80 58/87/87
f 56/76/76 18/80/80 19/81/81
f 56/76/76 58/87/87 18/80/80
f 53/73/73 54/74/74 21/83/83
f 60/98/98 29/90/90 37/96/96
f 60/98/98 59/97/97 36/91/91
f 34/93/93 59/97/97 49/88/88
f 29/90/90 60/98/98 36/91/91
f 49/88/88 9/89/89 34/93/93
f 35/92/92 59/97/97 34/93/93
f 2/95/95 33/94/94 9/89/89
f 34/93/93 9/89/89 33/94/94
f 36/91/91 59/97/97 35/92/92
f 62/118/118 50/101/101 49/100/100
f 50/101/101 62/118/118 63/119/119
f 51/102/102 50/101/101 63/119/119
f 52/103/103 51/102/102 63/119/119
f 63/119/119 64/120/120 52/103/103
f 39/109/109 40/117/117 61/110/110
f 63/119/119 61/110/110 40/117/117
f 41/116/116 42/115/115 63/119/119
f 63/119/119 42/115/115 64/120/120
f 40/117/117 41/116/116 63/119/119
f 63/119/119 62/118/118 61/110/110
f 64/120/120 53/104/104 52/103/103
f 65/121/121 54/105/105 64/120/120
f 55/106/106 54/105/105 65/121/121
f 64/120/120 43/114/114 44/113/113
f 66/122/122 55/106/106 65/121/121
f 56/107/107 55/106/106 66/122/122
f 57/108/108 56/107/107 66/122/122
f 45/112/112 65/121/121 44/113/113
f 46/111/111 47/99/99 66/122/122
f 57/108/108 66/122/122 47/99/99
f 45/112/112 46/111/111 66/122/122
f 65/121/121 45/112/112 66/122/122
f 42/115/115 43/114/114 64/120/120
f 60/127/127 37/123/123 38/125/125
f 59/128/128 60/127/127 67/129/129
f 38/125/125 61/126/126 67/129/129
f 61/126/126 38/125/125 39/124/124
f 60/127/127 38/125/125 67/129/129
f 62/133/133 49/130/130 59/132/132
f 67/134/134 61/131/131 62/133/133
f 59/132/132 67/134/134 62/133/133
f 1/136/136 58/137/137 48/138/138
f 47/142/142 48/139/139 57/141/141
f 1/1/1 16/16/16 18/18/18
f 18/18/18 15/15/15 19/19/19
f 13/13/13 12/12/12 21/21/21
f 12/12/12 11/11/11 22/22/22
f 19/19/19 14/14/14 20/20/20
f 23/23/23 22/22/22 11/11/11
f 28/29/29 25/26/26 26/27/27
f 26/27/27 30/31/31 28/29/29
f 54/105/105 53/104/104 64/120/120
f 64/120/120 44/113/113 65/121/121
f 1/136/136 48/138/138 17/135/135
f 48/139/139 58/140/140 57/141/141
