# Rhino

o object_1
v -0.22499999403953552 -0.004999999888241291 0.15000000596046448
v -0.22499999403953552 -0.004999999888241291 -0.15000000596046448
v 0.22499999403953552 -0.004999999888241291 0.15000000596046448
v 0.22499999403953552 -0.004999999888241291 -0.15000000596046448
v 0.22499999403953552 0.004999999888241291 0.15000000596046448
v -0.22499999403953552 0.004999999888241291 0.15000000596046448
v 0.22499999403953552 0.004999999888241291 -0.15000000596046448
v -0.22499999403953552 0.004999999888241291 -0.15000000596046448
vt 0.066666670143604279 0.5
vt 0.066666670143604279 0.99853515625
vt 0.81520181894302368 0.5
vt 0.81520181894302368 0.99853515625
vt 0.065201826393604279 0
vt 0.05000000074505806 0
vt 0.065201826393604279 0.75
vt 0.05000000074505806 0.75
vt 0.031868491321802139 0
vt 0.01666666753590107 0
vt 0.031868491321802139 0.5
vt 0.01666666753590107 0.5
vt 0.04853515699505806 0
vt 0.033333335071802139 0
vt 0.04853515699505806 0.75
vt 0.033333335071802139 0.75
vt 0.015201822854578495 0
vt 0 0
vt 0.015201822854578495 0.5
vt 0 0.5
vt 0.066666670143604279 0
vt 0.066666670143604279 0.49853515625
vt 0.81520181894302368 0
vt 0.81520181894302368 0.49853515625
vn 0 -1 0
vn 0 -1 0
vn 0 -1 0
vn 0 -1 0
vn 0 0 1
vn 0 0 1
vn 0 0 1
vn 0 0 1
vn 1 0 0
vn 1 0 0
vn 1 0 0
vn 1 0 0
vn 0 0 -1
vn 0 0 -1
vn 0 0 -1
vn 0 0 -1
vn -1 0 0
vn -1 0 0
vn -1 0 0
vn -1 0 0
vn 0 1 0
vn 0 1 0
vn 0 1 0
vn 0 1 0
f 2/2/2 4/4/4 3/3/3
f 5/6/6 6/8/8 1/7/7
f 7/10/10 5/12/12 3/11/11
f 8/14/14 7/16/16 4/15/15
f 6/18/18 8/20/20 2/19/19
f 8/22/22 6/21/21 5/23/23
f 2/2/2 3/3/3 1/1/1
f 5/6/6 1/7/7 3/5/5
f 7/10/10 3/11/11 4/9/9
f 8/14/14 4/15/15 2/13/13
f 6/18/18 2/19/19 1/17/17
f 8/22/22 5/23/23 7/24/24
