# Rhino

o object_1
v -0.15000003576278687 -0.0050000003539025784 0.22499999403953552
v -0.15000003576278687 -0.0050000003539025784 -0.22499999403953552
v 0.14999997615814209 -0.0050000003539025784 0.22499999403953552
v 0.14999997615814209 -0.0050000003539025784 -0.22499999403953552
v 0.14999997615814209 -0.0050000003539025784 -0.075000002980232239
v -0.15000003576278687 -0.0050000003539025784 -0.075000002980232239
v 0.14999997615814209 0.0049999994225800037 -0.075000002980232239
v 0.14999997615814209 0.0049999994225800037 0.22499999403953552
v 0.14999997615814209 0.0049999994225800037 -0.22499999403953552
v -0.15000003576278687 0.0049999994225800037 -0.22499999403953552
v -0.15000003576278687 0.0049999994225800037 -0.075000002980232239
v -0.15000003576278687 0.0049999994225800037 0.22499999403953552
vt 0.5161290168762207 0
vt 0.5161290168762207 0.72580647468566895
vt 0.99853515625 0
vt 0.99853515625 0.72580647468566895
vt 0.99853515625 0.4838709831237793
vt 0.5161290168762207 0.4838709831237793
vt 0 0.048387095332145691
vt 0 0.063051283359527588
vt 0.48387095332145691 0.048387095332145691
vt 0.48387095332145691 0.063051283359527588
vt 0 0.016129031777381897
vt 0 0.030793221667408943
vt 0.24193547666072845 0.016129031777381897
vt 0.24193547666072845 0.030793221667408943
vt 0 0.032258063554763794
vt 0 0.046922251582145691
vt 0.48387095332145691 0.032258063554763794
vt 0.48387095332145691 0.046922251582145691
vt 0 0
vt 0 0.014664188958704472
vt 0.24193547666072845 0
vt 0.24193547666072845 0.014664188958704472
vt 0.030793221667408943 0.064516127109527588
vt 0.016129031777381897 0.064516127109527588
vt 0.030793221667408943 0.54838711023330688
vt 0.016129031777381897 0.54838711023330688
vt 0.014664188958704472 0.064516127109527588
vt 0 0.064516127109527588
vt 0.014664188958704472 0.54838711023330688
vt 0 0.54838711023330688
vt 0.032258063554763794 0.064516127109527588
vt 0.032258063554763794 0.78885775804519653
vt 0.5146641731262207 0.064516127109527588
vt 0.5146641731262207 0.78885775804519653
vt 0.5146641731262207 0.54741054773330688
vt 0.032258063554763794 0.54741054773330688
vn 0 -1 0
vn 0 -1 0
vn 0 -1 0
vn 0 -1 0
vn 0 -1 0
vn 0 -1 0
vn 1 0 0
vn 1 0 0
vn 1 0 0
vn 1 0 0
vn 1 0 0
vn 1 0 0
vn 1 0 0
vn 1 0 0
vn 0 0 -1
vn 0 0 -1
vn 0 0 -1
vn 0 0 -1
vn -1 0 0
vn -1 0 0
vn -1 0 0
vn -1 0 0
vn -1 0 0
vn -1 0 0
vn -1 0 0
vn -1 0 0
vn 0 0 1
vn 0 0 1
vn 0 0 1
vn 0 0 1
vn 0 1 0
vn 0 1 0
vn 0 1 0
vn 0 1 0
vn 0 1 0
vn 0 1 0
f 6/6/6 5/5/5 3/3/3
f 2/2/2 4/4/4 5/5/5
f 7/8/8 8/10/10 3/9/9
f 9/12/12 7/14/14 5/13/13
f 10/16/16 9/18/18 4/17/17
f 11/20/20 10/22/22 2/21/21
f 12/24/24 11/26/26 6/25/25
f 8/28/28 12/30/30 1/29/29
f 11/36/36 12/31/31 8/33/33
f 10/32/32 11/36/36 7/35/35
f 6/6/6 3/3/3 1/1/1
f 2/2/2 5/5/5 6/6/6
f 7/8/8 3/9/9 5/7/7
f 9/12/12 5/13/13 4/11/11
f 10/16/16 4/17/17 2/15/15
f 11/20/20 2/21/21 6/19/19
f 12/24/24 6/25/25 1/23/23
f 8/28/28 1/29/29 3/27/27
f 11/36/36 8/33/33 7/35/35
f 10/32/32 7/35/35 9/34/34
