# Rhino

o object_1
v -0.30000001192092896 -0.0050000003539025784 -1.3500000238418579
v -0.30000001192092896 -0.0050000003539025784 1.3500000238418579
v 0.30000001192092896 -0.0050000003539025784 -1.3500000238418579
v 0.30000001192092896 -0.0050000003539025784 1.3500000238418579
v -0.30000001192092896 0.0049999994225800037 -1.3500000238418579
v -0.30000001192092896 0.0049999994225800037 1.3500000238418579
v 0.30000001192092896 0.0049999994225800037 -1.3500000238418579
v 0.30000001192092896 0.0049999994225800037 1.3500000238418579
vt 0.99853515625 0.50445997714996338
vt 0.0073529412038624287 0.50445997714996338
vt 0.99853515625 0.7250482439994812
vt 0.0073529412038624287 0.7250482439994812
vt 0.0073529412038624287 0
vt 0.0036764706019312143 0
vt 0.0073529412038624287 0.99118220806121826
vt 0.0036764706019312143 0.99118220806121826
vt 0.0073529412038624287 0.008136451244354248
vt 0.0073529412038624287 0.011812921613454819
vt 0.22794117033481598 0.008136451244354248
vt 0.22794117033481598 0.011812921613454819
vt 0.0036764706019312143 0
vt 0 0
vt 0.0036764706019312143 0.99118220806121826
vt 0 0.99118220806121826
vt 0.0073529412038624287 0
vt 0.0073529412038624287 0.0036764706019312143
vt 0.22794117033481598 0
vt 0.22794117033481598 0.0036764706019312143
vt 0.99853515625 0.016272902488708496
vt 0.0073529412038624287 0.016272902488708496
vt 0.99853515625 0.23686113953590393
vt 0.0073529412038624287 0.23686113953590393
vn 0 -1 0
vn 0 -1 0
vn 0 -1 0
vn 0 -1 0
vn -1 0 0
vn -1 0 0
vn -1 0 0
vn -1 0 0
vn 0 0 -1
vn 0 0 -1
vn 0 0 -1
vn 0 0 -1
vn 1 0 0
vn 1 0 0
vn 1 0 0
vn 1 0 0
vn 0 0 1
vn 0 0 1
vn 0 0 1
vn 0 0 1
vn 0 1 0
vn 0 1 0
vn 0 1 0
vn 0 1 0
f 2/2/2 1/1/1 3/3/3
f 5/6/6 1/5/5 2/7/7
f 7/10/10 3/9/9 1/11/11
f 8/14/14 4/13/13 3/15/15
f 6/18/18 2/17/17 4/19/19
f 6/22/22 8/24/24 7/23/23
f 2/2/2 3/3/3 4/4/4
f 5/6/6 2/7/7 6/8/8
f 7/10/10 1/11/11 5/12/12
f 8/14/14 3/15/15 7/16/16
f 6/18/18 4/19/19 8/20/20
f 6/22/22 7/23/23 5/21/21
