# Rhino

o object_1
v 0.47729706764221191 -0.0050000003539025784 -0.091636903584003448
v 0.26516503095626831 -0.0050000003539025784 -0.30376893281936646
v 0.22575400769710541 -0.0050000003539025784 -0.26634699106216431
v 0.18451593816280365 -0.0050000003539025784 -0.2310602068901062
v 0.14162664115428925 -0.0050000003539025784 -0.19803684949874878
v 0.097273148596286774 -0.0050000003539025784 -0.1673857718706131
v 0.051651164889335632 -0.0050000003539025784 -0.13919536769390106
v 0.0049622314982116222 -0.0050000003539025784 -0.11353285610675812
v -0.042589027434587479 -0.0050000003539025784 -0.090444006025791168
v -0.090797647833824158 -0.0050000003539025784 -0.069953344762325287
v -0.13946095108985901 -0.0050000003539025784 -0.052064705640077591
v -0.18838097155094147 -0.0050000003539025784 -0.036762155592441559
v -0.23736667633056641 -0.0050000003539025784 -0.024011224508285522
v -0.28623589873313904 -0.0050000003539025784 -0.013760424219071865
v -0.33481693267822266 -0.0050000003539025784 -0.0059429258108139038
v -0.38294991850852966 -0.0050000003539025784 -0.00047840675688348711
v -0.4772970974445343 -0.0050000003539025784 0.0037689392920583487
v -0.4772970974445343 -0.0050000003539025784 0.30376893281936646
v -0.41711375117301941 -0.0050000003539025784 0.3024267852306366
v -0.3559935986995697 -0.0050000003539025784 0.29830807447433472
v -0.29410830140113831 -0.0050000003539025784 0.29128226637840271
v -0.23164696991443634 -0.0050000003539025784 0.28123119473457336
v -0.16881512105464935 -0.0050000003539025784 0.26805159449577332
v -0.105833500623703 -0.0050000003539025784 0.25165754556655884
v -0.042936332523822784 -0.0050000003539025784 0.23198282718658447
v 0.019630767405033112 -0.0050000003539025784 0.20898313820362091
v 0.08161327987909317 -0.0050000003539025784 0.182638019323349
v 0.14275060594081879 -0.0050000003539025784 0.15295234322547913
v 0.20277923345565796 -0.0050000003539025784 0.11995768547058105
v 0.26143607497215271 -0.0050000003539025784 0.083712875843048096
v 0.31846198439598083 -0.0050000003539025784 0.044304352253675461
v 0.37360537052154541 -0.0050000003539025784 0.0018457424594089389
v 0.42662572860717773 -0.0050000003539025784 -0.043522972613573074
v 0.26516503095626831 0.0049999994225800037 -0.30376893281936646
v 0.47729706764221191 0.0049999994225800037 -0.091636903584003448
v -0.4772970974445343 0.0049999994225800037 0.0037689392920583487
v -0.38294991850852966 0.0049999994225800037 -0.00047840675688348711
v -0.33481693267822266 0.0049999994225800037 -0.0059429258108139038
v -0.28623589873313904 0.0049999994225800037 -0.013760424219071865
v -0.23736667633056641 0.0049999994225800037 -0.024011224508285522
v -0.18838097155094147 0.0049999994225800037 -0.036762155592441559
v -0.13946095108985901 0.0049999994225800037 -0.052064705640077591
v -0.090797647833824158 0.0049999994225800037 -0.069953344762325287
v -0.042589027434587479 0.0049999994225800037 -0.090444006025791168
v 0.0049622314982116222 0.0049999994225800037 -0.11353285610675812
v 0.051651164889335632 0.0049999994225800037 -0.13919536769390106
v 0.097273148596286774 0.0049999994225800037 -0.1673857718706131
v 0.14162664115428925 0.0049999994225800037 -0.19803684949874878
v 0.18451593816280365 0.0049999994225800037 -0.2310602068901062
v 0.22575400769710541 0.0049999994225800037 -0.26634699106216431
v -0.4772970974445343 0.0049999994225800037 0.30376893281936646
v 0.42662572860717773 0.0049999994225800037 -0.043522972613573074
v 0.37360537052154541 0.0049999994225800037 0.0018457424594089389
v 0.31846198439598083 0.0049999994225800037 0.044304352253675461
v 0.26143607497215271 0.0049999994225800037 0.083712875843048096
v 0.20277923345565796 0.0049999994225800037 0.11995768547058105
v 0.14275060594081879 0.0049999994225800037 0.15295234322547913
v 0.08161327987909317 0.0049999994225800037 0.182638019323349
v 0.019630767405033112 0.0049999994225800037 0.20898313820362091
v -0.042936332523822784 0.0049999994225800037 0.23198282718658447
v -0.105833500623703 0.0049999994225800037 0.25165754556655884
v -0.16881512105464935 0.0049999994225800037 0.26805159449577332
v -0.23164696991443634 0.0049999994225800037 0.28123119473457336
v -0.29410830140113831 0.0049999994225800037 0.29128226637840271
v -0.3559935986995697 0.0049999994225800037 0.29830807447433472
v -0.41711375117301941 0.0049999994225800037 0.3024267852306366
vt 0.66314816474914551 0.77290332317352295
vt 0.49190333485603333 0.60114705562591553
vt 0.52211242914199829 0.56923723220825195
vt 0.55059784650802612 0.53584814071655273
vt 0.57725620269775391 0.5011221170425415
vt 0.60199946165084839 0.46521052718162537
vt 0.6247563362121582 0.42827191948890686
vt 0.64547252655029297 0.39046943187713623
vt 0.66411113739013672 0.35196873545646667
vt 0.68065232038497925 0.31293582916259766
vt 0.69509303569793701 0.27353474497795105
vt 0.70744609832763672 0.23392583429813385
vt 0.71773940324783325 0.19426372647285461
vt 0.72601437568664551 0.15469594299793243
vt 0.73232513666152954 0.11536147445440292
vt 0.73673635721206665 0.076389774680137634
vt 0.74016505479812622 0
vt 0.98234182596206665 0
vt 0.9812583327293396 0.048728451132774353
vt 0.97793346643447876 0.09821542352437973
vt 0.97226184606552124 0.14832189679145813
vt 0.96414810419082642 0.19889478385448456
vt 0.95350879430770874 0.24976764619350433
vt 0.94027459621429443 0.30076178908348083
vt 0.92439204454421997 0.35168755054473877
vt 0.90582543611526489 0.40234607458114624
vt 0.88455820083618164 0.45253124833106995
vt 0.86059427261352539 0.50203216075897217
vt 0.83395910263061523 0.55063533782958984
vt 0.80470025539398193 0.59812784194946289
vt 0.77288752794265747 0.64429980516433716
vt 0.7386125922203064 0.68894755840301514
vt 0.70198839902877808 0.7318764328956604
vt 0 0.0088076973333954811
vt 0 0.016150550916790962
vt 0.24290007352828979 0.0088076973333954811
vt 0.24290007352828979 0.016150550916790962
vt 0.99043846130371094 0
vt 0.98380666971206665 0
vt 0.99043846130371094 0.083452455699443817
vt 0.98380666971206665 0.083452455699443817
vt 0.99043846130371094 0.12517867982387543
vt 0.98380666971206665 0.12517867982387543
vt 0.99043846130371094 0.16690491139888763
vt 0.98380666971206665 0.16690491139888763
vt 0.99043846130371094 0.20863114297389984
vt 0.98380666971206665 0.20863114297389984
vt 0.99043846130371094 0.25035735964775085
vt 0.98380666971206665 0.25035735964775085
vt 0.99043846130371094 0.29208359122276306
vt 0.98380666971206665 0.29208359122276306
vt 0.99043846130371094 0.33380982279777527
vt 0.98380666971206665 0.33380982279777527
vt 0.99043846130371094 0.37553605437278748
vt 0.98380666971206665 0.37553605437278748
vt 0.99043846130371094 0.41726228594779968
vt 0.98380666971206665 0.41726228594779968
vt 0.99043846130371094 0.45898851752281189
vt 0.98380666971206665 0.45898851752281189
vt 0.99043846130371094 0.50071471929550171
vt 0.98380666971206665 0.50071471929550171
vt 0.99043846130371094 0.54244095087051392
vt 0.98380666971206665 0.54244095087051392
vt 0.99043846130371094 0.58416718244552612
vt 0.98380666971206665 0.58416718244552612
vt 0.99043846130371094 0.62589341402053833
vt 0.98380666971206665 0.62589341402053833
vt 0.99043846130371094 0.66761964559555054
vt 0.98380666971206665 0.66761964559555054
vt 0 0
vt 0 0.0073428531177341938
vt 0.24290007352828979 0
vt 0.24290007352828979 0.0073428531177341938
vt 0.99853515625 0
vt 0.99190330505371094 0
vt 0.99853515625 0.05355801060795784
vt 0.99190330505371094 0.05355801060795784
vt 0.99853515625 0.10711602121591568
vt 0.99190330505371094 0.10711602121591568
vt 0.99853515625 0.16067402064800262
vt 0.99190330505371094 0.16067402064800262
vt 0.99853515625 0.21423204243183136
vt 0.99190330505371094 0.21423204243183136
vt 0.99853515625 0.2677900493144989
vt 0.99190330505371094 0.2677900493144989
vt 0.99853515625 0.32134804129600525
vt 0.99190330505371094 0.32134804129600525
vt 0.99853515625 0.37490606307983398
vt 0.99190330505371094 0.37490606307983398
vt 0.99853515625 0.42846408486366272
vt 0.99190330505371094 0.42846408486366272
vt 0.99853515625 0.48202207684516907
vt 0.99190330505371094 0.48202207684516907
vt 0.99853515625 0.5355800986289978
vt 0.99190330505371094 0.5355800986289978
vt 0.99853515625 0.58913809061050415
vt 0.99190330505371094 0.58913809061050415
vt 0.99853515625 0.6426960825920105
vt 0.99190330505371094 0.6426960825920105
vt 0.99853515625 0.69625413417816162
vt 0.99190330505371094 0.69625413417816162
vt 0.99853515625 0.74981212615966797
vt 0.99190330505371094 0.74981212615966797
vt 0.99853515625 0.80337011814117432
vt 0.99190330505371094 0.80337011814117432
vt 0.99853515625 0.85692816972732544
vt 0.99190330505371094 0.85692816972732544
vt 0.17124481499195099 0.79051870107650757
vt 0 0.61876243352890015
vt 0.030209096148610115 0.58685261011123657
vt 0.05869453027844429 0.55346351861953735
vt 0.085352852940559387 0.51873749494552612
vt 0.11009610444307327 0.48282593488693237
vt 0.13285298645496368 0.44588732719421387
vt 0.15356920659542084 0.40808483958244324
vt 0.1722077876329422 0.36958414316177368
vt 0.18874900043010712 0.33055120706558228
vt 0.20318970084190369 0.29115015268325806
vt 0.21554279327392578 0.25154122710227966
vt 0.22583605349063873 0.21187913417816162
vt 0.23411107063293457 0.17231133580207825
vt 0.24042180180549622 0.13297687470912933
vt 0.24483305215835571 0.094005174934864044
vt 0.24826173484325409 0.017615394666790962
vt 0.49043849110603333 0.017615394666790962
vt 0.48935502767562866 0.066343843936920166
vt 0.48603016138076782 0.11583081632852554
vt 0.4803585410118103 0.16593728959560394
vt 0.47224476933479309 0.21651017665863037
vt 0.46160545945167542 0.26738303899765015
vt 0.44837126135826111 0.31837716698646545
vt 0.43248873949050903 0.36930292844772339
vt 0.41392210125923157 0.41996145248413086
vt 0.39265483617782593 0.47014665603637695
vt 0.36869090795516968 0.51964753866195679
vt 0.3420557975769043 0.56825071573257446
vt 0.312796950340271 0.61574321985244751
vt 0.28098419308662415 0.66191518306732178
vt 0.24670922756195068 0.70656299591064453
vt 0.21008506417274475 0.74949181079864502
vn 0 -1 0
vn 0 -1 0
vn 0 -1 0
vn 0 -1 0
vn 0 -1 0
vn 0 -1 0
vn 0 -1 0
vn 0 -1 0
vn 0 -1 0
vn 0 -1 0
vn 0 -1 0
vn 0 -1 0
vn 0 -1 0
vn 0 -1 0
vn 0 -1 0
vn 0 -1 0
vn 0 -1 0
vn 0 -1 0
vn 0 -1 0
vn 0 -1 0
vn 0 -1 0
vn 0 -1 0
vn 0 -1 0
vn 0 -1 0
vn 0 -1 0
vn 0 -1 0
vn 0 -1 0
vn 0 -1 0
vn 0 -1 0
vn 0 -1 0
vn 0 -1 0
vn 0 -1 0
vn 0 -1 0
vn 0.70710676908493042 0 -0.70710676908493042
vn 0.70710676908493042 0 -0.70710676908493042
vn 0.70710676908493042 0 -0.70710676908493042
vn 0.70710676908493042 0 -0.70710676908493042
vn 0 0 -1
vn 0 0 -1
vn -0.089854441583156586 0 -0.99595493078231812
vn -0.089854441583156586 0 -0.99595493078231812
vn -0.13569539785385132 0 -0.99075061082839966
vn -0.13569539785385132 0 -0.99075061082839966
vn -0.18196305632591248 0 -0.98330539464950562
vn -0.18196305632591248 0 -0.98330539464950562
vn -0.22850516438484192 0 -0.97354269027709961
vn -0.22850516438484192 0 -0.97354269027709961
vn -0.27515822649002075 0 -0.96139895915985107
vn -0.27515822649002075 0 -0.96139895915985107
vn -0.32174870371818542 0 -0.94682508707046509
vn -0.32174870371818542 0 -0.94682508707046509
vn -0.36809471249580383 0 -0.92978829145431519
vn -0.36809471249580383 0 -0.92978829145431519
vn -0.41400769352912903 0 -0.91027337312698364
vn -0.41400769352912903 0 -0.91027337312698364
vn -0.45929458737373352 0 -0.88828402757644653
vn -0.45929458737373352 0 -0.88828402757644653
vn -0.50376021862030029 0 -0.86384350061416626
vn -0.50376021862030029 0 -0.86384350061416626
vn -0.54720973968505859 0 -0.83699548244476318
vn -0.54720973968505859 0 -0.83699548244476318
vn -0.58945119380950928 0 -0.80780398845672607
vn -0.58945119380950928 0 -0.80780398845672607
vn -0.63029813766479492 0 -0.77635318040847778
vn -0.63029813766479492 0 -0.77635318040847778
vn -0.66957247257232666 0 -0.74274671077728271
vn -0.66957247257232666 0 -0.74274671077728271
vn -0.70710676908493042 0 -0.70710676908493042
vn -0.70710676908493042 0 -0.70710676908493042
vn -1 0 0
vn -1 0 0
vn -1 0 0
vn -1 0 0
vn 0.70710676908493042 0 0.70710676908493042
vn 0.70710676908493042 0 0.70710676908493042
vn 0.66957247257232666 0 0.74274671077728271
vn 0.66957247257232666 0 0.74274671077728271
vn 0.63029813766479492 0 0.77635318040847778
vn 0.63029813766479492 0 0.77635318040847778
vn 0.58945119380950928 0 0.80780398845672607
vn 0.58945119380950928 0 0.80780398845672607
vn 0.54720973968505859 0 0.83699548244476318
vn 0.54720973968505859 0 0.83699548244476318
vn 0.50376021862030029 0 0.86384350061416626
vn 0.50376021862030029 0 0.86384350061416626
vn 0.45929458737373352 0 0.88828402757644653
vn 0.45929458737373352 0 0.88828402757644653
vn 0.41400769352912903 0 0.91027337312698364
vn 0.41400769352912903 0 0.91027337312698364
vn 0.36809471249580383 0 0.92978829145431519
vn 0.36809471249580383 0 0.92978829145431519
vn 0.32174870371818542 0 0.94682508707046509
vn 0.32174870371818542 0 0.94682508707046509
vn 0.27515822649002075 0 0.96139895915985107
vn 0.27515822649002075 0 0.96139895915985107
vn 0.22850516438484192 0 0.97354269027709961
vn 0.22850516438484192 0 0.97354269027709961
vn 0.18196305632591248 0 0.98330539464950562
vn 0.18196305632591248 0 0.98330539464950562
vn 0.13569539785385132 0 0.99075061082839966
vn 0.13569539785385132 0 0.99075061082839966
vn 0.089854441583156586 0 0.99595493078231812
vn 0.089854441583156586 0 0.99595493078231812
vn 0.044580243527889252 0 0.99900579452514648
vn 0.044580243527889252 0 0.99900579452514648
vn 0 0 1
vn 0 0 1
vn 0 1 0
vn 0 1 0
vn 0 1 0
vn 0 1 0
vn 0 1 0
vn 0 1 0
vn 0 1 0
vn 0 1 0
vn 0 1 0
vn 0 1 0
vn 0 1 0
vn 0 1 0
vn 0 1 0
vn 0 1 0
vn 0 1 0
vn 0 1 0
vn 0 1 0
vn 0 1 0
vn 0 1 0
vn 0 1 0
vn 0 1 0
vn 0 1 0
vn 0 1 0
vn 0 1 0
vn 0 1 0
vn 0 1 0
vn 0 1 0
vn 0 1 0
vn 0 1 0
vn 0 1 0
vn 0 1 0
vn 0 1 0
vn 0 1 0
f 19/19/19 18/18/18 17/17/17
f 20/20/20 19/19/19 16/16/16
f 20/20/20 16/16/16 21/21/21
f 23/23/23 22/22/22 15/15/15
f 14/14/14 24/24/24 23/23/23
f 21/21/21 16/16/16 22/22/22
f 25/25/25 24/24/24 13/13/13
f 19/19/19 17/17/17 16/16/16
f 23/23/23 15/15/15 14/14/14
f 15/15/15 22/22/22 16/16/16
f 13/13/13 12/12/12 26/26/26
f 11/11/11 10/10/10 28/28/28
f 27/27/27 12/12/12 11/11/11
f 13/13/13 24/24/24 14/14/14
f 13/13/13 26/26/26 25/25/25
f 11/11/11 28/28/28 27/27/27
f 10/10/10 29/29/29 28/28/28
f 29/29/29 10/10/10 9/9/9
f 31/31/31 30/30/30 8/8/8
f 7/7/7 32/32/32 31/31/31
f 29/29/29 9/9/9 30/30/30
f 33/33/33 32/32/32 6/6/6
f 8/8/8 30/30/30 9/9/9
f 6/6/6 32/32/32 7/7/7
f 8/8/8 7/7/7 31/31/31
f 4/4/4 1/1/1 5/5/5
f 33/33/33 6/6/6 5/5/5
f 1/1/1 4/4/4 3/3/3
f 1/1/1 3/3/3 2/2/2
f 5/5/5 1/1/1 33/33/33
f 26/26/26 12/12/12 27/27/27
f 34/35/35 35/37/37 1/36/36
f 16/40/40 17/38/38 36/39/39
f 14/44/44 15/42/42 38/43/43
f 15/42/42 16/40/40 37/41/41
f 12/48/48 13/46/46 40/47/47
f 10/52/52 11/50/50 42/51/51
f 11/50/50 12/48/48 41/49/49
f 13/46/46 14/44/44 39/45/45
f 43/53/53 44/55/55 9/54/54
f 8/56/56 9/54/54 44/55/55
f 6/60/60 7/58/58 46/59/59
f 7/58/58 8/56/56 45/57/57
f 4/64/64 5/62/62 48/63/63
f 2/68/68 3/66/66 50/67/67
f 3/66/66 4/64/64 49/65/65
f 5/62/62 6/60/60 47/61/61
f 51/71/71 36/73/73 17/72/72
f 33/76/76 1/74/74 35/75/75
f 31/80/80 32/78/78 53/79/79
f 32/78/78 33/76/76 52/77/77
f 29/84/84 30/82/82 55/83/83
f 27/88/88 28/86/86 57/87/87
f 28/86/86 29/84/84 56/85/85
f 30/82/82 31/80/80 54/81/81
f 26/90/90 27/88/88 58/89/89
f 24/94/94 25/92/92 60/93/93
f 22/98/98 23/96/96 62/97/97
f 23/96/96 24/94/94 61/95/95
f 20/102/102 21/100/100 64/101/101
f 18/106/106 19/104/104 66/105/105
f 19/104/104 20/102/102 65/103/103
f 21/100/100 22/98/98 63/99/99
f 25/92/92 26/90/90 59/91/91
f 66/126/126 36/124/124 51/125/125
f 65/127/127 37/123/123 66/126/126
f 65/127/127 64/128/128 37/123/123
f 62/130/130 38/122/122 63/129/129
f 39/121/121 62/130/130 61/131/131
f 64/128/128 63/129/129 37/123/123
f 60/132/132 40/120/120 61/131/131
f 66/126/126 37/123/123 36/124/124
f 62/130/130 39/121/121 38/122/122
f 38/122/122 37/123/123 63/129/129
f 40/120/120 59/133/133 41/119/119
f 42/118/118 57/135/135 43/117/117
f 58/134/134 42/118/118 41/119/119
f 40/120/120 39/121/121 61/131/131
f 40/120/120 60/132/132 59/133/133
f 42/118/118 58/134/134 57/135/135
f 43/117/117 57/135/135 56/136/136
f 56/136/136 44/116/116 43/117/117
f 54/138/138 45/115/115 55/137/137
f 46/114/114 54/138/138 53/139/139
f 56/136/136 55/137/137 44/116/116
f 52/140/140 47/113/113 53/139/139
f 45/115/115 44/116/116 55/137/137
f 47/113/113 46/114/114 53/139/139
f 45/115/115 54/138/138 46/114/114
f 49/111/111 48/112/112 35/108/108
f 52/140/140 48/112/112 47/113/113
f 35/108/108 50/110/110 49/111/111
f 35/108/108 34/109/109 50/110/110
f 48/112/112 52/140/140 35/108/108
f 59/133/133 58/134/134 41/119/119
f 34/35/35 1/36/36 2/34/34
f 16/40/40 36/39/39 37/41/41
f 14/44/44 38/43/43 39/45/45
f 15/42/42 37/41/41 38/43/43
f 12/48/48 40/47/47 41/49/49
f 10/52/52 42/51/51 43/53/53
f 11/50/50 41/49/49 42/51/51
f 13/46/46 39/45/45 40/47/47
f 43/53/53 9/54/54 10/52/52
f 8/56/56 44/55/55 45/57/57
f 6/60/60 46/59/59 47/61/61
f 7/58/58 45/57/57 46/59/59
f 4/64/64 48/63/63 49/65/65
f 2/68/68 50/67/67 34/69/69
f 3/66/66 49/65/65 50/67/67
f 5/62/62 47/61/61 48/63/63
f 51/71/71 17/72/72 18/70/70
f 33/76/76 35/75/75 52/77/77
f 31/80/80 53/79/79 54/81/81
f 32/78/78 52/77/77 53/79/79
f 29/84/84 55/83/83 56/85/85
f 27/88/88 57/87/87 58/89/89
f 28/86/86 56/85/85 57/87/87
f 30/82/82 54/81/81 55/83/83
f 26/90/90 58/89/89 59/91/91
f 24/94/94 60/93/93 61/95/95
f 22/98/98 62/97/97 63/99/99
f 23/96/96 61/95/95 62/97/97
f 20/102/102 64/101/101 65/103/103
f 18/106/106 66/105/105 51/107/107
f 19/104/104 65/103/103 66/105/105
f 21/100/100 63/99/99 64/101/101
f 25/92/92 59/91/91 60/93/93
